<svg class="rich-terminal" viewBox="0 0 1482 1026.0" xmlns="http://www.w3.org/2000/svg">
    <!-- Generated with Rich https://www.textualize.io -->
    <style>

    @font-face {
        font-family: "Fira Code";
        src: local("FiraCode-Regular"),
                url("https://cdnjs.cloudflare.com/ajax/libs/firacode/6.2.0/woff2/FiraCode-Regular.woff2") format("woff2"),
                url("https://cdnjs.cloudflare.com/ajax/libs/firacode/6.2.0/woff/FiraCode-Regular.woff") format("woff");
        font-style: normal;
        font-weight: 400;
    }
    @font-face {
        font-family: "Fira Code";
        src: local("FiraCode-Bold"),
                url("https://cdnjs.cloudflare.com/ajax/libs/firacode/6.2.0/woff2/FiraCode-Bold.woff2") format("woff2"),
                url("https://cdnjs.cloudflare.com/ajax/libs/firacode/6.2.0/woff/FiraCode-Bold.woff") format("woff");
        font-style: bold;
        font-weight: 700;
    }

    .terminal-407818350-matrix {
        font-family: Fira Code, monospace;
        font-size: 20px;
        line-height: 24.4px;
        font-variant-east-asian: full-width;
    }

    .terminal-407818350-title {
        font-size: 18px;
        font-weight: bold;
        font-family: arial;
    }

    .terminal-407818350-r1 { fill: #c5c8c6 }
.terminal-407818350-r2 { fill: #e0e0e0 }
.terminal-407818350-r3 { fill: #e1e1e1 }
.terminal-407818350-r4 { fill: #272727;font-weight: bold }
.terminal-407818350-r5 { fill: #757575 }
.terminal-407818350-r6 { fill: #e0e0e0;font-weight: bold }
.terminal-407818350-r7 { fill: #e1e1e1;font-weight: bold }
    </style>

    <defs>
    <clipPath id="terminal-407818350-clip-terminal">
      <rect x="0" y="0" width="1463.0" height="975.0" />
    </clipPath>
    <clipPath id="terminal-407818350-line-0">
    <rect x="0" y="1.5" width="1464" height="24.65"/>
            </clipPath>
<clipPath id="terminal-407818350-line-1">
    <rect x="0" y="25.9" width="1464" height="24.65"/>
            </clipPath>
<clipPath id="terminal-407818350-line-2">
    <rect x="0" y="50.3" width="1464" height="24.65"/>
            </clipPath>
<clipPath id="terminal-407818350-line-3">
    <rect x="0" y="74.7" width="1464" height="24.65"/>
            </clipPath>
<clipPath id="terminal-407818350-line-4">
    <rect x="0" y="99.1" width="1464" height="24.65"/>
            </clipPath>
<clipPath id="terminal-407818350-line-5">
    <rect x="0" y="123.5" width="1464" height="24.65"/>
            </clipPath>
<clipPath id="terminal-407818350-line-6">
    <rect x="0" y="147.9" width="1464" height="24.65"/>
            </clipPath>
<clipPath id="terminal-407818350-line-7">
    <rect x="0" y="172.3" width="1464" height="24.65"/>
            </clipPath>
<clipPath id="terminal-407818350-line-8">
    <rect x="0" y="196.7" width="1464" height="24.65"/>
            </clipPath>
<clipPath id="terminal-407818350-line-9">
    <rect x="0" y="221.1" width="1464" height="24.65"/>
            </clipPath>
<clipPath id="terminal-407818350-line-10">
    <rect x="0" y="245.5" width="1464" height="24.65"/>
            </clipPath>
<clipPath id="terminal-407818350-line-11">
    <rect x="0" y="269.9" width="1464" height="24.65"/>
            </clipPath>
<clipPath id="terminal-407818350-line-12">
    <rect x="0" y="294.3" width="1464" height="24.65"/>
            </clipPath>
<clipPath id="terminal-407818350-line-13">
    <rect x="0" y="318.7" width="1464" height="24.65"/>
            </clipPath>
<clipPath id="terminal-407818350-line-14">
    <rect x="0" y="343.1" width="1464" height="24.65"/>
            </clipPath>
<clipPath id="terminal-407818350-line-15">
    <rect x="0" y="367.5" width="1464" height="24.65"/>
            </clipPath>
<clipPath id="terminal-407818350-line-16">
    <rect x="0" y="391.9" width="1464" height="24.65"/>
            </clipPath>
<clipPath id="terminal-407818350-line-17">
    <rect x="0" y="416.3" width="1464" height="24.65"/>
            </clipPath>
<clipPath id="terminal-407818350-line-18">
    <rect x="0" y="440.7" width="1464" height="24.65"/>
            </clipPath>
<clipPath id="terminal-407818350-line-19">
    <rect x="0" y="465.1" width="1464" height="24.65"/>
            </clipPath>
<clipPath id="terminal-407818350-line-20">
    <rect x="0" y="489.5" width="1464" height="24.65"/>
            </clipPath>
<clipPath id="terminal-407818350-line-21">
    <rect x="0" y="513.9" width="1464" height="24.65"/>
            </clipPath>
<clipPath id="terminal-407818350-line-22">
    <rect x="0" y="538.3" width="1464" height="24.65"/>
            </clipPath>
<clipPath id="terminal-407818350-line-23">
    <rect x="0" y="562.7" width="1464" height="24.65"/>
            </clipPath>
<clipPath id="terminal-407818350-line-24">
    <rect x="0" y="587.1" width="1464" height="24.65"/>
            </clipPath>
<clipPath id="terminal-407818350-line-25">
    <rect x="0" y="611.5" width="1464" height="24.65"/>
            </clipPath>
<clipPath id="terminal-407818350-line-26">
    <rect x="0" y="635.9" width="1464" height="24.65"/>
            </clipPath>
<clipPath id="terminal-407818350-line-27">
    <rect x="0" y="660.3" width="1464" height="24.65"/>
            </clipPath>
<clipPath id="terminal-407818350-line-28">
    <rect x="0" y="684.7" width="1464" height="24.65"/>
            </clipPath>
<clipPath id="terminal-407818350-line-29">
    <rect x="0" y="709.1" width="1464" height="24.65"/>
            </clipPath>
<clipPath id="terminal-407818350-line-30">
    <rect x="0" y="733.5" width="1464" height="24.65"/>
            </clipPath>
<clipPath id="terminal-407818350-line-31">
    <rect x="0" y="757.9" width="1464" height="24.65"/>
            </clipPath>
<clipPath id="terminal-407818350-line-32">
    <rect x="0" y="782.3" width="1464" height="24.65"/>
            </clipPath>
<clipPath id="terminal-407818350-line-33">
    <rect x="0" y="806.7" width="1464" height="24.65"/>
            </clipPath>
<clipPath id="terminal-407818350-line-34">
    <rect x="0" y="831.1" width="1464" height="24.65"/>
            </clipPath>
<clipPath id="terminal-407818350-line-35">
    <rect x="0" y="855.5" width="1464" height="24.65"/>
            </clipPath>
<clipPath id="terminal-407818350-line-36">
    <rect x="0" y="879.9" width="1464" height="24.65"/>
            </clipPath>
<clipPath id="terminal-407818350-line-37">
    <rect x="0" y="904.3" width="1464" height="24.65"/>
            </clipPath>
<clipPath id="terminal-407818350-line-38">
    <rect x="0" y="928.7" width="1464" height="24.65"/>
            </clipPath>
    </defs>

    <rect fill="#292929" stroke="rgba(255,255,255,0.35)" stroke-width="1" x="1" y="1" width="1480" height="1024" rx="8"/><text class="terminal-407818350-title" fill="#c5c8c6" text-anchor="middle" x="740" y="27">yt-smzr</text>
            <g transform="translate(26,22)">
            <circle cx="0" cy="0" r="7" fill="#ff5f57"/>
            <circle cx="22" cy="0" r="7" fill="#febc2e"/>
            <circle cx="44" cy="0" r="7" fill="#28c840"/>
            </g>
        
    <g transform="translate(9, 41)" clip-path="url(#terminal-407818350-clip-terminal)">
    <rect fill="#121212" x="0" y="1.5" width="1464" height="24.65" shape-rendering="crispEdges"/><rect fill="#121212" x="0" y="25.9" width="1464" height="24.65" shape-rendering="crispEdges"/><rect fill="#121212" x="0" y="50.3" width="1464" height="24.65" shape-rendering="crispEdges"/><rect fill="#121212" x="0" y="74.7" width="1464" height="24.65" shape-rendering="crispEdges"/><rect fill="#121212" x="0" y="99.1" width="1464" height="24.65" shape-rendering="crispEdges"/><rect fill="#121212" x="0" y="123.5" width="1464" height="24.65" shape-rendering="crispEdges"/><rect fill="#121212" x="0" y="147.9" width="1464" height="24.65" shape-rendering="crispEdges"/><rect fill="#121212" x="0" y="172.3" width="1464" height="24.65" shape-rendering="crispEdges"/><rect fill="#121212" x="0" y="196.7" width="292.8" height="24.65" shape-rendering="crispEdges"/><rect fill="#1e1e1e" x="292.8" y="196.7" width="12.2" height="24.65" shape-rendering="crispEdges"/><rect fill="#1e1e1e" x="305" y="196.7" width="854" height="24.65" shape-rendering="crispEdges"/><rect fill="#1e1e1e" x="1159" y="196.7" width="12.2" height="24.65" shape-rendering="crispEdges"/><rect fill="#121212" x="1171.2" y="196.7" width="292.8" height="24.65" shape-rendering="crispEdges"/><rect fill="#121212" x="0" y="221.1" width="292.8" height="24.65" shape-rendering="crispEdges"/><rect fill="#1e1e1e" x="292.8" y="221.1" width="12.2" height="24.65" shape-rendering="crispEdges"/><rect fill="#1e1e1e" x="305" y="221.1" width="12.2" height="24.65" shape-rendering="crispEdges"/><rect fill="#1e1e1e" x="317.2" y="221.1" width="268.4" height="24.65" shape-rendering="crispEdges"/><rect fill="#1e1e1e" x="585.6" y="221.1" width="561.2" height="24.65" shape-rendering="crispEdges"/><rect fill="#1e1e1e" x="1146.8" y="221.1" width="12.2" height="24.65" shape-rendering="crispEdges"/><rect fill="#1e1e1e" x="1159" y="221.1" width="12.2" height="24.65" shape-rendering="crispEdges"/><rect fill="#121212" x="1171.2" y="221.1" width="292.8" height="24.65" shape-rendering="crispEdges"/><rect fill="#121212" x="0" y="245.5" width="292.8" height="24.65" shape-rendering="crispEdges"/><rect fill="#1e1e1e" x="292.8" y="245.5" width="12.2" height="24.65" shape-rendering="crispEdges"/><rect fill="#1e1e1e" x="305" y="245.5" width="12.2" height="24.65" shape-rendering="crispEdges"/><rect fill="#272727" x="317.2" y="245.5" width="12.2" height="24.65" shape-rendering="crispEdges"/><rect fill="#272727" x="329.4" y="245.5" width="805.2" height="24.65" shape-rendering="crispEdges"/><rect fill="#272727" x="1134.6" y="245.5" width="12.2" height="24.65" shape-rendering="crispEdges"/><rect fill="#1e1e1e" x="1146.8" y="245.5" width="12.2" height="24.65" shape-rendering="crispEdges"/><rect fill="#1e1e1e" x="1159" y="245.5" width="12.2" height="24.65" shape-rendering="crispEdges"/><rect fill="#121212" x="1171.2" y="245.5" width="292.8" height="24.65" shape-rendering="crispEdges"/><rect fill="#121212" x="0" y="269.9" width="292.8" height="24.65" shape-rendering="crispEdges"/><rect fill="#1e1e1e" x="292.8" y="269.9" width="12.2" height="24.65" shape-rendering="crispEdges"/><rect fill="#1e1e1e" x="305" y="269.9" width="12.2" height="24.65" shape-rendering="crispEdges"/><rect fill="#272727" x="317.2" y="269.9" width="12.2" height="24.65" shape-rendering="crispEdges"/><rect fill="#272727" x="329.4" y="269.9" width="24.4" height="24.65" shape-rendering="crispEdges"/><rect fill="#e0e0e0" x="353.8" y="269.9" width="73.2" height="24.65" shape-rendering="crispEdges"/><rect fill="#272727" x="427" y="269.9" width="658.8" height="24.65" shape-rendering="crispEdges"/><rect fill="#272727" x="1085.8" y="269.9" width="12.2" height="24.65" shape-rendering="crispEdges"/><rect fill="#838383" x="1098" y="269.9" width="12.2" height="24.65" shape-rendering="crispEdges"/><rect fill="#272727" x="1110.2" y="269.9" width="24.4" height="24.65" shape-rendering="crispEdges"/><rect fill="#272727" x="1134.6" y="269.9" width="12.2" height="24.65" shape-rendering="crispEdges"/><rect fill="#1e1e1e" x="1146.8" y="269.9" width="12.2" height="24.65" shape-rendering="crispEdges"/><rect fill="#1e1e1e" x="1159" y="269.9" width="12.2" height="24.65" shape-rendering="crispEdges"/><rect fill="#121212" x="1171.2" y="269.9" width="292.8" height="24.65" shape-rendering="crispEdges"/><rect fill="#121212" x="0" y="294.3" width="292.8" height="24.65" shape-rendering="crispEdges"/><rect fill="#1e1e1e" x="292.8" y="294.3" width="12.2" height="24.65" shape-rendering="crispEdges"/><rect fill="#1e1e1e" x="305" y="294.3" width="12.2" height="24.65" shape-rendering="crispEdges"/><rect fill="#272727" x="317.2" y="294.3" width="12.2" height="24.65" shape-rendering="crispEdges"/><rect fill="#272727" x="329.4" y="294.3" width="805.2" height="24.65" shape-rendering="crispEdges"/><rect fill="#272727" x="1134.6" y="294.3" width="12.2" height="24.65" shape-rendering="crispEdges"/><rect fill="#1e1e1e" x="1146.8" y="294.3" width="12.2" height="24.65" shape-rendering="crispEdges"/><rect fill="#1e1e1e" x="1159" y="294.3" width="12.2" height="24.65" shape-rendering="crispEdges"/><rect fill="#121212" x="1171.2" y="294.3" width="292.8" height="24.65" shape-rendering="crispEdges"/><rect fill="#121212" x="0" y="318.7" width="292.8" height="24.65" shape-rendering="crispEdges"/><rect fill="#1e1e1e" x="292.8" y="318.7" width="12.2" height="24.65" shape-rendering="crispEdges"/><rect fill="#1e1e1e" x="305" y="318.7" width="12.2" height="24.65" shape-rendering="crispEdges"/><rect fill="#1e1e1e" x="317.2" y="318.7" width="488" height="24.65" shape-rendering="crispEdges"/><rect fill="#1e1e1e" x="805.2" y="318.7" width="341.6" height="24.65" shape-rendering="crispEdges"/><rect fill="#1e1e1e" x="1146.8" y="318.7" width="12.2" height="24.65" shape-rendering="crispEdges"/><rect fill="#1e1e1e" x="1159" y="318.7" width="12.2" height="24.65" shape-rendering="crispEdges"/><rect fill="#121212" x="1171.2" y="318.7" width="292.8" height="24.65" shape-rendering="crispEdges"/><rect fill="#121212" x="0" y="343.1" width="292.8" height="24.65" shape-rendering="crispEdges"/><rect fill="#1e1e1e" x="292.8" y="343.1" width="12.2" height="24.65" shape-rendering="crispEdges"/><rect fill="#1e1e1e" x="305" y="343.1" width="12.2" height="24.65" shape-rendering="crispEdges"/><rect fill="#1e1e1e" x="317.2" y="343.1" width="12.2" height="24.65" shape-rendering="crispEdges"/><rect fill="#1e1e1e" x="329.4" y="343.1" width="805.2" height="24.65" shape-rendering="crispEdges"/><rect fill="#1e1e1e" x="1134.6" y="343.1" width="12.2" height="24.65" shape-rendering="crispEdges"/><rect fill="#1e1e1e" x="1146.8" y="343.1" width="12.2" height="24.65" shape-rendering="crispEdges"/><rect fill="#1e1e1e" x="1159" y="343.1" width="12.2" height="24.65" shape-rendering="crispEdges"/><rect fill="#121212" x="1171.2" y="343.1" width="292.8" height="24.65" shape-rendering="crispEdges"/><rect fill="#121212" x="0" y="367.5" width="292.8" height="24.65" shape-rendering="crispEdges"/><rect fill="#1e1e1e" x="292.8" y="367.5" width="12.2" height="24.65" shape-rendering="crispEdges"/><rect fill="#1e1e1e" x="305" y="367.5" width="12.2" height="24.65" shape-rendering="crispEdges"/><rect fill="#1e1e1e" x="317.2" y="367.5" width="12.2" height="24.65" shape-rendering="crispEdges"/><rect fill="#1e1e1e" x="329.4" y="367.5" width="12.2" height="24.65" shape-rendering="crispEdges"/><rect fill="#1e1e1e" x="341.6" y="367.5" width="97.6" height="24.65" shape-rendering="crispEdges"/><rect fill="#1e1e1e" x="439.2" y="367.5" width="683.2" height="24.65" shape-rendering="crispEdges"/><rect fill="#1e1e1e" x="1122.4" y="367.5" width="12.2" height="24.65" shape-rendering="crispEdges"/><rect fill="#1e1e1e" x="1134.6" y="367.5" width="12.2" height="24.65" shape-rendering="crispEdges"/><rect fill="#1e1e1e" x="1146.8" y="367.5" width="12.2" height="24.65" shape-rendering="crispEdges"/><rect fill="#1e1e1e" x="1159" y="367.5" width="12.2" height="24.65" shape-rendering="crispEdges"/><rect fill="#121212" x="1171.2" y="367.5" width="292.8" height="24.65" shape-rendering="crispEdges"/><rect fill="#121212" x="0" y="391.9" width="292.8" height="24.65" shape-rendering="crispEdges"/><rect fill="#1e1e1e" x="292.8" y="391.9" width="12.2" height="24.65" shape-rendering="crispEdges"/><rect fill="#1e1e1e" x="305" y="391.9" width="12.2" height="24.65" shape-rendering="crispEdges"/><rect fill="#1e1e1e" x="317.2" y="391.9" width="12.2" height="24.65" shape-rendering="crispEdges"/><rect fill="#1e1e1e" x="329.4" y="391.9" width="805.2" height="24.65" shape-rendering="crispEdges"/><rect fill="#1e1e1e" x="1134.6" y="391.9" width="12.2" height="24.65" shape-rendering="crispEdges"/><rect fill="#1e1e1e" x="1146.8" y="391.9" width="12.2" height="24.65" shape-rendering="crispEdges"/><rect fill="#1e1e1e" x="1159" y="391.9" width="12.2" height="24.65" shape-rendering="crispEdges"/><rect fill="#121212" x="1171.2" y="391.9" width="292.8" height="24.65" shape-rendering="crispEdges"/><rect fill="#121212" x="0" y="416.3" width="292.8" height="24.65" shape-rendering="crispEdges"/><rect fill="#1e1e1e" x="292.8" y="416.3" width="12.2" height="24.65" shape-rendering="crispEdges"/><rect fill="#1e1e1e" x="305" y="416.3" width="12.2" height="24.65" shape-rendering="crispEdges"/><rect fill="#1e1e1e" x="317.2" y="416.3" width="292.8" height="24.65" shape-rendering="crispEdges"/><rect fill="#1e1e1e" x="610" y="416.3" width="536.8" height="24.65" shape-rendering="crispEdges"/><rect fill="#1e1e1e" x="1146.8" y="416.3" width="12.2" height="24.65" shape-rendering="crispEdges"/><rect fill="#1e1e1e" x="1159" y="416.3" width="12.2" height="24.65" shape-rendering="crispEdges"/><rect fill="#121212" x="1171.2" y="416.3" width="292.8" height="24.65" shape-rendering="crispEdges"/><rect fill="#121212" x="0" y="440.7" width="292.8" height="24.65" shape-rendering="crispEdges"/><rect fill="#1e1e1e" x="292.8" y="440.7" width="12.2" height="24.65" shape-rendering="crispEdges"/><rect fill="#1e1e1e" x="305" y="440.7" width="12.2" height="24.65" shape-rendering="crispEdges"/><rect fill="#1e1e1e" x="317.2" y="440.7" width="12.2" height="24.65" shape-rendering="crispEdges"/><rect fill="#1e1e1e" x="329.4" y="440.7" width="805.2" height="24.65" shape-rendering="crispEdges"/><rect fill="#1e1e1e" x="1134.6" y="440.7" width="12.2" height="24.65" shape-rendering="crispEdges"/><rect fill="#1e1e1e" x="1146.8" y="440.7" width="12.2" height="24.65" shape-rendering="crispEdges"/><rect fill="#1e1e1e" x="1159" y="440.7" width="12.2" height="24.65" shape-rendering="crispEdges"/><rect fill="#121212" x="1171.2" y="440.7" width="292.8" height="24.65" shape-rendering="crispEdges"/><rect fill="#121212" x="0" y="465.1" width="292.8" height="24.65" shape-rendering="crispEdges"/><rect fill="#1e1e1e" x="292.8" y="465.1" width="12.2" height="24.65" shape-rendering="crispEdges"/><rect fill="#1e1e1e" x="305" y="465.1" width="12.2" height="24.65" shape-rendering="crispEdges"/><rect fill="#1e1e1e" x="317.2" y="465.1" width="12.2" height="24.65" shape-rendering="crispEdges"/><rect fill="#1e1e1e" x="329.4" y="465.1" width="12.2" height="24.65" shape-rendering="crispEdges"/><rect fill="#1e1e1e" x="341.6" y="465.1" width="268.4" height="24.65" shape-rendering="crispEdges"/><rect fill="#1e1e1e" x="610" y="465.1" width="512.4" height="24.65" shape-rendering="crispEdges"/><rect fill="#1e1e1e" x="1122.4" y="465.1" width="12.2" height="24.65" shape-rendering="crispEdges"/><rect fill="#1e1e1e" x="1134.6" y="465.1" width="12.2" height="24.65" shape-rendering="crispEdges"/><rect fill="#1e1e1e" x="1146.8" y="465.1" width="12.2" height="24.65" shape-rendering="crispEdges"/><rect fill="#1e1e1e" x="1159" y="465.1" width="12.2" height="24.65" shape-rendering="crispEdges"/><rect fill="#121212" x="1171.2" y="465.1" width="292.8" height="24.65" shape-rendering="crispEdges"/><rect fill="#121212" x="0" y="489.5" width="292.8" height="24.65" shape-rendering="crispEdges"/><rect fill="#1e1e1e" x="292.8" y="489.5" width="12.2" height="24.65" shape-rendering="crispEdges"/><rect fill="#1e1e1e" x="305" y="489.5" width="12.2" height="24.65" shape-rendering="crispEdges"/><rect fill="#1e1e1e" x="317.2" y="489.5" width="12.2" height="24.65" shape-rendering="crispEdges"/><rect fill="#1e1e1e" x="329.4" y="489.5" width="805.2" height="24.65" shape-rendering="crispEdges"/><rect fill="#1e1e1e" x="1134.6" y="489.5" width="12.2" height="24.65" shape-rendering="crispEdges"/><rect fill="#1e1e1e" x="1146.8" y="489.5" width="12.2" height="24.65" shape-rendering="crispEdges"/><rect fill="#1e1e1e" x="1159" y="489.5" width="12.2" height="24.65" shape-rendering="crispEdges"/><rect fill="#121212" x="1171.2" y="489.5" width="292.8" height="24.65" shape-rendering="crispEdges"/><rect fill="#121212" x="0" y="513.9" width="292.8" height="24.65" shape-rendering="crispEdges"/><rect fill="#1e1e1e" x="292.8" y="513.9" width="12.2" height="24.65" shape-rendering="crispEdges"/><rect fill="#1e1e1e" x="305" y="513.9" width="12.2" height="24.65" shape-rendering="crispEdges"/><rect fill="#1e1e1e" x="317.2" y="513.9" width="317.2" height="24.65" shape-rendering="crispEdges"/><rect fill="#1e1e1e" x="634.4" y="513.9" width="512.4" height="24.65" shape-rendering="crispEdges"/><rect fill="#1e1e1e" x="1146.8" y="513.9" width="12.2" height="24.65" shape-rendering="crispEdges"/><rect fill="#1e1e1e" x="1159" y="513.9" width="12.2" height="24.65" shape-rendering="crispEdges"/><rect fill="#121212" x="1171.2" y="513.9" width="292.8" height="24.65" shape-rendering="crispEdges"/><rect fill="#121212" x="0" y="538.3" width="292.8" height="24.65" shape-rendering="crispEdges"/><rect fill="#1e1e1e" x="292.8" y="538.3" width="12.2" height="24.65" shape-rendering="crispEdges"/><rect fill="#1e1e1e" x="305" y="538.3" width="12.2" height="24.65" shape-rendering="crispEdges"/><rect fill="#1e1e1e" x="317.2" y="538.3" width="12.2" height="24.65" shape-rendering="crispEdges"/><rect fill="#1e1e1e" x="329.4" y="538.3" width="805.2" height="24.65" shape-rendering="crispEdges"/><rect fill="#1e1e1e" x="1134.6" y="538.3" width="12.2" height="24.65" shape-rendering="crispEdges"/><rect fill="#1e1e1e" x="1146.8" y="538.3" width="12.2" height="24.65" shape-rendering="crispEdges"/><rect fill="#1e1e1e" x="1159" y="538.3" width="12.2" height="24.65" shape-rendering="crispEdges"/><rect fill="#121212" x="1171.2" y="538.3" width="292.8" height="24.65" shape-rendering="crispEdges"/><rect fill="#121212" x="0" y="562.7" width="292.8" height="24.65" shape-rendering="crispEdges"/><rect fill="#1e1e1e" x="292.8" y="562.7" width="12.2" height="24.65" shape-rendering="crispEdges"/><rect fill="#1e1e1e" x="305" y="562.7" width="12.2" height="24.65" shape-rendering="crispEdges"/><rect fill="#1e1e1e" x="317.2" y="562.7" width="12.2" height="24.65" shape-rendering="crispEdges"/><rect fill="#1e1e1e" x="329.4" y="562.7" width="12.2" height="24.65" shape-rendering="crispEdges"/><rect fill="#1e1e1e" x="341.6" y="562.7" width="36.6" height="24.65" shape-rendering="crispEdges"/><rect fill="#1e1e1e" x="378.2" y="562.7" width="744.2" height="24.65" shape-rendering="crispEdges"/><rect fill="#1e1e1e" x="1122.4" y="562.7" width="12.2" height="24.65" shape-rendering="crispEdges"/><rect fill="#1e1e1e" x="1134.6" y="562.7" width="12.2" height="24.65" shape-rendering="crispEdges"/><rect fill="#1e1e1e" x="1146.8" y="562.7" width="12.2" height="24.65" shape-rendering="crispEdges"/><rect fill="#1e1e1e" x="1159" y="562.7" width="12.2" height="24.65" shape-rendering="crispEdges"/><rect fill="#121212" x="1171.2" y="562.7" width="292.8" height="24.65" shape-rendering="crispEdges"/><rect fill="#121212" x="0" y="587.1" width="292.8" height="24.65" shape-rendering="crispEdges"/><rect fill="#1e1e1e" x="292.8" y="587.1" width="12.2" height="24.65" shape-rendering="crispEdges"/><rect fill="#1e1e1e" x="305" y="587.1" width="12.2" height="24.65" shape-rendering="crispEdges"/><rect fill="#1e1e1e" x="317.2" y="587.1" width="12.2" height="24.65" shape-rendering="crispEdges"/><rect fill="#1e1e1e" x="329.4" y="587.1" width="805.2" height="24.65" shape-rendering="crispEdges"/><rect fill="#1e1e1e" x="1134.6" y="587.1" width="12.2" height="24.65" shape-rendering="crispEdges"/><rect fill="#1e1e1e" x="1146.8" y="587.1" width="12.2" height="24.65" shape-rendering="crispEdges"/><rect fill="#1e1e1e" x="1159" y="587.1" width="12.2" height="24.65" shape-rendering="crispEdges"/><rect fill="#121212" x="1171.2" y="587.1" width="292.8" height="24.65" shape-rendering="crispEdges"/><rect fill="#121212" x="0" y="611.5" width="292.8" height="24.65" shape-rendering="crispEdges"/><rect fill="#1e1e1e" x="292.8" y="611.5" width="12.2" height="24.65" shape-rendering="crispEdges"/><rect fill="#1e1e1e" x="305" y="611.5" width="12.2" height="24.65" shape-rendering="crispEdges"/><rect fill="#1e1e1e" x="317.2" y="611.5" width="12.2" height="24.65" shape-rendering="crispEdges"/><rect fill="#1e1e1e" x="329.4" y="611.5" width="195.2" height="24.65" shape-rendering="crispEdges"/><rect fill="#1e1e1e" x="524.6" y="611.5" width="12.2" height="24.65" shape-rendering="crispEdges"/><rect fill="#1e1e1e" x="536.8" y="611.5" width="610" height="24.65" shape-rendering="crispEdges"/><rect fill="#1e1e1e" x="1146.8" y="611.5" width="12.2" height="24.65" shape-rendering="crispEdges"/><rect fill="#1e1e1e" x="1159" y="611.5" width="12.2" height="24.65" shape-rendering="crispEdges"/><rect fill="#121212" x="1171.2" y="611.5" width="292.8" height="24.65" shape-rendering="crispEdges"/><rect fill="#121212" x="0" y="635.9" width="292.8" height="24.65" shape-rendering="crispEdges"/><rect fill="#1e1e1e" x="292.8" y="635.9" width="12.2" height="24.65" shape-rendering="crispEdges"/><rect fill="#1e1e1e" x="305" y="635.9" width="12.2" height="24.65" shape-rendering="crispEdges"/><rect fill="#1e1e1e" x="317.2" y="635.9" width="683.2" height="24.65" shape-rendering="crispEdges"/><rect fill="#1e1e1e" x="1000.4" y="635.9" width="146.4" height="24.65" shape-rendering="crispEdges"/><rect fill="#1e1e1e" x="1146.8" y="635.9" width="12.2" height="24.65" shape-rendering="crispEdges"/><rect fill="#1e1e1e" x="1159" y="635.9" width="12.2" height="24.65" shape-rendering="crispEdges"/><rect fill="#121212" x="1171.2" y="635.9" width="292.8" height="24.65" shape-rendering="crispEdges"/><rect fill="#121212" x="0" y="660.3" width="292.8" height="24.65" shape-rendering="crispEdges"/><rect fill="#1e1e1e" x="292.8" y="660.3" width="12.2" height="24.65" shape-rendering="crispEdges"/><rect fill="#1e1e1e" x="305" y="660.3" width="12.2" height="24.65" shape-rendering="crispEdges"/><rect fill="#1e1e1e" x="317.2" y="660.3" width="780.8" height="24.65" shape-rendering="crispEdges"/><rect fill="#1e1e1e" x="1098" y="660.3" width="48.8" height="24.65" shape-rendering="crispEdges"/><rect fill="#1e1e1e" x="1146.8" y="660.3" width="12.2" height="24.65" shape-rendering="crispEdges"/><rect fill="#1e1e1e" x="1159" y="660.3" width="12.2" height="24.65" shape-rendering="crispEdges"/><rect fill="#121212" x="1171.2" y="660.3" width="292.8" height="24.65" shape-rendering="crispEdges"/><rect fill="#121212" x="0" y="684.7" width="292.8" height="24.65" shape-rendering="crispEdges"/><rect fill="#1e1e1e" x="292.8" y="684.7" width="12.2" height="24.65" shape-rendering="crispEdges"/><rect fill="#1e1e1e" x="305" y="684.7" width="12.2" height="24.65" shape-rendering="crispEdges"/><rect fill="#1e1e1e" x="317.2" y="684.7" width="780.8" height="24.65" shape-rendering="crispEdges"/><rect fill="#1e1e1e" x="1098" y="684.7" width="48.8" height="24.65" shape-rendering="crispEdges"/><rect fill="#1e1e1e" x="1146.8" y="684.7" width="12.2" height="24.65" shape-rendering="crispEdges"/><rect fill="#1e1e1e" x="1159" y="684.7" width="12.2" height="24.65" shape-rendering="crispEdges"/><rect fill="#121212" x="1171.2" y="684.7" width="292.8" height="24.65" shape-rendering="crispEdges"/><rect fill="#121212" x="0" y="709.1" width="292.8" height="24.65" shape-rendering="crispEdges"/><rect fill="#1e1e1e" x="292.8" y="709.1" width="12.2" height="24.65" shape-rendering="crispEdges"/><rect fill="#1e1e1e" x="305" y="709.1" width="12.2" height="24.65" shape-rendering="crispEdges"/><rect fill="#1e1e1e" x="317.2" y="709.1" width="12.2" height="24.65" shape-rendering="crispEdges"/><rect fill="#1e1e1e" x="329.4" y="709.1" width="85.4" height="24.65" shape-rendering="crispEdges"/><rect fill="#1e1e1e" x="414.8" y="709.1" width="12.2" height="24.65" shape-rendering="crispEdges"/><rect fill="#1e1e1e" x="427" y="709.1" width="12.2" height="24.65" shape-rendering="crispEdges"/><rect fill="#1e1e1e" x="439.2" y="709.1" width="12.2" height="24.65" shape-rendering="crispEdges"/><rect fill="#1e1e1e" x="451.4" y="709.1" width="12.2" height="24.65" shape-rendering="crispEdges"/><rect fill="#1e1e1e" x="463.6" y="709.1" width="12.2" height="24.65" shape-rendering="crispEdges"/><rect fill="#1e1e1e" x="475.8" y="709.1" width="73.2" height="24.65" shape-rendering="crispEdges"/><rect fill="#1e1e1e" x="549" y="709.1" width="12.2" height="24.65" shape-rendering="crispEdges"/><rect fill="#1e1e1e" x="561.2" y="709.1" width="12.2" height="24.65" shape-rendering="crispEdges"/><rect fill="#1e1e1e" x="573.4" y="709.1" width="12.2" height="24.65" shape-rendering="crispEdges"/><rect fill="#1e1e1e" x="585.6" y="709.1" width="12.2" height="24.65" shape-rendering="crispEdges"/><rect fill="#1e1e1e" x="597.8" y="709.1" width="97.6" height="24.65" shape-rendering="crispEdges"/><rect fill="#1e1e1e" x="695.4" y="709.1" width="12.2" height="24.65" shape-rendering="crispEdges"/><rect fill="#1e1e1e" x="707.6" y="709.1" width="439.2" height="24.65" shape-rendering="crispEdges"/><rect fill="#1e1e1e" x="1146.8" y="709.1" width="12.2" height="24.65" shape-rendering="crispEdges"/><rect fill="#1e1e1e" x="1159" y="709.1" width="12.2" height="24.65" shape-rendering="crispEdges"/><rect fill="#121212" x="1171.2" y="709.1" width="292.8" height="24.65" shape-rendering="crispEdges"/><rect fill="#121212" x="0" y="733.5" width="292.8" height="24.65" shape-rendering="crispEdges"/><rect fill="#1e1e1e" x="292.8" y="733.5" width="12.2" height="24.65" shape-rendering="crispEdges"/><rect fill="#1e1e1e" x="305" y="733.5" width="854" height="24.65" shape-rendering="crispEdges"/><rect fill="#1e1e1e" x="1159" y="733.5" width="12.2" height="24.65" shape-rendering="crispEdges"/><rect fill="#121212" x="1171.2" y="733.5" width="292.8" height="24.65" shape-rendering="crispEdges"/><rect fill="#121212" x="0" y="757.9" width="1464" height="24.65" shape-rendering="crispEdges"/><rect fill="#121212" x="0" y="782.3" width="1464" height="24.65" shape-rendering="crispEdges"/><rect fill="#121212" x="0" y="806.7" width="1464" height="24.65" shape-rendering="crispEdges"/><rect fill="#121212" x="0" y="831.1" width="1464" height="24.65" shape-rendering="crispEdges"/><rect fill="#121212" x="0" y="855.5" width="1464" height="24.65" shape-rendering="crispEdges"/><rect fill="#121212" x="0" y="879.9" width="1464" height="24.65" shape-rendering="crispEdges"/><rect fill="#121212" x="0" y="904.3" width="1464" height="24.65" shape-rendering="crispEdges"/><rect fill="#121212" x="0" y="928.7" width="1464" height="24.65" shape-rendering="crispEdges"/><rect fill="#121212" x="0" y="953.1" width="1464" height="24.65" shape-rendering="crispEdges"/>
    <g class="terminal-407818350-matrix">
    <text class="terminal-407818350-r1" x="1464" y="20" textLength="12.2" clip-path="url(#terminal-407818350-line-0)">
</text><text class="terminal-407818350-r1" x="1464" y="44.4" textLength="12.2" clip-path="url(#terminal-407818350-line-1)">
</text><text class="terminal-407818350-r1" x="1464" y="68.8" textLength="12.2" clip-path="url(#terminal-407818350-line-2)">
</text><text class="terminal-407818350-r1" x="1464" y="93.2" textLength="12.2" clip-path="url(#terminal-407818350-line-3)">
</text><text class="terminal-407818350-r1" x="1464" y="117.6" textLength="12.2" clip-path="url(#terminal-407818350-line-4)">
</text><text class="terminal-407818350-r1" x="1464" y="142" textLength="12.2" clip-path="url(#terminal-407818350-line-5)">
</text><text class="terminal-407818350-r1" x="1464" y="166.4" textLength="12.2" clip-path="url(#terminal-407818350-line-6)">
</text><text class="terminal-407818350-r1" x="1464" y="190.8" textLength="12.2" clip-path="url(#terminal-407818350-line-7)">
</text><text class="terminal-407818350-r2" x="292.8" y="215.2" textLength="12.2" clip-path="url(#terminal-407818350-line-8)">┌</text><text class="terminal-407818350-r2" x="305" y="215.2" textLength="854" clip-path="url(#terminal-407818350-line-8)">──────────────────────────────────────────────────────────────────────</text><text class="terminal-407818350-r2" x="1159" y="215.2" textLength="12.2" clip-path="url(#terminal-407818350-line-8)">┐</text><text class="terminal-407818350-r1" x="1464" y="215.2" textLength="12.2" clip-path="url(#terminal-407818350-line-8)">
</text><text class="terminal-407818350-r2" x="292.8" y="239.6" textLength="12.2" clip-path="url(#terminal-407818350-line-9)">│</text><text class="terminal-407818350-r3" x="317.2" y="239.6" textLength="268.4" clip-path="url(#terminal-407818350-line-9)">Summarization&#160;settings</text><text class="terminal-407818350-r2" x="1159" y="239.6" textLength="12.2" clip-path="url(#terminal-407818350-line-9)">│</text><text class="terminal-407818350-r1" x="1464" y="239.6" textLength="12.2" clip-path="url(#terminal-407818350-line-9)">
</text><text class="terminal-407818350-r2" x="292.8" y="264" textLength="12.2" clip-path="url(#terminal-407818350-line-10)">│</text><text class="terminal-407818350-r2" x="317.2" y="264" textLength="12.2" clip-path="url(#terminal-407818350-line-10)">┌</text><text class="terminal-407818350-r2" x="329.4" y="264" textLength="805.2" clip-path="url(#terminal-407818350-line-10)">──────────────────────────────────────────────────────────────────</text><text class="terminal-407818350-r2" x="1134.6" y="264" textLength="12.2" clip-path="url(#terminal-407818350-line-10)">┐</text><text class="terminal-407818350-r2" x="1159" y="264" textLength="12.2" clip-path="url(#terminal-407818350-line-10)">│</text><text class="terminal-407818350-r1" x="1464" y="264" textLength="12.2" clip-path="url(#terminal-407818350-line-10)">
</text><text class="terminal-407818350-r2" x="292.8" y="288.4" textLength="12.2" clip-path="url(#terminal-407818350-line-11)">│</text><text class="terminal-407818350-r2" x="317.2" y="288.4" textLength="12.2" clip-path="url(#terminal-407818350-line-11)">│</text><text class="terminal-407818350-r4" x="353.8" y="288.4" textLength="73.2" clip-path="url(#terminal-407818350-line-11)">ollama</text><text class="terminal-407818350-r4" x="1098" y="288.4" textLength="12.2" clip-path="url(#terminal-407818350-line-11)">▼</text><text class="terminal-407818350-r2" x="1134.6" y="288.4" textLength="12.2" clip-path="url(#terminal-407818350-line-11)">│</text><text class="terminal-407818350-r2" x="1159" y="288.4" textLength="12.2" clip-path="url(#terminal-407818350-line-11)">│</text><text class="terminal-407818350-r1" x="1464" y="288.4" textLength="12.2" clip-path="url(#terminal-407818350-line-11)">
</text><text class="terminal-407818350-r2" x="292.8" y="312.8" textLength="12.2" clip-path="url(#terminal-407818350-line-12)">│</text><text class="terminal-407818350-r2" x="317.2" y="312.8" textLength="12.2" clip-path="url(#terminal-407818350-line-12)">└</text><text class="terminal-407818350-r2" x="329.4" y="312.8" textLength="805.2" clip-path="url(#terminal-407818350-line-12)">──────────────────────────────────────────────────────────────────</text><text class="terminal-407818350-r2" x="1134.6" y="312.8" textLength="12.2" clip-path="url(#terminal-407818350-line-12)">┘</text><text class="terminal-407818350-r2" x="1159" y="312.8" textLength="12.2" clip-path="url(#terminal-407818350-line-12)">│</text><text class="terminal-407818350-r1" x="1464" y="312.8" textLength="12.2" clip-path="url(#terminal-407818350-line-12)">
</text><text class="terminal-407818350-r2" x="292.8" y="337.2" textLength="12.2" clip-path="url(#terminal-407818350-line-13)">│</text><text class="terminal-407818350-r3" x="317.2" y="337.2" textLength="488" clip-path="url(#terminal-407818350-line-13)">Model,&#160;explicit&#160;installed&#160;tag&#160;for&#160;Ollama</text><text class="terminal-407818350-r2" x="1159" y="337.2" textLength="12.2" clip-path="url(#terminal-407818350-line-13)">│</text><text class="terminal-407818350-r1" x="1464" y="337.2" textLength="12.2" clip-path="url(#terminal-407818350-line-13)">
</text><text class="terminal-407818350-r2" x="292.8" y="361.6" textLength="12.2" clip-path="url(#terminal-407818350-line-14)">│</text><text class="terminal-407818350-r5" x="317.2" y="361.6" textLength="12.2" clip-path="url(#terminal-407818350-line-14)">┌</text><text class="terminal-407818350-r5" x="329.4" y="361.6" textLength="805.2" clip-path="url(#terminal-407818350-line-14)">──────────────────────────────────────────────────────────────────</text><text class="terminal-407818350-r5" x="1134.6" y="361.6" textLength="12.2" clip-path="url(#terminal-407818350-line-14)">┐</text><text class="terminal-407818350-r2" x="1159" y="361.6" textLength="12.2" clip-path="url(#terminal-407818350-line-14)">│</text><text class="terminal-407818350-r1" x="1464" y="361.6" textLength="12.2" clip-path="url(#terminal-407818350-line-14)">
</text><text class="terminal-407818350-r2" x="292.8" y="386" textLength="12.2" clip-path="url(#terminal-407818350-line-15)">│</text><text class="terminal-407818350-r5" x="317.2" y="386" textLength="12.2" clip-path="url(#terminal-407818350-line-15)">│</text><text class="terminal-407818350-r2" x="341.6" y="386" textLength="97.6" clip-path="url(#terminal-407818350-line-15)">qwen3:8b</text><text class="terminal-407818350-r5" x="1134.6" y="386" textLength="12.2" clip-path="url(#terminal-407818350-line-15)">│</text><text class="terminal-407818350-r2" x="1159" y="386" textLength="12.2" clip-path="url(#terminal-407818350-line-15)">│</text><text class="terminal-407818350-r1" x="1464" y="386" textLength="12.2" clip-path="url(#terminal-407818350-line-15)">
</text><text class="terminal-407818350-r2" x="292.8" y="410.4" textLength="12.2" clip-path="url(#terminal-407818350-line-16)">│</text><text class="terminal-407818350-r5" x="317.2" y="410.4" textLength="12.2" clip-path="url(#terminal-407818350-line-16)">└</text><text class="terminal-407818350-r5" x="329.4" y="410.4" textLength="805.2" clip-path="url(#terminal-407818350-line-16)">──────────────────────────────────────────────────────────────────</text><text class="terminal-407818350-r5" x="1134.6" y="410.4" textLength="12.2" clip-path="url(#terminal-407818350-line-16)">┘</text><text class="terminal-407818350-r2" x="1159" y="410.4" textLength="12.2" clip-path="url(#terminal-407818350-line-16)">│</text><text class="terminal-407818350-r1" x="1464" y="410.4" textLength="12.2" clip-path="url(#terminal-407818350-line-16)">
</text><text class="terminal-407818350-r2" x="292.8" y="434.8" textLength="12.2" clip-path="url(#terminal-407818350-line-17)">│</text><text class="terminal-407818350-r3" x="317.2" y="434.8" textLength="292.8" clip-path="url(#terminal-407818350-line-17)">Ollama&#160;HTTP/HTTPS&#160;server</text><text class="terminal-407818350-r2" x="1159" y="434.8" textLength="12.2" clip-path="url(#terminal-407818350-line-17)">│</text><text class="terminal-407818350-r1" x="1464" y="434.8" textLength="12.2" clip-path="url(#terminal-407818350-line-17)">
</text><text class="terminal-407818350-r2" x="292.8" y="459.2" textLength="12.2" clip-path="url(#terminal-407818350-line-18)">│</text><text class="terminal-407818350-r5" x="317.2" y="459.2" textLength="12.2" clip-path="url(#terminal-407818350-line-18)">┌</text><text class="terminal-407818350-r5" x="329.4" y="459.2" textLength="805.2" clip-path="url(#terminal-407818350-line-18)">──────────────────────────────────────────────────────────────────</text><text class="terminal-407818350-r5" x="1134.6" y="459.2" textLength="12.2" clip-path="url(#terminal-407818350-line-18)">┐</text><text class="terminal-407818350-r2" x="1159" y="459.2" textLength="12.2" clip-path="url(#terminal-407818350-line-18)">│</text><text class="terminal-407818350-r1" x="1464" y="459.2" textLength="12.2" clip-path="url(#terminal-407818350-line-18)">
</text><text class="terminal-407818350-r2" x="292.8" y="483.6" textLength="12.2" clip-path="url(#terminal-407818350-line-19)">│</text><text class="terminal-407818350-r5" x="317.2" y="483.6" textLength="12.2" clip-path="url(#terminal-407818350-line-19)">│</text><text class="terminal-407818350-r2" x="341.6" y="483.6" textLength="268.4" clip-path="url(#terminal-407818350-line-19)">http://localhost:11434</text><text class="terminal-407818350-r5" x="1134.6" y="483.6" textLength="12.2" clip-path="url(#terminal-407818350-line-19)">│</text><text class="terminal-407818350-r2" x="1159" y="483.6" textLength="12.2" clip-path="url(#terminal-407818350-line-19)">│</text><text class="terminal-407818350-r1" x="1464" y="483.6" textLength="12.2" clip-path="url(#terminal-407818350-line-19)">
</text><text class="terminal-407818350-r2" x="292.8" y="508" textLength="12.2" clip-path="url(#terminal-407818350-line-20)">│</text><text class="terminal-407818350-r5" x="317.2" y="508" textLength="12.2" clip-path="url(#terminal-407818350-line-20)">└</text><text class="terminal-407818350-r5" x="329.4" y="508" textLength="805.2" clip-path="url(#terminal-407818350-line-20)">──────────────────────────────────────────────────────────────────</text><text class="terminal-407818350-r5" x="1134.6" y="508" textLength="12.2" clip-path="url(#terminal-407818350-line-20)">┘</text><text class="terminal-407818350-r2" x="1159" y="508" textLength="12.2" clip-path="url(#terminal-407818350-line-20)">│</text><text class="terminal-407818350-r1" x="1464" y="508" textLength="12.2" clip-path="url(#terminal-407818350-line-20)">
</text><text class="terminal-407818350-r2" x="292.8" y="532.4" textLength="12.2" clip-path="url(#terminal-407818350-line-21)">│</text><text class="terminal-407818350-r3" x="317.2" y="532.4" textLength="317.2" clip-path="url(#terminal-407818350-line-21)">Request&#160;timeout&#160;in&#160;seconds</text><text class="terminal-407818350-r2" x="1159" y="532.4" textLength="12.2" clip-path="url(#terminal-407818350-line-21)">│</text><text class="terminal-407818350-r1" x="1464" y="532.4" textLength="12.2" clip-path="url(#terminal-407818350-line-21)">
</text><text class="terminal-407818350-r2" x="292.8" y="556.8" textLength="12.2" clip-path="url(#terminal-407818350-line-22)">│</text><text class="terminal-407818350-r5" x="317.2" y="556.8" textLength="12.2" clip-path="url(#terminal-407818350-line-22)">┌</text><text class="terminal-407818350-r5" x="329.4" y="556.8" textLength="805.2" clip-path="url(#terminal-407818350-line-22)">──────────────────────────────────────────────────────────────────</text><text class="terminal-407818350-r5" x="1134.6" y="556.8" textLength="12.2" clip-path="url(#terminal-407818350-line-22)">┐</text><text class="terminal-407818350-r2" x="1159" y="556.8" textLength="12.2" clip-path="url(#terminal-407818350-line-22)">│</text><text class="terminal-407818350-r1" x="1464" y="556.8" textLength="12.2" clip-path="url(#terminal-407818350-line-22)">
</text><text class="terminal-407818350-r2" x="292.8" y="581.2" textLength="12.2" clip-path="url(#terminal-407818350-line-23)">│</text><text class="terminal-407818350-r5" x="317.2" y="581.2" textLength="12.2" clip-path="url(#terminal-407818350-line-23)">│</text><text class="terminal-407818350-r2" x="341.6" y="581.2" textLength="36.6" clip-path="url(#terminal-407818350-line-23)">120</text><text class="terminal-407818350-r5" x="1134.6" y="581.2" textLength="12.2" clip-path="url(#terminal-407818350-line-23)">│</text><text class="terminal-407818350-r2" x="1159" y="581.2" textLength="12.2" clip-path="url(#terminal-407818350-line-23)">│</text><text class="terminal-407818350-r1" x="1464" y="581.2" textLength="12.2" clip-path="url(#terminal-407818350-line-23)">
</text><text class="terminal-407818350-r2" x="292.8" y="605.6" textLength="12.2" clip-path="url(#terminal-407818350-line-24)">│</text><text class="terminal-407818350-r5" x="317.2" y="605.6" textLength="12.2" clip-path="url(#terminal-407818350-line-24)">└</text><text class="terminal-407818350-r5" x="329.4" y="605.6" textLength="805.2" clip-path="url(#terminal-407818350-line-24)">──────────────────────────────────────────────────────────────────</text><text class="terminal-407818350-r5" x="1134.6" y="605.6" textLength="12.2" clip-path="url(#terminal-407818350-line-24)">┘</text><text class="terminal-407818350-r2" x="1159" y="605.6" textLength="12.2" clip-path="url(#terminal-407818350-line-24)">│</text><text class="terminal-407818350-r1" x="1464" y="605.6" textLength="12.2" clip-path="url(#terminal-407818350-line-24)">
</text><text class="terminal-407818350-r2" x="292.8" y="630" textLength="12.2" clip-path="url(#terminal-407818350-line-25)">│</text><text class="terminal-407818350-r6" x="329.4" y="630" textLength="195.2" clip-path="url(#terminal-407818350-line-25)">&#160;Refresh&#160;models&#160;</text><text class="terminal-407818350-r2" x="1159" y="630" textLength="12.2" clip-path="url(#terminal-407818350-line-25)">│</text><text class="terminal-407818350-r1" x="1464" y="630" textLength="12.2" clip-path="url(#terminal-407818350-line-25)">
</text><text class="terminal-407818350-r2" x="292.8" y="654.4" textLength="12.2" clip-path="url(#terminal-407818350-line-26)">│</text><text class="terminal-407818350-r3" x="317.2" y="654.4" textLength="683.2" clip-path="url(#terminal-407818350-line-26)">Refresh&#160;lists&#160;installed&#160;models;&#160;manual&#160;entry&#160;is&#160;allowed.</text><text class="terminal-407818350-r2" x="1159" y="654.4" textLength="12.2" clip-path="url(#terminal-407818350-line-26)">│</text><text class="terminal-407818350-r1" x="1464" y="654.4" textLength="12.2" clip-path="url(#terminal-407818350-line-26)">
</text><text class="terminal-407818350-r2" x="292.8" y="678.8" textLength="12.2" clip-path="url(#terminal-407818350-line-27)">│</text><text class="terminal-407818350-r3" x="317.2" y="678.8" textLength="780.8" clip-path="url(#terminal-407818350-line-27)">Environment&#160;overrides&#160;after&#160;restart:&#160;YT_SMZR_SUMMARIZATION_MODEL</text><text class="terminal-407818350-r2" x="1159" y="678.8" textLength="12.2" clip-path="url(#terminal-407818350-line-27)">│</text><text class="terminal-407818350-r1" x="1464" y="678.8" textLength="12.2" clip-path="url(#terminal-407818350-line-27)">
</text><text class="terminal-407818350-r2" x="292.8" y="703.2" textLength="12.2" clip-path="url(#terminal-407818350-line-28)">│</text><text class="terminal-407818350-r3" x="317.2" y="703.2" textLength="780.8" clip-path="url(#terminal-407818350-line-28)">Apply&#160;changes&#160;subsequent&#160;runs.&#160;Save&#160;also&#160;writes&#160;~/.yt-smzr.toml.</text><text class="terminal-407818350-r2" x="1159" y="703.2" textLength="12.2" clip-path="url(#terminal-407818350-line-28)">│</text><text class="terminal-407818350-r1" x="1464" y="703.2" textLength="12.2" clip-path="url(#terminal-407818350-line-28)">
</text><text class="terminal-407818350-r2" x="292.8" y="727.6" textLength="12.2" clip-path="url(#terminal-407818350-line-29)">│</text><text class="terminal-407818350-r7" x="329.4" y="727.6" textLength="85.4" clip-path="url(#terminal-407818350-line-29)">&#160;Apply&#160;</text><text class="terminal-407818350-r6" x="475.8" y="727.6" textLength="73.2" clip-path="url(#terminal-407818350-line-29)">&#160;Save&#160;</text><text class="terminal-407818350-r6" x="597.8" y="727.6" textLength="97.6" clip-path="url(#terminal-407818350-line-29)">&#160;Cancel&#160;</text><text class="terminal-407818350-r2" x="1159" y="727.6" textLength="12.2" clip-path="url(#terminal-407818350-line-29)">│</text><text class="terminal-407818350-r1" x="1464" y="727.6" textLength="12.2" clip-path="url(#terminal-407818350-line-29)">
</text><text class="terminal-407818350-r2" x="292.8" y="752" textLength="12.2" clip-path="url(#terminal-407818350-line-30)">└</text><text class="terminal-407818350-r2" x="305" y="752" textLength="854" clip-path="url(#terminal-407818350-line-30)">──────────────────────────────────────────────────────────────────────</text><text class="terminal-407818350-r2" x="1159" y="752" textLength="12.2" clip-path="url(#terminal-407818350-line-30)">┘</text><text class="terminal-407818350-r1" x="1464" y="752" textLength="12.2" clip-path="url(#terminal-407818350-line-30)">
</text><text class="terminal-407818350-r1" x="1464" y="776.4" textLength="12.2" clip-path="url(#terminal-407818350-line-31)">
</text><text class="terminal-407818350-r1" x="1464" y="800.8" textLength="12.2" clip-path="url(#terminal-407818350-line-32)">
</text><text class="terminal-407818350-r1" x="1464" y="825.2" textLength="12.2" clip-path="url(#terminal-407818350-line-33)">
</text><text class="terminal-407818350-r1" x="1464" y="849.6" textLength="12.2" clip-path="url(#terminal-407818350-line-34)">
</text><text class="terminal-407818350-r1" x="1464" y="874" textLength="12.2" clip-path="url(#terminal-407818350-line-35)">
</text><text class="terminal-407818350-r1" x="1464" y="898.4" textLength="12.2" clip-path="url(#terminal-407818350-line-36)">
</text><text class="terminal-407818350-r1" x="1464" y="922.8" textLength="12.2" clip-path="url(#terminal-407818350-line-37)">
</text><text class="terminal-407818350-r1" x="1464" y="947.2" textLength="12.2" clip-path="url(#terminal-407818350-line-38)">
</text>
    </g>
    </g>
</svg>
