<svg class="rich-terminal" viewBox="0 0 1482 1026.0" xmlns="http://www.w3.org/2000/svg">
    <!-- Generated with Rich https://www.textualize.io -->
    <style>

    @font-face {
        font-family: "Fira Code";
        src: local("FiraCode-Regular"),
                url("https://cdnjs.cloudflare.com/ajax/libs/firacode/6.2.0/woff2/FiraCode-Regular.woff2") format("woff2"),
                url("https://cdnjs.cloudflare.com/ajax/libs/firacode/6.2.0/woff/FiraCode-Regular.woff") format("woff");
        font-style: normal;
        font-weight: 400;
    }
    @font-face {
        font-family: "Fira Code";
        src: local("FiraCode-Bold"),
                url("https://cdnjs.cloudflare.com/ajax/libs/firacode/6.2.0/woff2/FiraCode-Bold.woff2") format("woff2"),
                url("https://cdnjs.cloudflare.com/ajax/libs/firacode/6.2.0/woff/FiraCode-Bold.woff") format("woff");
        font-style: bold;
        font-weight: 700;
    }

    .terminal-1671903579-matrix {
        font-family: Fira Code, monospace;
        font-size: 20px;
        line-height: 24.4px;
        font-variant-east-asian: full-width;
    }

    .terminal-1671903579-title {
        font-size: 18px;
        font-weight: bold;
        font-family: arial;
    }

    .terminal-1671903579-r1 { fill: #484848 }
.terminal-1671903579-r2 { fill: #c5c8c6 }
.terminal-1671903579-r3 { fill: #a5a5a5 }
.terminal-1671903579-r4 { fill: #6f6f6f;font-weight: bold }
.terminal-1671903579-r5 { fill: #242424 }
.terminal-1671903579-r6 { fill: #111111 }
.terminal-1671903579-r7 { fill: #a6a6a6 }
.terminal-1671903579-r8 { fill: #e1e1e1 }
.terminal-1671903579-r9 { fill: #757575 }
.terminal-1671903579-r10 { fill: #1e1e1e }
.terminal-1671903579-r11 { fill: #535353;font-weight: bold }
.terminal-1671903579-r12 { fill: #e0e0e0 }
.terminal-1671903579-r13 { fill: #7f7f7f }
.terminal-1671903579-r14 { fill: #e1e1e1;font-weight: bold }
    </style>

    <defs>
    <clipPath id="terminal-1671903579-clip-terminal">
      <rect x="0" y="0" width="1463.0" height="975.0" />
    </clipPath>
    <clipPath id="terminal-1671903579-line-0">
    <rect x="0" y="1.5" width="1464" height="24.65"/>
            </clipPath>
<clipPath id="terminal-1671903579-line-1">
    <rect x="0" y="25.9" width="1464" height="24.65"/>
            </clipPath>
<clipPath id="terminal-1671903579-line-2">
    <rect x="0" y="50.3" width="1464" height="24.65"/>
            </clipPath>
<clipPath id="terminal-1671903579-line-3">
    <rect x="0" y="74.7" width="1464" height="24.65"/>
            </clipPath>
<clipPath id="terminal-1671903579-line-4">
    <rect x="0" y="99.1" width="1464" height="24.65"/>
            </clipPath>
<clipPath id="terminal-1671903579-line-5">
    <rect x="0" y="123.5" width="1464" height="24.65"/>
            </clipPath>
<clipPath id="terminal-1671903579-line-6">
    <rect x="0" y="147.9" width="1464" height="24.65"/>
            </clipPath>
<clipPath id="terminal-1671903579-line-7">
    <rect x="0" y="172.3" width="1464" height="24.65"/>
            </clipPath>
<clipPath id="terminal-1671903579-line-8">
    <rect x="0" y="196.7" width="1464" height="24.65"/>
            </clipPath>
<clipPath id="terminal-1671903579-line-9">
    <rect x="0" y="221.1" width="1464" height="24.65"/>
            </clipPath>
<clipPath id="terminal-1671903579-line-10">
    <rect x="0" y="245.5" width="1464" height="24.65"/>
            </clipPath>
<clipPath id="terminal-1671903579-line-11">
    <rect x="0" y="269.9" width="1464" height="24.65"/>
            </clipPath>
<clipPath id="terminal-1671903579-line-12">
    <rect x="0" y="294.3" width="1464" height="24.65"/>
            </clipPath>
<clipPath id="terminal-1671903579-line-13">
    <rect x="0" y="318.7" width="1464" height="24.65"/>
            </clipPath>
<clipPath id="terminal-1671903579-line-14">
    <rect x="0" y="343.1" width="1464" height="24.65"/>
            </clipPath>
<clipPath id="terminal-1671903579-line-15">
    <rect x="0" y="367.5" width="1464" height="24.65"/>
            </clipPath>
<clipPath id="terminal-1671903579-line-16">
    <rect x="0" y="391.9" width="1464" height="24.65"/>
            </clipPath>
<clipPath id="terminal-1671903579-line-17">
    <rect x="0" y="416.3" width="1464" height="24.65"/>
            </clipPath>
<clipPath id="terminal-1671903579-line-18">
    <rect x="0" y="440.7" width="1464" height="24.65"/>
            </clipPath>
<clipPath id="terminal-1671903579-line-19">
    <rect x="0" y="465.1" width="1464" height="24.65"/>
            </clipPath>
<clipPath id="terminal-1671903579-line-20">
    <rect x="0" y="489.5" width="1464" height="24.65"/>
            </clipPath>
<clipPath id="terminal-1671903579-line-21">
    <rect x="0" y="513.9" width="1464" height="24.65"/>
            </clipPath>
<clipPath id="terminal-1671903579-line-22">
    <rect x="0" y="538.3" width="1464" height="24.65"/>
            </clipPath>
<clipPath id="terminal-1671903579-line-23">
    <rect x="0" y="562.7" width="1464" height="24.65"/>
            </clipPath>
<clipPath id="terminal-1671903579-line-24">
    <rect x="0" y="587.1" width="1464" height="24.65"/>
            </clipPath>
<clipPath id="terminal-1671903579-line-25">
    <rect x="0" y="611.5" width="1464" height="24.65"/>
            </clipPath>
<clipPath id="terminal-1671903579-line-26">
    <rect x="0" y="635.9" width="1464" height="24.65"/>
            </clipPath>
<clipPath id="terminal-1671903579-line-27">
    <rect x="0" y="660.3" width="1464" height="24.65"/>
            </clipPath>
<clipPath id="terminal-1671903579-line-28">
    <rect x="0" y="684.7" width="1464" height="24.65"/>
            </clipPath>
<clipPath id="terminal-1671903579-line-29">
    <rect x="0" y="709.1" width="1464" height="24.65"/>
            </clipPath>
<clipPath id="terminal-1671903579-line-30">
    <rect x="0" y="733.5" width="1464" height="24.65"/>
            </clipPath>
<clipPath id="terminal-1671903579-line-31">
    <rect x="0" y="757.9" width="1464" height="24.65"/>
            </clipPath>
<clipPath id="terminal-1671903579-line-32">
    <rect x="0" y="782.3" width="1464" height="24.65"/>
            </clipPath>
<clipPath id="terminal-1671903579-line-33">
    <rect x="0" y="806.7" width="1464" height="24.65"/>
            </clipPath>
<clipPath id="terminal-1671903579-line-34">
    <rect x="0" y="831.1" width="1464" height="24.65"/>
            </clipPath>
<clipPath id="terminal-1671903579-line-35">
    <rect x="0" y="855.5" width="1464" height="24.65"/>
            </clipPath>
<clipPath id="terminal-1671903579-line-36">
    <rect x="0" y="879.9" width="1464" height="24.65"/>
            </clipPath>
<clipPath id="terminal-1671903579-line-37">
    <rect x="0" y="904.3" width="1464" height="24.65"/>
            </clipPath>
<clipPath id="terminal-1671903579-line-38">
    <rect x="0" y="928.7" width="1464" height="24.65"/>
            </clipPath>
    </defs>

    <rect fill="#292929" stroke="rgba(255,255,255,0.35)" stroke-width="1" x="1" y="1" width="1480" height="1024" rx="8"/><text class="terminal-1671903579-title" fill="#c5c8c6" text-anchor="middle" x="740" y="27">yt-smzr</text>
            <g transform="translate(26,22)">
            <circle cx="0" cy="0" r="7" fill="#ff5f57"/>
            <circle cx="22" cy="0" r="7" fill="#febc2e"/>
            <circle cx="44" cy="0" r="7" fill="#28c840"/>
            </g>
        
    <g transform="translate(9, 41)" clip-path="url(#terminal-1671903579-clip-terminal)">
    <rect fill="#1e1e1e" x="0" y="1.5" width="12.2" height="24.65" shape-rendering="crispEdges"/><rect fill="#1e1e1e" x="12.2" y="1.5" width="1085.8" height="24.65" shape-rendering="crispEdges"/><rect fill="#1e1e1e" x="1098" y="1.5" width="12.2" height="24.65" shape-rendering="crispEdges"/><rect fill="#1e1e1e" x="1110.2" y="1.5" width="353.8" height="24.65" shape-rendering="crispEdges"/><rect fill="#1e1e1e" x="0" y="25.9" width="12.2" height="24.65" shape-rendering="crispEdges"/><rect fill="#1e1e1e" x="12.2" y="25.9" width="12.2" height="24.65" shape-rendering="crispEdges"/><rect fill="#1e1e1e" x="24.4" y="25.9" width="341.6" height="24.65" shape-rendering="crispEdges"/><rect fill="#1e1e1e" x="366" y="25.9" width="719.8" height="24.65" shape-rendering="crispEdges"/><rect fill="#1e1e1e" x="1085.8" y="25.9" width="12.2" height="24.65" shape-rendering="crispEdges"/><rect fill="#1e1e1e" x="1098" y="25.9" width="12.2" height="24.65" shape-rendering="crispEdges"/><rect fill="#1e1e1e" x="1110.2" y="25.9" width="12.2" height="24.65" shape-rendering="crispEdges"/><rect fill="#1e1e1e" x="1122.4" y="25.9" width="85.4" height="24.65" shape-rendering="crispEdges"/><rect fill="#1e1e1e" x="1207.8" y="25.9" width="12.2" height="24.65" shape-rendering="crispEdges"/><rect fill="#1e1e1e" x="1220" y="25.9" width="12.2" height="24.65" shape-rendering="crispEdges"/><rect fill="#242424" x="1232.2" y="25.9" width="12.2" height="24.65" shape-rendering="crispEdges"/><rect fill="#1e1e1e" x="1244.4" y="25.9" width="12.2" height="24.65" shape-rendering="crispEdges"/><rect fill="#1e1e1e" x="1256.6" y="25.9" width="183" height="24.65" shape-rendering="crispEdges"/><rect fill="#1e1e1e" x="1439.6" y="25.9" width="24.4" height="24.65" shape-rendering="crispEdges"/><rect fill="#1e1e1e" x="0" y="50.3" width="12.2" height="24.65" shape-rendering="crispEdges"/><rect fill="#1e1e1e" x="12.2" y="50.3" width="1085.8" height="24.65" shape-rendering="crispEdges"/><rect fill="#1e1e1e" x="1098" y="50.3" width="12.2" height="24.65" shape-rendering="crispEdges"/><rect fill="#1e1e1e" x="1110.2" y="50.3" width="353.8" height="24.65" shape-rendering="crispEdges"/><rect fill="#1e1e1e" x="0" y="74.7" width="12.2" height="24.65" shape-rendering="crispEdges"/><rect fill="#1e1e1e" x="12.2" y="74.7" width="256.2" height="24.65" shape-rendering="crispEdges"/><rect fill="#1e1e1e" x="268.4" y="74.7" width="1183.4" height="24.65" shape-rendering="crispEdges"/><rect fill="#1e1e1e" x="1451.8" y="74.7" width="12.2" height="24.65" shape-rendering="crispEdges"/><rect fill="#1e1e1e" x="0" y="99.1" width="12.2" height="24.65" shape-rendering="crispEdges"/><rect fill="#1e1e1e" x="12.2" y="99.1" width="427" height="24.65" shape-rendering="crispEdges"/><rect fill="#1e1e1e" x="439.2" y="99.1" width="1012.6" height="24.65" shape-rendering="crispEdges"/><rect fill="#1e1e1e" x="1451.8" y="99.1" width="12.2" height="24.65" shape-rendering="crispEdges"/><rect fill="#1e1e1e" x="0" y="123.5" width="12.2" height="24.65" shape-rendering="crispEdges"/><rect fill="#1e1e1e" x="12.2" y="123.5" width="1439.6" height="24.65" shape-rendering="crispEdges"/><rect fill="#1e1e1e" x="1451.8" y="123.5" width="12.2" height="24.65" shape-rendering="crispEdges"/><rect fill="#1e1e1e" x="0" y="147.9" width="12.2" height="24.65" shape-rendering="crispEdges"/><rect fill="#1e1e1e" x="12.2" y="147.9" width="12.2" height="24.65" shape-rendering="crispEdges"/><rect fill="#1e1e1e" x="24.4" y="147.9" width="85.4" height="24.65" shape-rendering="crispEdges"/><rect fill="#1e1e1e" x="109.8" y="147.9" width="1342" height="24.65" shape-rendering="crispEdges"/><rect fill="#1e1e1e" x="1451.8" y="147.9" width="12.2" height="24.65" shape-rendering="crispEdges"/><rect fill="#1e1e1e" x="0" y="172.3" width="12.2" height="24.65" shape-rendering="crispEdges"/><rect fill="#1e1e1e" x="12.2" y="172.3" width="1390.8" height="24.65" shape-rendering="crispEdges"/><rect fill="#1e1e1e" x="1403" y="172.3" width="24.4" height="24.65" shape-rendering="crispEdges"/><rect fill="#282828" x="1427.4" y="172.3" width="24.4" height="24.65" shape-rendering="crispEdges"/><rect fill="#1e1e1e" x="1451.8" y="172.3" width="12.2" height="24.65" shape-rendering="crispEdges"/><rect fill="#1e1e1e" x="0" y="196.7" width="12.2" height="24.65" shape-rendering="crispEdges"/><rect fill="#1e1e1e" x="12.2" y="196.7" width="536.8" height="24.65" shape-rendering="crispEdges"/><rect fill="#1e1e1e" x="549" y="196.7" width="878.4" height="24.65" shape-rendering="crispEdges"/><rect fill="#000000" x="1427.4" y="196.7" width="24.4" height="24.65" shape-rendering="crispEdges"/><rect fill="#1e1e1e" x="1451.8" y="196.7" width="12.2" height="24.65" shape-rendering="crispEdges"/><rect fill="#1e1e1e" x="0" y="221.1" width="12.2" height="24.65" shape-rendering="crispEdges"/><rect fill="#1e1e1e" x="12.2" y="221.1" width="1439.6" height="24.65" shape-rendering="crispEdges"/><rect fill="#1e1e1e" x="1451.8" y="221.1" width="12.2" height="24.65" shape-rendering="crispEdges"/><rect fill="#1b1b1b" x="0" y="245.5" width="12.2" height="24.65" shape-rendering="crispEdges"/><rect fill="#1b1b1b" x="12.2" y="245.5" width="85.4" height="24.65" shape-rendering="crispEdges"/><rect fill="#1b1b1b" x="97.6" y="245.5" width="109.8" height="24.65" shape-rendering="crispEdges"/><rect fill="#1b1b1b" x="207.4" y="245.5" width="85.4" height="24.65" shape-rendering="crispEdges"/><rect fill="#1b1b1b" x="292.8" y="245.5" width="12.2" height="24.65" shape-rendering="crispEdges"/><rect fill="#1e1e1e" x="305" y="245.5" width="12.2" height="24.65" shape-rendering="crispEdges"/><rect fill="#1e1e1e" x="317.2" y="245.5" width="12.2" height="24.65" shape-rendering="crispEdges"/><rect fill="#1e1e1e" x="329.4" y="245.5" width="97.6" height="24.65" shape-rendering="crispEdges"/><rect fill="#1e1e1e" x="427" y="245.5" width="12.2" height="24.65" shape-rendering="crispEdges"/><rect fill="#1e1e1e" x="439.2" y="245.5" width="12.2" height="24.65" shape-rendering="crispEdges"/><rect fill="#1e1e1e" x="451.4" y="245.5" width="1012.6" height="24.65" shape-rendering="crispEdges"/><rect fill="#1e1e1e" x="0" y="269.9" width="12.2" height="24.65" shape-rendering="crispEdges"/><rect fill="#1e1e1e" x="12.2" y="269.9" width="12.2" height="24.65" shape-rendering="crispEdges"/><rect fill="#1e1e1e" x="24.4" y="269.9" width="97.6" height="24.65" shape-rendering="crispEdges"/><rect fill="#1e1e1e" x="122" y="269.9" width="1329.8" height="24.65" shape-rendering="crispEdges"/><rect fill="#1e1e1e" x="1451.8" y="269.9" width="12.2" height="24.65" shape-rendering="crispEdges"/><rect fill="#1e1e1e" x="0" y="294.3" width="12.2" height="24.65" shape-rendering="crispEdges"/><rect fill="#1e1e1e" x="12.2" y="294.3" width="427" height="24.65" shape-rendering="crispEdges"/><rect fill="#1e1e1e" x="439.2" y="294.3" width="988.2" height="24.65" shape-rendering="crispEdges"/><rect fill="#282828" x="1427.4" y="294.3" width="24.4" height="24.65" shape-rendering="crispEdges"/><rect fill="#1e1e1e" x="1451.8" y="294.3" width="12.2" height="24.65" shape-rendering="crispEdges"/><rect fill="#1e1e1e" x="0" y="318.7" width="12.2" height="24.65" shape-rendering="crispEdges"/><rect fill="#1e1e1e" x="12.2" y="318.7" width="1439.6" height="24.65" shape-rendering="crispEdges"/><rect fill="#1e1e1e" x="1451.8" y="318.7" width="12.2" height="24.65" shape-rendering="crispEdges"/><rect fill="#1e1e1e" x="0" y="343.1" width="12.2" height="24.65" shape-rendering="crispEdges"/><rect fill="#1e1e1e" x="12.2" y="343.1" width="85.4" height="24.65" shape-rendering="crispEdges"/><rect fill="#1e1e1e" x="97.6" y="343.1" width="12.2" height="24.65" shape-rendering="crispEdges"/><rect fill="#1e1e1e" x="109.8" y="343.1" width="12.2" height="24.65" shape-rendering="crispEdges"/><rect fill="#1e1e1e" x="122" y="343.1" width="122" height="24.65" shape-rendering="crispEdges"/><rect fill="#1e1e1e" x="244" y="343.1" width="12.2" height="24.65" shape-rendering="crispEdges"/><rect fill="#1e1e1e" x="256.2" y="343.1" width="12.2" height="24.65" shape-rendering="crispEdges"/><rect fill="#1e1e1e" x="268.4" y="343.1" width="146.4" height="24.65" shape-rendering="crispEdges"/><rect fill="#1e1e1e" x="414.8" y="343.1" width="12.2" height="24.65" shape-rendering="crispEdges"/><rect fill="#1e1e1e" x="427" y="343.1" width="1037" height="24.65" shape-rendering="crispEdges"/><rect fill="#1e1e1e" x="0" y="367.5" width="12.2" height="24.65" shape-rendering="crispEdges"/><rect fill="#1e1e1e" x="12.2" y="367.5" width="12.2" height="24.65" shape-rendering="crispEdges"/><rect fill="#1e1e1e" x="24.4" y="367.5" width="97.6" height="24.65" shape-rendering="crispEdges"/><rect fill="#1e1e1e" x="122" y="367.5" width="1329.8" height="24.65" shape-rendering="crispEdges"/><rect fill="#1e1e1e" x="1451.8" y="367.5" width="12.2" height="24.65" shape-rendering="crispEdges"/><rect fill="#1e1e1e" x="0" y="391.9" width="12.2" height="24.65" shape-rendering="crispEdges"/><rect fill="#1e1e1e" x="12.2" y="391.9" width="12.2" height="24.65" shape-rendering="crispEdges"/><rect fill="#1e1e1e" x="24.4" y="391.9" width="183" height="24.65" shape-rendering="crispEdges"/><rect fill="#1e1e1e" x="207.4" y="391.9" width="1232.2" height="24.65" shape-rendering="crispEdges"/><rect fill="#1e1e1e" x="1439.6" y="391.9" width="12.2" height="24.65" shape-rendering="crispEdges"/><rect fill="#1e1e1e" x="1451.8" y="391.9" width="12.2" height="24.65" shape-rendering="crispEdges"/><rect fill="#1e1e1e" x="0" y="416.3" width="12.2" height="24.65" shape-rendering="crispEdges"/><rect fill="#1e1e1e" x="12.2" y="416.3" width="1439.6" height="24.65" shape-rendering="crispEdges"/><rect fill="#1e1e1e" x="1451.8" y="416.3" width="12.2" height="24.65" shape-rendering="crispEdges"/><rect fill="#1e1e1e" x="0" y="440.7" width="12.2" height="24.65" shape-rendering="crispEdges"/><rect fill="#1e1e1e" x="12.2" y="440.7" width="1439.6" height="24.65" shape-rendering="crispEdges"/><rect fill="#1e1e1e" x="1451.8" y="440.7" width="12.2" height="24.65" shape-rendering="crispEdges"/><rect fill="#1e1e1e" x="0" y="465.1" width="12.2" height="24.65" shape-rendering="crispEdges"/><rect fill="#1e1e1e" x="12.2" y="465.1" width="1439.6" height="24.65" shape-rendering="crispEdges"/><rect fill="#1e1e1e" x="1451.8" y="465.1" width="12.2" height="24.65" shape-rendering="crispEdges"/><rect fill="#1e1e1e" x="0" y="489.5" width="12.2" height="24.65" shape-rendering="crispEdges"/><rect fill="#1e1e1e" x="12.2" y="489.5" width="1439.6" height="24.65" shape-rendering="crispEdges"/><rect fill="#1e1e1e" x="1451.8" y="489.5" width="12.2" height="24.65" shape-rendering="crispEdges"/><rect fill="#1e1e1e" x="0" y="513.9" width="12.2" height="24.65" shape-rendering="crispEdges"/><rect fill="#1e1e1e" x="12.2" y="513.9" width="1439.6" height="24.65" shape-rendering="crispEdges"/><rect fill="#1e1e1e" x="1451.8" y="513.9" width="12.2" height="24.65" shape-rendering="crispEdges"/><rect fill="#1e1e1e" x="0" y="538.3" width="12.2" height="24.65" shape-rendering="crispEdges"/><rect fill="#1e1e1e" x="12.2" y="538.3" width="1439.6" height="24.65" shape-rendering="crispEdges"/><rect fill="#1e1e1e" x="1451.8" y="538.3" width="12.2" height="24.65" shape-rendering="crispEdges"/><rect fill="#1e1e1e" x="0" y="562.7" width="12.2" height="24.65" shape-rendering="crispEdges"/><rect fill="#1e1e1e" x="12.2" y="562.7" width="1439.6" height="24.65" shape-rendering="crispEdges"/><rect fill="#1e1e1e" x="1451.8" y="562.7" width="12.2" height="24.65" shape-rendering="crispEdges"/><rect fill="#1e1e1e" x="0" y="587.1" width="12.2" height="24.65" shape-rendering="crispEdges"/><rect fill="#1e1e1e" x="12.2" y="587.1" width="1439.6" height="24.65" shape-rendering="crispEdges"/><rect fill="#1e1e1e" x="1451.8" y="587.1" width="12.2" height="24.65" shape-rendering="crispEdges"/><rect fill="#1e1e1e" x="0" y="611.5" width="12.2" height="24.65" shape-rendering="crispEdges"/><rect fill="#1e1e1e" x="12.2" y="611.5" width="1439.6" height="24.65" shape-rendering="crispEdges"/><rect fill="#1e1e1e" x="1451.8" y="611.5" width="12.2" height="24.65" shape-rendering="crispEdges"/><rect fill="#1e1e1e" x="0" y="635.9" width="12.2" height="24.65" shape-rendering="crispEdges"/><rect fill="#1e1e1e" x="12.2" y="635.9" width="1439.6" height="24.65" shape-rendering="crispEdges"/><rect fill="#1e1e1e" x="1451.8" y="635.9" width="12.2" height="24.65" shape-rendering="crispEdges"/><rect fill="#1e1e1e" x="0" y="660.3" width="12.2" height="24.65" shape-rendering="crispEdges"/><rect fill="#1e1e1e" x="12.2" y="660.3" width="1439.6" height="24.65" shape-rendering="crispEdges"/><rect fill="#1e1e1e" x="1451.8" y="660.3" width="12.2" height="24.65" shape-rendering="crispEdges"/><rect fill="#1e1e1e" x="0" y="684.7" width="12.2" height="24.65" shape-rendering="crispEdges"/><rect fill="#1e1e1e" x="12.2" y="684.7" width="1439.6" height="24.65" shape-rendering="crispEdges"/><rect fill="#1e1e1e" x="1451.8" y="684.7" width="12.2" height="24.65" shape-rendering="crispEdges"/><rect fill="#1e1e1e" x="0" y="709.1" width="12.2" height="24.65" shape-rendering="crispEdges"/><rect fill="#1e1e1e" x="12.2" y="709.1" width="1439.6" height="24.65" shape-rendering="crispEdges"/><rect fill="#1e1e1e" x="1451.8" y="709.1" width="12.2" height="24.65" shape-rendering="crispEdges"/><rect fill="#1e1e1e" x="0" y="733.5" width="12.2" height="24.65" shape-rendering="crispEdges"/><rect fill="#1e1e1e" x="12.2" y="733.5" width="1439.6" height="24.65" shape-rendering="crispEdges"/><rect fill="#1e1e1e" x="1451.8" y="733.5" width="12.2" height="24.65" shape-rendering="crispEdges"/><rect fill="#1e1e1e" x="0" y="757.9" width="12.2" height="24.65" shape-rendering="crispEdges"/><rect fill="#1e1e1e" x="12.2" y="757.9" width="1439.6" height="24.65" shape-rendering="crispEdges"/><rect fill="#1e1e1e" x="1451.8" y="757.9" width="12.2" height="24.65" shape-rendering="crispEdges"/><rect fill="#1e1e1e" x="0" y="782.3" width="12.2" height="24.65" shape-rendering="crispEdges"/><rect fill="#1e1e1e" x="12.2" y="782.3" width="1439.6" height="24.65" shape-rendering="crispEdges"/><rect fill="#1e1e1e" x="1451.8" y="782.3" width="12.2" height="24.65" shape-rendering="crispEdges"/><rect fill="#1e1e1e" x="0" y="806.7" width="12.2" height="24.65" shape-rendering="crispEdges"/><rect fill="#1e1e1e" x="12.2" y="806.7" width="1439.6" height="24.65" shape-rendering="crispEdges"/><rect fill="#1e1e1e" x="1451.8" y="806.7" width="12.2" height="24.65" shape-rendering="crispEdges"/><rect fill="#1e1e1e" x="0" y="831.1" width="12.2" height="24.65" shape-rendering="crispEdges"/><rect fill="#1e1e1e" x="12.2" y="831.1" width="1439.6" height="24.65" shape-rendering="crispEdges"/><rect fill="#1e1e1e" x="1451.8" y="831.1" width="12.2" height="24.65" shape-rendering="crispEdges"/><rect fill="#1e1e1e" x="0" y="855.5" width="12.2" height="24.65" shape-rendering="crispEdges"/><rect fill="#1e1e1e" x="12.2" y="855.5" width="1439.6" height="24.65" shape-rendering="crispEdges"/><rect fill="#1e1e1e" x="1451.8" y="855.5" width="12.2" height="24.65" shape-rendering="crispEdges"/><rect fill="#1e1e1e" x="0" y="879.9" width="12.2" height="24.65" shape-rendering="crispEdges"/><rect fill="#1e1e1e" x="12.2" y="879.9" width="1439.6" height="24.65" shape-rendering="crispEdges"/><rect fill="#1e1e1e" x="1451.8" y="879.9" width="12.2" height="24.65" shape-rendering="crispEdges"/><rect fill="#1e1e1e" x="0" y="904.3" width="12.2" height="24.65" shape-rendering="crispEdges"/><rect fill="#1e1e1e" x="12.2" y="904.3" width="1439.6" height="24.65" shape-rendering="crispEdges"/><rect fill="#1e1e1e" x="1451.8" y="904.3" width="12.2" height="24.65" shape-rendering="crispEdges"/><rect fill="#1e1e1e" x="0" y="928.7" width="12.2" height="24.65" shape-rendering="crispEdges"/><rect fill="#1e1e1e" x="12.2" y="928.7" width="1439.6" height="24.65" shape-rendering="crispEdges"/><rect fill="#1e1e1e" x="1451.8" y="928.7" width="12.2" height="24.65" shape-rendering="crispEdges"/><rect fill="#1e1e1e" x="0" y="953.1" width="12.2" height="24.65" shape-rendering="crispEdges"/><rect fill="#1e1e1e" x="12.2" y="953.1" width="646.6" height="24.65" shape-rendering="crispEdges"/><rect fill="#1e1e1e" x="658.8" y="953.1" width="793" height="24.65" shape-rendering="crispEdges"/><rect fill="#1e1e1e" x="1451.8" y="953.1" width="12.2" height="24.65" shape-rendering="crispEdges"/>
    <g class="terminal-1671903579-matrix">
    <text class="terminal-1671903579-r1" x="0" y="20" textLength="12.2" clip-path="url(#terminal-1671903579-line-0)">┌</text><text class="terminal-1671903579-r1" x="12.2" y="20" textLength="1085.8" clip-path="url(#terminal-1671903579-line-0)">─────────────────────────────────────────────────────────────────────────────────────────</text><text class="terminal-1671903579-r1" x="1098" y="20" textLength="12.2" clip-path="url(#terminal-1671903579-line-0)">┐</text><text class="terminal-1671903579-r2" x="1464" y="20" textLength="12.2" clip-path="url(#terminal-1671903579-line-0)">
</text><text class="terminal-1671903579-r1" x="0" y="44.4" textLength="12.2" clip-path="url(#terminal-1671903579-line-1)">│</text><text class="terminal-1671903579-r3" x="24.4" y="44.4" textLength="341.6" clip-path="url(#terminal-1671903579-line-1)">https://youtu.be/dQw4w9WgXcQ</text><text class="terminal-1671903579-r1" x="1098" y="44.4" textLength="12.2" clip-path="url(#terminal-1671903579-line-1)">│</text><text class="terminal-1671903579-r4" x="1122.4" y="44.4" textLength="85.4" clip-path="url(#terminal-1671903579-line-1)">&#160;Fetch&#160;</text><text class="terminal-1671903579-r5" x="1220" y="44.4" textLength="12.2" clip-path="url(#terminal-1671903579-line-1)">▐</text><text class="terminal-1671903579-r6" x="1232.2" y="44.4" textLength="12.2" clip-path="url(#terminal-1671903579-line-1)">X</text><text class="terminal-1671903579-r5" x="1244.4" y="44.4" textLength="12.2" clip-path="url(#terminal-1671903579-line-1)">▌</text><text class="terminal-1671903579-r7" x="1256.6" y="44.4" textLength="183" clip-path="url(#terminal-1671903579-line-1)">&#160;Force&#160;refresh&#160;</text><text class="terminal-1671903579-r2" x="1464" y="44.4" textLength="12.2" clip-path="url(#terminal-1671903579-line-1)">
</text><text class="terminal-1671903579-r1" x="0" y="68.8" textLength="12.2" clip-path="url(#terminal-1671903579-line-2)">└</text><text class="terminal-1671903579-r1" x="12.2" y="68.8" textLength="1085.8" clip-path="url(#terminal-1671903579-line-2)">─────────────────────────────────────────────────────────────────────────────────────────</text><text class="terminal-1671903579-r1" x="1098" y="68.8" textLength="12.2" clip-path="url(#terminal-1671903579-line-2)">┘</text><text class="terminal-1671903579-r2" x="1464" y="68.8" textLength="12.2" clip-path="url(#terminal-1671903579-line-2)">
</text><text class="terminal-1671903579-r8" x="12.2" y="93.2" textLength="256.2" clip-path="url(#terminal-1671903579-line-3)">openai&#160;/&#160;gpt-4.1-mini</text><text class="terminal-1671903579-r2" x="1464" y="93.2" textLength="12.2" clip-path="url(#terminal-1671903579-line-3)">
</text><text class="terminal-1671903579-r8" x="12.2" y="117.6" textLength="427" clip-path="url(#terminal-1671903579-line-4)">transcription:&#160;Transcribing&#160;speech.</text><text class="terminal-1671903579-r2" x="1464" y="117.6" textLength="12.2" clip-path="url(#terminal-1671903579-line-4)">
</text><text class="terminal-1671903579-r2" x="1464" y="142" textLength="12.2" clip-path="url(#terminal-1671903579-line-5)">
</text><text class="terminal-1671903579-r9" x="0" y="166.4" textLength="12.2" clip-path="url(#terminal-1671903579-line-6)">┌</text><text class="terminal-1671903579-r9" x="12.2" y="166.4" textLength="12.2" clip-path="url(#terminal-1671903579-line-6)">─</text><text class="terminal-1671903579-r9" x="24.4" y="166.4" textLength="85.4" clip-path="url(#terminal-1671903579-line-6)">&#160;Video&#160;</text><text class="terminal-1671903579-r9" x="109.8" y="166.4" textLength="1342" clip-path="url(#terminal-1671903579-line-6)">──────────────────────────────────────────────────────────────────────────────────────────────────────────────</text><text class="terminal-1671903579-r9" x="1451.8" y="166.4" textLength="12.2" clip-path="url(#terminal-1671903579-line-6)">┐</text><text class="terminal-1671903579-r2" x="1464" y="166.4" textLength="12.2" clip-path="url(#terminal-1671903579-line-6)">
</text><text class="terminal-1671903579-r9" x="0" y="190.8" textLength="12.2" clip-path="url(#terminal-1671903579-line-7)">│</text><text class="terminal-1671903579-r8" x="12.2" y="190.8" textLength="1390.8" clip-path="url(#terminal-1671903579-line-7)">Title:&#160;A&#160;long&#160;video&#160;title&#160;about&#160;useful&#160;notes&#160;A&#160;long&#160;video&#160;title&#160;about&#160;useful&#160;notes&#160;A&#160;long&#160;video&#160;title&#160;about&#160;useful</text><text class="terminal-1671903579-r9" x="1451.8" y="190.8" textLength="12.2" clip-path="url(#terminal-1671903579-line-7)">│</text><text class="terminal-1671903579-r2" x="1464" y="190.8" textLength="12.2" clip-path="url(#terminal-1671903579-line-7)">
</text><text class="terminal-1671903579-r9" x="0" y="215.2" textLength="12.2" clip-path="url(#terminal-1671903579-line-8)">│</text><text class="terminal-1671903579-r8" x="12.2" y="215.2" textLength="536.8" clip-path="url(#terminal-1671903579-line-8)">notes&#160;A&#160;long&#160;video&#160;title&#160;about&#160;useful&#160;notes&#160;</text><text class="terminal-1671903579-r9" x="1451.8" y="215.2" textLength="12.2" clip-path="url(#terminal-1671903579-line-8)">│</text><text class="terminal-1671903579-r2" x="1464" y="215.2" textLength="12.2" clip-path="url(#terminal-1671903579-line-8)">
</text><text class="terminal-1671903579-r9" x="0" y="239.6" textLength="12.2" clip-path="url(#terminal-1671903579-line-9)">└</text><text class="terminal-1671903579-r9" x="12.2" y="239.6" textLength="1439.6" clip-path="url(#terminal-1671903579-line-9)">──────────────────────────────────────────────────────────────────────────────────────────────────────────────────────</text><text class="terminal-1671903579-r9" x="1451.8" y="239.6" textLength="12.2" clip-path="url(#terminal-1671903579-line-9)">┘</text><text class="terminal-1671903579-r2" x="1464" y="239.6" textLength="12.2" clip-path="url(#terminal-1671903579-line-9)">
</text><text class="terminal-1671903579-r11" x="97.6" y="264" textLength="109.8" clip-path="url(#terminal-1671903579-line-10)">&#160;Process&#160;</text><text class="terminal-1671903579-r4" x="329.4" y="264" textLength="97.6" clip-path="url(#terminal-1671903579-line-10)">&#160;Cancel&#160;</text><text class="terminal-1671903579-r2" x="1464" y="264" textLength="12.2" clip-path="url(#terminal-1671903579-line-10)">
</text><text class="terminal-1671903579-r9" x="0" y="288.4" textLength="12.2" clip-path="url(#terminal-1671903579-line-11)">┌</text><text class="terminal-1671903579-r9" x="12.2" y="288.4" textLength="12.2" clip-path="url(#terminal-1671903579-line-11)">─</text><text class="terminal-1671903579-r9" x="24.4" y="288.4" textLength="97.6" clip-path="url(#terminal-1671903579-line-11)">&#160;Events&#160;</text><text class="terminal-1671903579-r9" x="122" y="288.4" textLength="1329.8" clip-path="url(#terminal-1671903579-line-11)">─────────────────────────────────────────────────────────────────────────────────────────────────────────────</text><text class="terminal-1671903579-r9" x="1451.8" y="288.4" textLength="12.2" clip-path="url(#terminal-1671903579-line-11)">┐</text><text class="terminal-1671903579-r2" x="1464" y="288.4" textLength="12.2" clip-path="url(#terminal-1671903579-line-11)">
</text><text class="terminal-1671903579-r9" x="0" y="312.8" textLength="12.2" clip-path="url(#terminal-1671903579-line-12)">│</text><text class="terminal-1671903579-r12" x="12.2" y="312.8" textLength="427" clip-path="url(#terminal-1671903579-line-12)">transcription:&#160;Transcribing&#160;speech.</text><text class="terminal-1671903579-r9" x="1451.8" y="312.8" textLength="12.2" clip-path="url(#terminal-1671903579-line-12)">│</text><text class="terminal-1671903579-r2" x="1464" y="312.8" textLength="12.2" clip-path="url(#terminal-1671903579-line-12)">
</text><text class="terminal-1671903579-r9" x="0" y="337.2" textLength="12.2" clip-path="url(#terminal-1671903579-line-13)">└</text><text class="terminal-1671903579-r9" x="12.2" y="337.2" textLength="1439.6" clip-path="url(#terminal-1671903579-line-13)">──────────────────────────────────────────────────────────────────────────────────────────────────────────────────────</text><text class="terminal-1671903579-r9" x="1451.8" y="337.2" textLength="12.2" clip-path="url(#terminal-1671903579-line-13)">┘</text><text class="terminal-1671903579-r2" x="1464" y="337.2" textLength="12.2" clip-path="url(#terminal-1671903579-line-13)">
</text><text class="terminal-1671903579-r12" x="12.2" y="361.6" textLength="85.4" clip-path="url(#terminal-1671903579-line-14)">Summary</text><text class="terminal-1671903579-r13" x="122" y="361.6" textLength="122" clip-path="url(#terminal-1671903579-line-14)">Transcript</text><text class="terminal-1671903579-r13" x="268.4" y="361.6" textLength="146.4" clip-path="url(#terminal-1671903579-line-14)">Output&#160;paths</text><text class="terminal-1671903579-r2" x="1464" y="361.6" textLength="12.2" clip-path="url(#terminal-1671903579-line-14)">
</text><text class="terminal-1671903579-r9" x="0" y="386" textLength="12.2" clip-path="url(#terminal-1671903579-line-15)">┌</text><text class="terminal-1671903579-r9" x="12.2" y="386" textLength="12.2" clip-path="url(#terminal-1671903579-line-15)">─</text><text class="terminal-1671903579-r9" x="24.4" y="386" textLength="97.6" clip-path="url(#terminal-1671903579-line-15)">&#160;Result&#160;</text><text class="terminal-1671903579-r9" x="122" y="386" textLength="1329.8" clip-path="url(#terminal-1671903579-line-15)">─────────────────────────────────────────────────────────────────────────────────────────────────────────────</text><text class="terminal-1671903579-r9" x="1451.8" y="386" textLength="12.2" clip-path="url(#terminal-1671903579-line-15)">┐</text><text class="terminal-1671903579-r2" x="1464" y="386" textLength="12.2" clip-path="url(#terminal-1671903579-line-15)">
</text><text class="terminal-1671903579-r9" x="0" y="410.4" textLength="12.2" clip-path="url(#terminal-1671903579-line-16)">│</text><text class="terminal-1671903579-r8" x="24.4" y="410.4" textLength="183" clip-path="url(#terminal-1671903579-line-16)">No&#160;summary&#160;yet.</text><text class="terminal-1671903579-r9" x="1451.8" y="410.4" textLength="12.2" clip-path="url(#terminal-1671903579-line-16)">│</text><text class="terminal-1671903579-r2" x="1464" y="410.4" textLength="12.2" clip-path="url(#terminal-1671903579-line-16)">
</text><text class="terminal-1671903579-r9" x="0" y="434.8" textLength="12.2" clip-path="url(#terminal-1671903579-line-17)">│</text><text class="terminal-1671903579-r9" x="1451.8" y="434.8" textLength="12.2" clip-path="url(#terminal-1671903579-line-17)">│</text><text class="terminal-1671903579-r2" x="1464" y="434.8" textLength="12.2" clip-path="url(#terminal-1671903579-line-17)">
</text><text class="terminal-1671903579-r9" x="0" y="459.2" textLength="12.2" clip-path="url(#terminal-1671903579-line-18)">│</text><text class="terminal-1671903579-r9" x="1451.8" y="459.2" textLength="12.2" clip-path="url(#terminal-1671903579-line-18)">│</text><text class="terminal-1671903579-r2" x="1464" y="459.2" textLength="12.2" clip-path="url(#terminal-1671903579-line-18)">
</text><text class="terminal-1671903579-r9" x="0" y="483.6" textLength="12.2" clip-path="url(#terminal-1671903579-line-19)">│</text><text class="terminal-1671903579-r9" x="1451.8" y="483.6" textLength="12.2" clip-path="url(#terminal-1671903579-line-19)">│</text><text class="terminal-1671903579-r2" x="1464" y="483.6" textLength="12.2" clip-path="url(#terminal-1671903579-line-19)">
</text><text class="terminal-1671903579-r9" x="0" y="508" textLength="12.2" clip-path="url(#terminal-1671903579-line-20)">│</text><text class="terminal-1671903579-r9" x="1451.8" y="508" textLength="12.2" clip-path="url(#terminal-1671903579-line-20)">│</text><text class="terminal-1671903579-r2" x="1464" y="508" textLength="12.2" clip-path="url(#terminal-1671903579-line-20)">
</text><text class="terminal-1671903579-r9" x="0" y="532.4" textLength="12.2" clip-path="url(#terminal-1671903579-line-21)">│</text><text class="terminal-1671903579-r9" x="1451.8" y="532.4" textLength="12.2" clip-path="url(#terminal-1671903579-line-21)">│</text><text class="terminal-1671903579-r2" x="1464" y="532.4" textLength="12.2" clip-path="url(#terminal-1671903579-line-21)">
</text><text class="terminal-1671903579-r9" x="0" y="556.8" textLength="12.2" clip-path="url(#terminal-1671903579-line-22)">│</text><text class="terminal-1671903579-r9" x="1451.8" y="556.8" textLength="12.2" clip-path="url(#terminal-1671903579-line-22)">│</text><text class="terminal-1671903579-r2" x="1464" y="556.8" textLength="12.2" clip-path="url(#terminal-1671903579-line-22)">
</text><text class="terminal-1671903579-r9" x="0" y="581.2" textLength="12.2" clip-path="url(#terminal-1671903579-line-23)">│</text><text class="terminal-1671903579-r9" x="1451.8" y="581.2" textLength="12.2" clip-path="url(#terminal-1671903579-line-23)">│</text><text class="terminal-1671903579-r2" x="1464" y="581.2" textLength="12.2" clip-path="url(#terminal-1671903579-line-23)">
</text><text class="terminal-1671903579-r9" x="0" y="605.6" textLength="12.2" clip-path="url(#terminal-1671903579-line-24)">│</text><text class="terminal-1671903579-r9" x="1451.8" y="605.6" textLength="12.2" clip-path="url(#terminal-1671903579-line-24)">│</text><text class="terminal-1671903579-r2" x="1464" y="605.6" textLength="12.2" clip-path="url(#terminal-1671903579-line-24)">
</text><text class="terminal-1671903579-r9" x="0" y="630" textLength="12.2" clip-path="url(#terminal-1671903579-line-25)">│</text><text class="terminal-1671903579-r9" x="1451.8" y="630" textLength="12.2" clip-path="url(#terminal-1671903579-line-25)">│</text><text class="terminal-1671903579-r2" x="1464" y="630" textLength="12.2" clip-path="url(#terminal-1671903579-line-25)">
</text><text class="terminal-1671903579-r9" x="0" y="654.4" textLength="12.2" clip-path="url(#terminal-1671903579-line-26)">│</text><text class="terminal-1671903579-r9" x="1451.8" y="654.4" textLength="12.2" clip-path="url(#terminal-1671903579-line-26)">│</text><text class="terminal-1671903579-r2" x="1464" y="654.4" textLength="12.2" clip-path="url(#terminal-1671903579-line-26)">
</text><text class="terminal-1671903579-r9" x="0" y="678.8" textLength="12.2" clip-path="url(#terminal-1671903579-line-27)">│</text><text class="terminal-1671903579-r9" x="1451.8" y="678.8" textLength="12.2" clip-path="url(#terminal-1671903579-line-27)">│</text><text class="terminal-1671903579-r2" x="1464" y="678.8" textLength="12.2" clip-path="url(#terminal-1671903579-line-27)">
</text><text class="terminal-1671903579-r9" x="0" y="703.2" textLength="12.2" clip-path="url(#terminal-1671903579-line-28)">│</text><text class="terminal-1671903579-r9" x="1451.8" y="703.2" textLength="12.2" clip-path="url(#terminal-1671903579-line-28)">│</text><text class="terminal-1671903579-r2" x="1464" y="703.2" textLength="12.2" clip-path="url(#terminal-1671903579-line-28)">
</text><text class="terminal-1671903579-r9" x="0" y="727.6" textLength="12.2" clip-path="url(#terminal-1671903579-line-29)">│</text><text class="terminal-1671903579-r9" x="1451.8" y="727.6" textLength="12.2" clip-path="url(#terminal-1671903579-line-29)">│</text><text class="terminal-1671903579-r2" x="1464" y="727.6" textLength="12.2" clip-path="url(#terminal-1671903579-line-29)">
</text><text class="terminal-1671903579-r9" x="0" y="752" textLength="12.2" clip-path="url(#terminal-1671903579-line-30)">│</text><text class="terminal-1671903579-r9" x="1451.8" y="752" textLength="12.2" clip-path="url(#terminal-1671903579-line-30)">│</text><text class="terminal-1671903579-r2" x="1464" y="752" textLength="12.2" clip-path="url(#terminal-1671903579-line-30)">
</text><text class="terminal-1671903579-r9" x="0" y="776.4" textLength="12.2" clip-path="url(#terminal-1671903579-line-31)">│</text><text class="terminal-1671903579-r9" x="1451.8" y="776.4" textLength="12.2" clip-path="url(#terminal-1671903579-line-31)">│</text><text class="terminal-1671903579-r2" x="1464" y="776.4" textLength="12.2" clip-path="url(#terminal-1671903579-line-31)">
</text><text class="terminal-1671903579-r9" x="0" y="800.8" textLength="12.2" clip-path="url(#terminal-1671903579-line-32)">│</text><text class="terminal-1671903579-r9" x="1451.8" y="800.8" textLength="12.2" clip-path="url(#terminal-1671903579-line-32)">│</text><text class="terminal-1671903579-r2" x="1464" y="800.8" textLength="12.2" clip-path="url(#terminal-1671903579-line-32)">
</text><text class="terminal-1671903579-r9" x="0" y="825.2" textLength="12.2" clip-path="url(#terminal-1671903579-line-33)">│</text><text class="terminal-1671903579-r9" x="1451.8" y="825.2" textLength="12.2" clip-path="url(#terminal-1671903579-line-33)">│</text><text class="terminal-1671903579-r2" x="1464" y="825.2" textLength="12.2" clip-path="url(#terminal-1671903579-line-33)">
</text><text class="terminal-1671903579-r9" x="0" y="849.6" textLength="12.2" clip-path="url(#terminal-1671903579-line-34)">│</text><text class="terminal-1671903579-r9" x="1451.8" y="849.6" textLength="12.2" clip-path="url(#terminal-1671903579-line-34)">│</text><text class="terminal-1671903579-r2" x="1464" y="849.6" textLength="12.2" clip-path="url(#terminal-1671903579-line-34)">
</text><text class="terminal-1671903579-r9" x="0" y="874" textLength="12.2" clip-path="url(#terminal-1671903579-line-35)">│</text><text class="terminal-1671903579-r9" x="1451.8" y="874" textLength="12.2" clip-path="url(#terminal-1671903579-line-35)">│</text><text class="terminal-1671903579-r2" x="1464" y="874" textLength="12.2" clip-path="url(#terminal-1671903579-line-35)">
</text><text class="terminal-1671903579-r9" x="0" y="898.4" textLength="12.2" clip-path="url(#terminal-1671903579-line-36)">│</text><text class="terminal-1671903579-r9" x="1451.8" y="898.4" textLength="12.2" clip-path="url(#terminal-1671903579-line-36)">│</text><text class="terminal-1671903579-r2" x="1464" y="898.4" textLength="12.2" clip-path="url(#terminal-1671903579-line-36)">
</text><text class="terminal-1671903579-r9" x="0" y="922.8" textLength="12.2" clip-path="url(#terminal-1671903579-line-37)">│</text><text class="terminal-1671903579-r9" x="1451.8" y="922.8" textLength="12.2" clip-path="url(#terminal-1671903579-line-37)">│</text><text class="terminal-1671903579-r2" x="1464" y="922.8" textLength="12.2" clip-path="url(#terminal-1671903579-line-37)">
</text><text class="terminal-1671903579-r9" x="0" y="947.2" textLength="12.2" clip-path="url(#terminal-1671903579-line-38)">└</text><text class="terminal-1671903579-r9" x="12.2" y="947.2" textLength="1439.6" clip-path="url(#terminal-1671903579-line-38)">──────────────────────────────────────────────────────────────────────────────────────────────────────────────────────</text><text class="terminal-1671903579-r9" x="1451.8" y="947.2" textLength="12.2" clip-path="url(#terminal-1671903579-line-38)">┘</text><text class="terminal-1671903579-r2" x="1464" y="947.2" textLength="12.2" clip-path="url(#terminal-1671903579-line-38)">
</text><text class="terminal-1671903579-r14" x="12.2" y="971.6" textLength="646.6" clip-path="url(#terminal-1671903579-line-39)">Working&#160;|&#160;Tab&#160;focus&#160;&#160;1/2/3&#160;views&#160;&#160;?&#160;help&#160;&#160;Ctrl+Q&#160;quit</text>
    </g>
    </g>
</svg>
