<svg class="rich-terminal" viewBox="0 0 994 635.5999999999999" xmlns="http://www.w3.org/2000/svg">
    <!-- Generated with Rich https://www.textualize.io -->
    <style>

    @font-face {
        font-family: "Fira Code";
        src: local("FiraCode-Regular"),
                url("https://cdnjs.cloudflare.com/ajax/libs/firacode/6.2.0/woff2/FiraCode-Regular.woff2") format("woff2"),
                url("https://cdnjs.cloudflare.com/ajax/libs/firacode/6.2.0/woff/FiraCode-Regular.woff") format("woff");
        font-style: normal;
        font-weight: 400;
    }
    @font-face {
        font-family: "Fira Code";
        src: local("FiraCode-Bold"),
                url("https://cdnjs.cloudflare.com/ajax/libs/firacode/6.2.0/woff2/FiraCode-Bold.woff2") format("woff2"),
                url("https://cdnjs.cloudflare.com/ajax/libs/firacode/6.2.0/woff/FiraCode-Bold.woff") format("woff");
        font-style: bold;
        font-weight: 700;
    }

    .terminal-3275475865-matrix {
        font-family: Fira Code, monospace;
        font-size: 20px;
        line-height: 24.4px;
        font-variant-east-asian: full-width;
    }

    .terminal-3275475865-title {
        font-size: 18px;
        font-weight: bold;
        font-family: arial;
    }

    .terminal-3275475865-r1 { fill: #252525 }
.terminal-3275475865-r2 { fill: #e0e0e0 }
.terminal-3275475865-r3 { fill: #c5c8c6 }
.terminal-3275475865-r4 { fill: #3b3b3b }
.terminal-3275475865-r5 { fill: #e1e1e1 }
.terminal-3275475865-r6 { fill: #141414 }
.terminal-3275475865-r7 { fill: #272727 }
.terminal-3275475865-r8 { fill: #0e0e0e }
.terminal-3275475865-r9 { fill: #3b3b3b;font-weight: bold }
    </style>

    <defs>
    <clipPath id="terminal-3275475865-clip-terminal">
      <rect x="0" y="0" width="975.0" height="584.5999999999999" />
    </clipPath>
    <clipPath id="terminal-3275475865-line-0">
    <rect x="0" y="1.5" width="976" height="24.65"/>
            </clipPath>
<clipPath id="terminal-3275475865-line-1">
    <rect x="0" y="25.9" width="976" height="24.65"/>
            </clipPath>
<clipPath id="terminal-3275475865-line-2">
    <rect x="0" y="50.3" width="976" height="24.65"/>
            </clipPath>
<clipPath id="terminal-3275475865-line-3">
    <rect x="0" y="74.7" width="976" height="24.65"/>
            </clipPath>
<clipPath id="terminal-3275475865-line-4">
    <rect x="0" y="99.1" width="976" height="24.65"/>
            </clipPath>
<clipPath id="terminal-3275475865-line-5">
    <rect x="0" y="123.5" width="976" height="24.65"/>
            </clipPath>
<clipPath id="terminal-3275475865-line-6">
    <rect x="0" y="147.9" width="976" height="24.65"/>
            </clipPath>
<clipPath id="terminal-3275475865-line-7">
    <rect x="0" y="172.3" width="976" height="24.65"/>
            </clipPath>
<clipPath id="terminal-3275475865-line-8">
    <rect x="0" y="196.7" width="976" height="24.65"/>
            </clipPath>
<clipPath id="terminal-3275475865-line-9">
    <rect x="0" y="221.1" width="976" height="24.65"/>
            </clipPath>
<clipPath id="terminal-3275475865-line-10">
    <rect x="0" y="245.5" width="976" height="24.65"/>
            </clipPath>
<clipPath id="terminal-3275475865-line-11">
    <rect x="0" y="269.9" width="976" height="24.65"/>
            </clipPath>
<clipPath id="terminal-3275475865-line-12">
    <rect x="0" y="294.3" width="976" height="24.65"/>
            </clipPath>
<clipPath id="terminal-3275475865-line-13">
    <rect x="0" y="318.7" width="976" height="24.65"/>
            </clipPath>
<clipPath id="terminal-3275475865-line-14">
    <rect x="0" y="343.1" width="976" height="24.65"/>
            </clipPath>
<clipPath id="terminal-3275475865-line-15">
    <rect x="0" y="367.5" width="976" height="24.65"/>
            </clipPath>
<clipPath id="terminal-3275475865-line-16">
    <rect x="0" y="391.9" width="976" height="24.65"/>
            </clipPath>
<clipPath id="terminal-3275475865-line-17">
    <rect x="0" y="416.3" width="976" height="24.65"/>
            </clipPath>
<clipPath id="terminal-3275475865-line-18">
    <rect x="0" y="440.7" width="976" height="24.65"/>
            </clipPath>
<clipPath id="terminal-3275475865-line-19">
    <rect x="0" y="465.1" width="976" height="24.65"/>
            </clipPath>
<clipPath id="terminal-3275475865-line-20">
    <rect x="0" y="489.5" width="976" height="24.65"/>
            </clipPath>
<clipPath id="terminal-3275475865-line-21">
    <rect x="0" y="513.9" width="976" height="24.65"/>
            </clipPath>
<clipPath id="terminal-3275475865-line-22">
    <rect x="0" y="538.3" width="976" height="24.65"/>
            </clipPath>
    </defs>

    <rect fill="#292929" stroke="rgba(255,255,255,0.35)" stroke-width="1" x="1" y="1" width="992" height="633.6" rx="8"/><text class="terminal-3275475865-title" fill="#c5c8c6" text-anchor="middle" x="496" y="27">yt-smzr</text>
            <g transform="translate(26,22)">
            <circle cx="0" cy="0" r="7" fill="#ff5f57"/>
            <circle cx="22" cy="0" r="7" fill="#febc2e"/>
            <circle cx="44" cy="0" r="7" fill="#28c840"/>
            </g>
        
    <g transform="translate(9, 41)" clip-path="url(#terminal-3275475865-clip-terminal)">
    <rect fill="#141414" x="0" y="1.5" width="12.2" height="24.65" shape-rendering="crispEdges"/><rect fill="#141414" x="12.2" y="1.5" width="597.8" height="24.65" shape-rendering="crispEdges"/><rect fill="#141414" x="610" y="1.5" width="12.2" height="24.65" shape-rendering="crispEdges"/><rect fill="#141414" x="622.2" y="1.5" width="353.8" height="24.65" shape-rendering="crispEdges"/><rect fill="#141414" x="0" y="25.9" width="12.2" height="24.65" shape-rendering="crispEdges"/><rect fill="#141414" x="12.2" y="25.9" width="12.2" height="24.65" shape-rendering="crispEdges"/><rect fill="#141414" x="24.4" y="25.9" width="24.4" height="24.65" shape-rendering="crispEdges"/><rect fill="#1e1e1e" x="48.8" y="25.9" width="12.2" height="24.65" shape-rendering="crispEdges"/><rect fill="#1e1e1e" x="61" y="25.9" width="854" height="24.65" shape-rendering="crispEdges"/><rect fill="#1e1e1e" x="915" y="25.9" width="12.2" height="24.65" shape-rendering="crispEdges"/><rect fill="#141414" x="927.2" y="25.9" width="24.4" height="24.65" shape-rendering="crispEdges"/><rect fill="#141414" x="951.6" y="25.9" width="24.4" height="24.65" shape-rendering="crispEdges"/><rect fill="#141414" x="0" y="50.3" width="12.2" height="24.65" shape-rendering="crispEdges"/><rect fill="#141414" x="12.2" y="50.3" width="36.6" height="24.65" shape-rendering="crispEdges"/><rect fill="#1e1e1e" x="48.8" y="50.3" width="12.2" height="24.65" shape-rendering="crispEdges"/><rect fill="#1e1e1e" x="61" y="50.3" width="854" height="24.65" shape-rendering="crispEdges"/><rect fill="#1e1e1e" x="915" y="50.3" width="12.2" height="24.65" shape-rendering="crispEdges"/><rect fill="#141414" x="927.2" y="50.3" width="48.8" height="24.65" shape-rendering="crispEdges"/><rect fill="#141414" x="0" y="74.7" width="12.2" height="24.65" shape-rendering="crispEdges"/><rect fill="#141414" x="12.2" y="74.7" width="36.6" height="24.65" shape-rendering="crispEdges"/><rect fill="#1e1e1e" x="48.8" y="74.7" width="12.2" height="24.65" shape-rendering="crispEdges"/><rect fill="#1e1e1e" x="61" y="74.7" width="24.4" height="24.65" shape-rendering="crispEdges"/><rect fill="#1e1e1e" x="85.4" y="74.7" width="85.4" height="24.65" shape-rendering="crispEdges"/><rect fill="#1e1e1e" x="170.8" y="74.7" width="719.8" height="24.65" shape-rendering="crispEdges"/><rect fill="#1e1e1e" x="890.6" y="74.7" width="24.4" height="24.65" shape-rendering="crispEdges"/><rect fill="#1e1e1e" x="915" y="74.7" width="12.2" height="24.65" shape-rendering="crispEdges"/><rect fill="#141414" x="927.2" y="74.7" width="36.6" height="24.65" shape-rendering="crispEdges"/><rect fill="#141414" x="963.8" y="74.7" width="12.2" height="24.65" shape-rendering="crispEdges"/><rect fill="#141414" x="0" y="99.1" width="12.2" height="24.65" shape-rendering="crispEdges"/><rect fill="#141414" x="12.2" y="99.1" width="36.6" height="24.65" shape-rendering="crispEdges"/><rect fill="#1e1e1e" x="48.8" y="99.1" width="12.2" height="24.65" shape-rendering="crispEdges"/><rect fill="#1e1e1e" x="61" y="99.1" width="24.4" height="24.65" shape-rendering="crispEdges"/><rect fill="#1e1e1e" x="85.4" y="99.1" width="0" height="24.65" shape-rendering="crispEdges"/><rect fill="#1e1e1e" x="85.4" y="99.1" width="805.2" height="24.65" shape-rendering="crispEdges"/><rect fill="#1e1e1e" x="890.6" y="99.1" width="24.4" height="24.65" shape-rendering="crispEdges"/><rect fill="#1e1e1e" x="915" y="99.1" width="12.2" height="24.65" shape-rendering="crispEdges"/><rect fill="#141414" x="927.2" y="99.1" width="36.6" height="24.65" shape-rendering="crispEdges"/><rect fill="#141414" x="963.8" y="99.1" width="12.2" height="24.65" shape-rendering="crispEdges"/><rect fill="#141414" x="0" y="123.5" width="12.2" height="24.65" shape-rendering="crispEdges"/><rect fill="#141414" x="12.2" y="123.5" width="36.6" height="24.65" shape-rendering="crispEdges"/><rect fill="#1e1e1e" x="48.8" y="123.5" width="12.2" height="24.65" shape-rendering="crispEdges"/><rect fill="#1e1e1e" x="61" y="123.5" width="24.4" height="24.65" shape-rendering="crispEdges"/><rect fill="#1e1e1e" x="85.4" y="123.5" width="341.6" height="24.65" shape-rendering="crispEdges"/><rect fill="#1e1e1e" x="427" y="123.5" width="463.6" height="24.65" shape-rendering="crispEdges"/><rect fill="#1e1e1e" x="890.6" y="123.5" width="24.4" height="24.65" shape-rendering="crispEdges"/><rect fill="#1e1e1e" x="915" y="123.5" width="12.2" height="24.65" shape-rendering="crispEdges"/><rect fill="#141414" x="927.2" y="123.5" width="36.6" height="24.65" shape-rendering="crispEdges"/><rect fill="#141414" x="963.8" y="123.5" width="12.2" height="24.65" shape-rendering="crispEdges"/><rect fill="#141414" x="0" y="147.9" width="12.2" height="24.65" shape-rendering="crispEdges"/><rect fill="#141414" x="12.2" y="147.9" width="12.2" height="24.65" shape-rendering="crispEdges"/><rect fill="#141414" x="24.4" y="147.9" width="24.4" height="24.65" shape-rendering="crispEdges"/><rect fill="#1e1e1e" x="48.8" y="147.9" width="12.2" height="24.65" shape-rendering="crispEdges"/><rect fill="#1e1e1e" x="61" y="147.9" width="24.4" height="24.65" shape-rendering="crispEdges"/><rect fill="#1e1e1e" x="85.4" y="147.9" width="719.8" height="24.65" shape-rendering="crispEdges"/><rect fill="#1e1e1e" x="805.2" y="147.9" width="85.4" height="24.65" shape-rendering="crispEdges"/><rect fill="#1e1e1e" x="890.6" y="147.9" width="24.4" height="24.65" shape-rendering="crispEdges"/><rect fill="#1e1e1e" x="915" y="147.9" width="12.2" height="24.65" shape-rendering="crispEdges"/><rect fill="#141414" x="927.2" y="147.9" width="36.6" height="24.65" shape-rendering="crispEdges"/><rect fill="#141414" x="963.8" y="147.9" width="12.2" height="24.65" shape-rendering="crispEdges"/><rect fill="#141414" x="0" y="172.3" width="12.2" height="24.65" shape-rendering="crispEdges"/><rect fill="#141414" x="12.2" y="172.3" width="36.6" height="24.65" shape-rendering="crispEdges"/><rect fill="#1e1e1e" x="48.8" y="172.3" width="12.2" height="24.65" shape-rendering="crispEdges"/><rect fill="#1e1e1e" x="61" y="172.3" width="24.4" height="24.65" shape-rendering="crispEdges"/><rect fill="#1e1e1e" x="85.4" y="172.3" width="732" height="24.65" shape-rendering="crispEdges"/><rect fill="#1e1e1e" x="817.4" y="172.3" width="73.2" height="24.65" shape-rendering="crispEdges"/><rect fill="#1e1e1e" x="890.6" y="172.3" width="24.4" height="24.65" shape-rendering="crispEdges"/><rect fill="#1e1e1e" x="915" y="172.3" width="12.2" height="24.65" shape-rendering="crispEdges"/><rect fill="#141414" x="927.2" y="172.3" width="12.2" height="24.65" shape-rendering="crispEdges"/><rect fill="#161616" x="939.4" y="172.3" width="24.4" height="24.65" shape-rendering="crispEdges"/><rect fill="#141414" x="963.8" y="172.3" width="12.2" height="24.65" shape-rendering="crispEdges"/><rect fill="#141414" x="0" y="196.7" width="12.2" height="24.65" shape-rendering="crispEdges"/><rect fill="#141414" x="12.2" y="196.7" width="36.6" height="24.65" shape-rendering="crispEdges"/><rect fill="#1e1e1e" x="48.8" y="196.7" width="12.2" height="24.65" shape-rendering="crispEdges"/><rect fill="#1e1e1e" x="61" y="196.7" width="24.4" height="24.65" shape-rendering="crispEdges"/><rect fill="#1e1e1e" x="85.4" y="196.7" width="329.4" height="24.65" shape-rendering="crispEdges"/><rect fill="#1e1e1e" x="414.8" y="196.7" width="475.8" height="24.65" shape-rendering="crispEdges"/><rect fill="#1e1e1e" x="890.6" y="196.7" width="24.4" height="24.65" shape-rendering="crispEdges"/><rect fill="#1e1e1e" x="915" y="196.7" width="12.2" height="24.65" shape-rendering="crispEdges"/><rect fill="#141414" x="927.2" y="196.7" width="36.6" height="24.65" shape-rendering="crispEdges"/><rect fill="#141414" x="963.8" y="196.7" width="12.2" height="24.65" shape-rendering="crispEdges"/><rect fill="#141414" x="0" y="221.1" width="12.2" height="24.65" shape-rendering="crispEdges"/><rect fill="#141414" x="12.2" y="221.1" width="36.6" height="24.65" shape-rendering="crispEdges"/><rect fill="#1e1e1e" x="48.8" y="221.1" width="12.2" height="24.65" shape-rendering="crispEdges"/><rect fill="#1e1e1e" x="61" y="221.1" width="24.4" height="24.65" shape-rendering="crispEdges"/><rect fill="#1e1e1e" x="85.4" y="221.1" width="695.4" height="24.65" shape-rendering="crispEdges"/><rect fill="#1e1e1e" x="780.8" y="221.1" width="109.8" height="24.65" shape-rendering="crispEdges"/><rect fill="#1e1e1e" x="890.6" y="221.1" width="24.4" height="24.65" shape-rendering="crispEdges"/><rect fill="#1e1e1e" x="915" y="221.1" width="12.2" height="24.65" shape-rendering="crispEdges"/><rect fill="#141414" x="927.2" y="221.1" width="48.8" height="24.65" shape-rendering="crispEdges"/><rect fill="#141414" x="0" y="245.5" width="12.2" height="24.65" shape-rendering="crispEdges"/><rect fill="#141414" x="12.2" y="245.5" width="12.2" height="24.65" shape-rendering="crispEdges"/><rect fill="#141414" x="24.4" y="245.5" width="24.4" height="24.65" shape-rendering="crispEdges"/><rect fill="#1e1e1e" x="48.8" y="245.5" width="12.2" height="24.65" shape-rendering="crispEdges"/><rect fill="#1e1e1e" x="61" y="245.5" width="24.4" height="24.65" shape-rendering="crispEdges"/><rect fill="#1e1e1e" x="85.4" y="245.5" width="439.2" height="24.65" shape-rendering="crispEdges"/><rect fill="#1e1e1e" x="524.6" y="245.5" width="366" height="24.65" shape-rendering="crispEdges"/><rect fill="#1e1e1e" x="890.6" y="245.5" width="24.4" height="24.65" shape-rendering="crispEdges"/><rect fill="#1e1e1e" x="915" y="245.5" width="12.2" height="24.65" shape-rendering="crispEdges"/><rect fill="#141414" x="927.2" y="245.5" width="36.6" height="24.65" shape-rendering="crispEdges"/><rect fill="#141414" x="963.8" y="245.5" width="12.2" height="24.65" shape-rendering="crispEdges"/><rect fill="#141414" x="0" y="269.9" width="12.2" height="24.65" shape-rendering="crispEdges"/><rect fill="#141414" x="12.2" y="269.9" width="12.2" height="24.65" shape-rendering="crispEdges"/><rect fill="#141414" x="24.4" y="269.9" width="24.4" height="24.65" shape-rendering="crispEdges"/><rect fill="#1e1e1e" x="48.8" y="269.9" width="12.2" height="24.65" shape-rendering="crispEdges"/><rect fill="#1e1e1e" x="61" y="269.9" width="24.4" height="24.65" shape-rendering="crispEdges"/><rect fill="#1e1e1e" x="85.4" y="269.9" width="500.2" height="24.65" shape-rendering="crispEdges"/><rect fill="#1e1e1e" x="585.6" y="269.9" width="305" height="24.65" shape-rendering="crispEdges"/><rect fill="#1e1e1e" x="890.6" y="269.9" width="24.4" height="24.65" shape-rendering="crispEdges"/><rect fill="#1e1e1e" x="915" y="269.9" width="12.2" height="24.65" shape-rendering="crispEdges"/><rect fill="#141414" x="927.2" y="269.9" width="12.2" height="24.65" shape-rendering="crispEdges"/><rect fill="#161616" x="939.4" y="269.9" width="24.4" height="24.65" shape-rendering="crispEdges"/><rect fill="#141414" x="963.8" y="269.9" width="12.2" height="24.65" shape-rendering="crispEdges"/><rect fill="#141414" x="0" y="294.3" width="12.2" height="24.65" shape-rendering="crispEdges"/><rect fill="#141414" x="12.2" y="294.3" width="12.2" height="24.65" shape-rendering="crispEdges"/><rect fill="#141414" x="24.4" y="294.3" width="24.4" height="24.65" shape-rendering="crispEdges"/><rect fill="#1e1e1e" x="48.8" y="294.3" width="12.2" height="24.65" shape-rendering="crispEdges"/><rect fill="#1e1e1e" x="61" y="294.3" width="24.4" height="24.65" shape-rendering="crispEdges"/><rect fill="#1e1e1e" x="85.4" y="294.3" width="646.6" height="24.65" shape-rendering="crispEdges"/><rect fill="#1e1e1e" x="732" y="294.3" width="158.6" height="24.65" shape-rendering="crispEdges"/><rect fill="#1e1e1e" x="890.6" y="294.3" width="24.4" height="24.65" shape-rendering="crispEdges"/><rect fill="#1e1e1e" x="915" y="294.3" width="12.2" height="24.65" shape-rendering="crispEdges"/><rect fill="#141414" x="927.2" y="294.3" width="12.2" height="24.65" shape-rendering="crispEdges"/><rect fill="#161616" x="939.4" y="294.3" width="24.4" height="24.65" shape-rendering="crispEdges"/><rect fill="#141414" x="963.8" y="294.3" width="12.2" height="24.65" shape-rendering="crispEdges"/><rect fill="#141414" x="0" y="318.7" width="12.2" height="24.65" shape-rendering="crispEdges"/><rect fill="#141414" x="12.2" y="318.7" width="12.2" height="24.65" shape-rendering="crispEdges"/><rect fill="#141414" x="24.4" y="318.7" width="24.4" height="24.65" shape-rendering="crispEdges"/><rect fill="#1e1e1e" x="48.8" y="318.7" width="12.2" height="24.65" shape-rendering="crispEdges"/><rect fill="#1e1e1e" x="61" y="318.7" width="24.4" height="24.65" shape-rendering="crispEdges"/><rect fill="#1e1e1e" x="85.4" y="318.7" width="622.2" height="24.65" shape-rendering="crispEdges"/><rect fill="#1e1e1e" x="707.6" y="318.7" width="183" height="24.65" shape-rendering="crispEdges"/><rect fill="#1e1e1e" x="890.6" y="318.7" width="24.4" height="24.65" shape-rendering="crispEdges"/><rect fill="#1e1e1e" x="915" y="318.7" width="12.2" height="24.65" shape-rendering="crispEdges"/><rect fill="#141414" x="927.2" y="318.7" width="12.2" height="24.65" shape-rendering="crispEdges"/><rect fill="#161616" x="939.4" y="318.7" width="24.4" height="24.65" shape-rendering="crispEdges"/><rect fill="#141414" x="963.8" y="318.7" width="12.2" height="24.65" shape-rendering="crispEdges"/><rect fill="#141414" x="0" y="343.1" width="12.2" height="24.65" shape-rendering="crispEdges"/><rect fill="#141414" x="12.2" y="343.1" width="12.2" height="24.65" shape-rendering="crispEdges"/><rect fill="#141414" x="24.4" y="343.1" width="24.4" height="24.65" shape-rendering="crispEdges"/><rect fill="#1e1e1e" x="48.8" y="343.1" width="12.2" height="24.65" shape-rendering="crispEdges"/><rect fill="#1e1e1e" x="61" y="343.1" width="24.4" height="24.65" shape-rendering="crispEdges"/><rect fill="#1e1e1e" x="85.4" y="343.1" width="329.4" height="24.65" shape-rendering="crispEdges"/><rect fill="#1e1e1e" x="414.8" y="343.1" width="475.8" height="24.65" shape-rendering="crispEdges"/><rect fill="#1e1e1e" x="890.6" y="343.1" width="24.4" height="24.65" shape-rendering="crispEdges"/><rect fill="#1e1e1e" x="915" y="343.1" width="12.2" height="24.65" shape-rendering="crispEdges"/><rect fill="#141414" x="927.2" y="343.1" width="12.2" height="24.65" shape-rendering="crispEdges"/><rect fill="#161616" x="939.4" y="343.1" width="24.4" height="24.65" shape-rendering="crispEdges"/><rect fill="#141414" x="963.8" y="343.1" width="12.2" height="24.65" shape-rendering="crispEdges"/><rect fill="#141414" x="0" y="367.5" width="12.2" height="24.65" shape-rendering="crispEdges"/><rect fill="#141414" x="12.2" y="367.5" width="12.2" height="24.65" shape-rendering="crispEdges"/><rect fill="#141414" x="24.4" y="367.5" width="24.4" height="24.65" shape-rendering="crispEdges"/><rect fill="#1e1e1e" x="48.8" y="367.5" width="12.2" height="24.65" shape-rendering="crispEdges"/><rect fill="#1e1e1e" x="61" y="367.5" width="24.4" height="24.65" shape-rendering="crispEdges"/><rect fill="#1e1e1e" x="85.4" y="367.5" width="268.4" height="24.65" shape-rendering="crispEdges"/><rect fill="#1e1e1e" x="353.8" y="367.5" width="536.8" height="24.65" shape-rendering="crispEdges"/><rect fill="#1e1e1e" x="890.6" y="367.5" width="24.4" height="24.65" shape-rendering="crispEdges"/><rect fill="#1e1e1e" x="915" y="367.5" width="12.2" height="24.65" shape-rendering="crispEdges"/><rect fill="#141414" x="927.2" y="367.5" width="12.2" height="24.65" shape-rendering="crispEdges"/><rect fill="#161616" x="939.4" y="367.5" width="24.4" height="24.65" shape-rendering="crispEdges"/><rect fill="#141414" x="963.8" y="367.5" width="12.2" height="24.65" shape-rendering="crispEdges"/><rect fill="#141414" x="0" y="391.9" width="12.2" height="24.65" shape-rendering="crispEdges"/><rect fill="#141414" x="12.2" y="391.9" width="12.2" height="24.65" shape-rendering="crispEdges"/><rect fill="#141414" x="24.4" y="391.9" width="24.4" height="24.65" shape-rendering="crispEdges"/><rect fill="#1e1e1e" x="48.8" y="391.9" width="12.2" height="24.65" shape-rendering="crispEdges"/><rect fill="#1e1e1e" x="61" y="391.9" width="24.4" height="24.65" shape-rendering="crispEdges"/><rect fill="#1e1e1e" x="85.4" y="391.9" width="0" height="24.65" shape-rendering="crispEdges"/><rect fill="#1e1e1e" x="85.4" y="391.9" width="805.2" height="24.65" shape-rendering="crispEdges"/><rect fill="#1e1e1e" x="890.6" y="391.9" width="24.4" height="24.65" shape-rendering="crispEdges"/><rect fill="#1e1e1e" x="915" y="391.9" width="12.2" height="24.65" shape-rendering="crispEdges"/><rect fill="#141414" x="927.2" y="391.9" width="12.2" height="24.65" shape-rendering="crispEdges"/><rect fill="#161616" x="939.4" y="391.9" width="24.4" height="24.65" shape-rendering="crispEdges"/><rect fill="#141414" x="963.8" y="391.9" width="12.2" height="24.65" shape-rendering="crispEdges"/><rect fill="#141414" x="0" y="416.3" width="12.2" height="24.65" shape-rendering="crispEdges"/><rect fill="#141414" x="12.2" y="416.3" width="12.2" height="24.65" shape-rendering="crispEdges"/><rect fill="#141414" x="24.4" y="416.3" width="24.4" height="24.65" shape-rendering="crispEdges"/><rect fill="#1e1e1e" x="48.8" y="416.3" width="12.2" height="24.65" shape-rendering="crispEdges"/><rect fill="#1e1e1e" x="61" y="416.3" width="24.4" height="24.65" shape-rendering="crispEdges"/><rect fill="#1e1e1e" x="85.4" y="416.3" width="512.4" height="24.65" shape-rendering="crispEdges"/><rect fill="#1e1e1e" x="597.8" y="416.3" width="292.8" height="24.65" shape-rendering="crispEdges"/><rect fill="#1e1e1e" x="890.6" y="416.3" width="24.4" height="24.65" shape-rendering="crispEdges"/><rect fill="#1e1e1e" x="915" y="416.3" width="12.2" height="24.65" shape-rendering="crispEdges"/><rect fill="#141414" x="927.2" y="416.3" width="12.2" height="24.65" shape-rendering="crispEdges"/><rect fill="#0e0e0e" x="939.4" y="416.3" width="24.4" height="24.65" shape-rendering="crispEdges"/><rect fill="#141414" x="963.8" y="416.3" width="12.2" height="24.65" shape-rendering="crispEdges"/><rect fill="#141414" x="0" y="440.7" width="12.2" height="24.65" shape-rendering="crispEdges"/><rect fill="#141414" x="12.2" y="440.7" width="12.2" height="24.65" shape-rendering="crispEdges"/><rect fill="#141414" x="24.4" y="440.7" width="24.4" height="24.65" shape-rendering="crispEdges"/><rect fill="#1e1e1e" x="48.8" y="440.7" width="12.2" height="24.65" shape-rendering="crispEdges"/><rect fill="#1e1e1e" x="61" y="440.7" width="24.4" height="24.65" shape-rendering="crispEdges"/><rect fill="#1e1e1e" x="85.4" y="440.7" width="427" height="24.65" shape-rendering="crispEdges"/><rect fill="#1e1e1e" x="512.4" y="440.7" width="378.2" height="24.65" shape-rendering="crispEdges"/><rect fill="#1e1e1e" x="890.6" y="440.7" width="24.4" height="24.65" shape-rendering="crispEdges"/><rect fill="#1e1e1e" x="915" y="440.7" width="12.2" height="24.65" shape-rendering="crispEdges"/><rect fill="#141414" x="927.2" y="440.7" width="12.2" height="24.65" shape-rendering="crispEdges"/><rect fill="#0e0e0e" x="939.4" y="440.7" width="24.4" height="24.65" shape-rendering="crispEdges"/><rect fill="#141414" x="963.8" y="440.7" width="12.2" height="24.65" shape-rendering="crispEdges"/><rect fill="#141414" x="0" y="465.1" width="12.2" height="24.65" shape-rendering="crispEdges"/><rect fill="#141414" x="12.2" y="465.1" width="12.2" height="24.65" shape-rendering="crispEdges"/><rect fill="#141414" x="24.4" y="465.1" width="24.4" height="24.65" shape-rendering="crispEdges"/><rect fill="#1e1e1e" x="48.8" y="465.1" width="12.2" height="24.65" shape-rendering="crispEdges"/><rect fill="#1e1e1e" x="61" y="465.1" width="24.4" height="24.65" shape-rendering="crispEdges"/><rect fill="#1e1e1e" x="85.4" y="465.1" width="0" height="24.65" shape-rendering="crispEdges"/><rect fill="#1e1e1e" x="85.4" y="465.1" width="805.2" height="24.65" shape-rendering="crispEdges"/><rect fill="#1e1e1e" x="890.6" y="465.1" width="24.4" height="24.65" shape-rendering="crispEdges"/><rect fill="#1e1e1e" x="915" y="465.1" width="12.2" height="24.65" shape-rendering="crispEdges"/><rect fill="#141414" x="927.2" y="465.1" width="12.2" height="24.65" shape-rendering="crispEdges"/><rect fill="#0e0e0e" x="939.4" y="465.1" width="24.4" height="24.65" shape-rendering="crispEdges"/><rect fill="#141414" x="963.8" y="465.1" width="12.2" height="24.65" shape-rendering="crispEdges"/><rect fill="#141414" x="0" y="489.5" width="12.2" height="24.65" shape-rendering="crispEdges"/><rect fill="#141414" x="12.2" y="489.5" width="12.2" height="24.65" shape-rendering="crispEdges"/><rect fill="#141414" x="24.4" y="489.5" width="24.4" height="24.65" shape-rendering="crispEdges"/><rect fill="#1e1e1e" x="48.8" y="489.5" width="12.2" height="24.65" shape-rendering="crispEdges"/><rect fill="#1e1e1e" x="61" y="489.5" width="24.4" height="24.65" shape-rendering="crispEdges"/><rect fill="#1e1e1e" x="85.4" y="489.5" width="195.2" height="24.65" shape-rendering="crispEdges"/><rect fill="#1e1e1e" x="280.6" y="489.5" width="610" height="24.65" shape-rendering="crispEdges"/><rect fill="#1e1e1e" x="890.6" y="489.5" width="24.4" height="24.65" shape-rendering="crispEdges"/><rect fill="#1e1e1e" x="915" y="489.5" width="12.2" height="24.65" shape-rendering="crispEdges"/><rect fill="#141414" x="927.2" y="489.5" width="12.2" height="24.65" shape-rendering="crispEdges"/><rect fill="#0e0e0e" x="939.4" y="489.5" width="24.4" height="24.65" shape-rendering="crispEdges"/><rect fill="#141414" x="963.8" y="489.5" width="12.2" height="24.65" shape-rendering="crispEdges"/><rect fill="#141414" x="0" y="513.9" width="12.2" height="24.65" shape-rendering="crispEdges"/><rect fill="#141414" x="12.2" y="513.9" width="12.2" height="24.65" shape-rendering="crispEdges"/><rect fill="#141414" x="24.4" y="513.9" width="24.4" height="24.65" shape-rendering="crispEdges"/><rect fill="#1e1e1e" x="48.8" y="513.9" width="12.2" height="24.65" shape-rendering="crispEdges"/><rect fill="#1e1e1e" x="61" y="513.9" width="854" height="24.65" shape-rendering="crispEdges"/><rect fill="#1e1e1e" x="915" y="513.9" width="12.2" height="24.65" shape-rendering="crispEdges"/><rect fill="#141414" x="927.2" y="513.9" width="12.2" height="24.65" shape-rendering="crispEdges"/><rect fill="#0e0e0e" x="939.4" y="513.9" width="24.4" height="24.65" shape-rendering="crispEdges"/><rect fill="#141414" x="963.8" y="513.9" width="12.2" height="24.65" shape-rendering="crispEdges"/><rect fill="#141414" x="0" y="538.3" width="12.2" height="24.65" shape-rendering="crispEdges"/><rect fill="#141414" x="12.2" y="538.3" width="36.6" height="24.65" shape-rendering="crispEdges"/><rect fill="#1e1e1e" x="48.8" y="538.3" width="12.2" height="24.65" shape-rendering="crispEdges"/><rect fill="#1e1e1e" x="61" y="538.3" width="854" height="24.65" shape-rendering="crispEdges"/><rect fill="#1e1e1e" x="915" y="538.3" width="12.2" height="24.65" shape-rendering="crispEdges"/><rect fill="#141414" x="927.2" y="538.3" width="36.6" height="24.65" shape-rendering="crispEdges"/><rect fill="#141414" x="963.8" y="538.3" width="12.2" height="24.65" shape-rendering="crispEdges"/><rect fill="#141414" x="0" y="562.7" width="12.2" height="24.65" shape-rendering="crispEdges"/><rect fill="#141414" x="12.2" y="562.7" width="854" height="24.65" shape-rendering="crispEdges"/><rect fill="#141414" x="866.2" y="562.7" width="97.6" height="24.65" shape-rendering="crispEdges"/><rect fill="#141414" x="963.8" y="562.7" width="12.2" height="24.65" shape-rendering="crispEdges"/>
    <g class="terminal-3275475865-matrix">
    <text class="terminal-3275475865-r1" x="0" y="20" textLength="12.2" clip-path="url(#terminal-3275475865-line-0)">┌</text><text class="terminal-3275475865-r1" x="12.2" y="20" textLength="597.8" clip-path="url(#terminal-3275475865-line-0)">─────────────────────────────────────────────────</text><text class="terminal-3275475865-r1" x="610" y="20" textLength="12.2" clip-path="url(#terminal-3275475865-line-0)">┐</text><text class="terminal-3275475865-r3" x="976" y="20" textLength="12.2" clip-path="url(#terminal-3275475865-line-0)">
</text><text class="terminal-3275475865-r1" x="0" y="44.4" textLength="12.2" clip-path="url(#terminal-3275475865-line-1)">│</text><text class="terminal-3275475865-r4" x="24.4" y="44.4" textLength="24.4" clip-path="url(#terminal-3275475865-line-1)">ht</text><text class="terminal-3275475865-r2" x="48.8" y="44.4" textLength="12.2" clip-path="url(#terminal-3275475865-line-1)">┌</text><text class="terminal-3275475865-r2" x="61" y="44.4" textLength="854" clip-path="url(#terminal-3275475865-line-1)">──────────────────────────────────────────────────────────────────────</text><text class="terminal-3275475865-r2" x="915" y="44.4" textLength="12.2" clip-path="url(#terminal-3275475865-line-1)">┐</text><text class="terminal-3275475865-r4" x="927.2" y="44.4" textLength="24.4" clip-path="url(#terminal-3275475865-line-1)">h&#160;</text><text class="terminal-3275475865-r3" x="976" y="44.4" textLength="12.2" clip-path="url(#terminal-3275475865-line-1)">
</text><text class="terminal-3275475865-r1" x="0" y="68.8" textLength="12.2" clip-path="url(#terminal-3275475865-line-2)">└</text><text class="terminal-3275475865-r1" x="12.2" y="68.8" textLength="36.6" clip-path="url(#terminal-3275475865-line-2)">───</text><text class="terminal-3275475865-r2" x="48.8" y="68.8" textLength="12.2" clip-path="url(#terminal-3275475865-line-2)">│</text><text class="terminal-3275475865-r2" x="915" y="68.8" textLength="12.2" clip-path="url(#terminal-3275475865-line-2)">│</text><text class="terminal-3275475865-r3" x="976" y="68.8" textLength="12.2" clip-path="url(#terminal-3275475865-line-2)">
</text><text class="terminal-3275475865-r4" x="12.2" y="93.2" textLength="36.6" clip-path="url(#terminal-3275475865-line-3)">ope</text><text class="terminal-3275475865-r2" x="48.8" y="93.2" textLength="12.2" clip-path="url(#terminal-3275475865-line-3)">│</text><text class="terminal-3275475865-r5" x="85.4" y="93.2" textLength="85.4" clip-path="url(#terminal-3275475865-line-3)">KEY&#160;MAP</text><text class="terminal-3275475865-r2" x="915" y="93.2" textLength="12.2" clip-path="url(#terminal-3275475865-line-3)">│</text><text class="terminal-3275475865-r3" x="976" y="93.2" textLength="12.2" clip-path="url(#terminal-3275475865-line-3)">
</text><text class="terminal-3275475865-r4" x="12.2" y="117.6" textLength="36.6" clip-path="url(#terminal-3275475865-line-4)">com</text><text class="terminal-3275475865-r2" x="48.8" y="117.6" textLength="12.2" clip-path="url(#terminal-3275475865-line-4)">│</text><text class="terminal-3275475865-r2" x="915" y="117.6" textLength="12.2" clip-path="url(#terminal-3275475865-line-4)">│</text><text class="terminal-3275475865-r3" x="976" y="117.6" textLength="12.2" clip-path="url(#terminal-3275475865-line-4)">
</text><text class="terminal-3275475865-r2" x="48.8" y="142" textLength="12.2" clip-path="url(#terminal-3275475865-line-5)">│</text><text class="terminal-3275475865-r5" x="85.4" y="142" textLength="341.6" clip-path="url(#terminal-3275475865-line-5)">Tab&#160;/&#160;Shift+Tab&#160;&#160;&#160;Move&#160;focus</text><text class="terminal-3275475865-r2" x="915" y="142" textLength="12.2" clip-path="url(#terminal-3275475865-line-5)">│</text><text class="terminal-3275475865-r3" x="976" y="142" textLength="12.2" clip-path="url(#terminal-3275475865-line-5)">
</text><text class="terminal-3275475865-r1" x="0" y="166.4" textLength="12.2" clip-path="url(#terminal-3275475865-line-6)">┌</text><text class="terminal-3275475865-r1" x="12.2" y="166.4" textLength="12.2" clip-path="url(#terminal-3275475865-line-6)">─</text><text class="terminal-3275475865-r1" x="24.4" y="166.4" textLength="24.4" clip-path="url(#terminal-3275475865-line-6)">&#160;E</text><text class="terminal-3275475865-r2" x="48.8" y="166.4" textLength="12.2" clip-path="url(#terminal-3275475865-line-6)">│</text><text class="terminal-3275475865-r5" x="85.4" y="166.4" textLength="719.8" clip-path="url(#terminal-3275475865-line-6)">Enter&#160;&#160;&#160;&#160;&#160;&#160;&#160;&#160;&#160;&#160;&#160;&#160;&#160;Fetch&#160;URL&#160;/&#160;activate&#160;focused&#160;confirmation</text><text class="terminal-3275475865-r2" x="915" y="166.4" textLength="12.2" clip-path="url(#terminal-3275475865-line-6)">│</text><text class="terminal-3275475865-r1" x="927.2" y="166.4" textLength="36.6" clip-path="url(#terminal-3275475865-line-6)">───</text><text class="terminal-3275475865-r1" x="963.8" y="166.4" textLength="12.2" clip-path="url(#terminal-3275475865-line-6)">┐</text><text class="terminal-3275475865-r3" x="976" y="166.4" textLength="12.2" clip-path="url(#terminal-3275475865-line-6)">
</text><text class="terminal-3275475865-r1" x="0" y="190.8" textLength="12.2" clip-path="url(#terminal-3275475865-line-7)">│</text><text class="terminal-3275475865-r4" x="12.2" y="190.8" textLength="36.6" clip-path="url(#terminal-3275475865-line-7)">tra</text><text class="terminal-3275475865-r2" x="48.8" y="190.8" textLength="12.2" clip-path="url(#terminal-3275475865-line-7)">│</text><text class="terminal-3275475865-r5" x="85.4" y="190.8" textLength="732" clip-path="url(#terminal-3275475865-line-7)">Escape&#160;&#160;&#160;&#160;&#160;&#160;&#160;&#160;&#160;&#160;&#160;&#160;Cancel&#160;pending&#160;confirmation&#160;/&#160;close&#160;dialog</text><text class="terminal-3275475865-r2" x="915" y="190.8" textLength="12.2" clip-path="url(#terminal-3275475865-line-7)">│</text><text class="terminal-3275475865-r1" x="963.8" y="190.8" textLength="12.2" clip-path="url(#terminal-3275475865-line-7)">│</text><text class="terminal-3275475865-r3" x="976" y="190.8" textLength="12.2" clip-path="url(#terminal-3275475865-line-7)">
</text><text class="terminal-3275475865-r1" x="0" y="215.2" textLength="12.2" clip-path="url(#terminal-3275475865-line-8)">└</text><text class="terminal-3275475865-r1" x="12.2" y="215.2" textLength="36.6" clip-path="url(#terminal-3275475865-line-8)">───</text><text class="terminal-3275475865-r2" x="48.8" y="215.2" textLength="12.2" clip-path="url(#terminal-3275475865-line-8)">│</text><text class="terminal-3275475865-r5" x="85.4" y="215.2" textLength="329.4" clip-path="url(#terminal-3275475865-line-8)">u&#160;&#160;&#160;&#160;&#160;&#160;&#160;&#160;&#160;&#160;&#160;&#160;&#160;&#160;&#160;&#160;&#160;Focus&#160;URL</text><text class="terminal-3275475865-r2" x="915" y="215.2" textLength="12.2" clip-path="url(#terminal-3275475865-line-8)">│</text><text class="terminal-3275475865-r1" x="927.2" y="215.2" textLength="36.6" clip-path="url(#terminal-3275475865-line-8)">───</text><text class="terminal-3275475865-r1" x="963.8" y="215.2" textLength="12.2" clip-path="url(#terminal-3275475865-line-8)">┘</text><text class="terminal-3275475865-r3" x="976" y="215.2" textLength="12.2" clip-path="url(#terminal-3275475865-line-8)">
</text><text class="terminal-3275475865-r7" x="12.2" y="239.6" textLength="36.6" clip-path="url(#terminal-3275475865-line-9)">Sum</text><text class="terminal-3275475865-r2" x="48.8" y="239.6" textLength="12.2" clip-path="url(#terminal-3275475865-line-9)">│</text><text class="terminal-3275475865-r5" x="85.4" y="239.6" textLength="695.4" clip-path="url(#terminal-3275475865-line-9)">f&#160;&#160;&#160;&#160;&#160;&#160;&#160;&#160;&#160;&#160;&#160;&#160;&#160;&#160;&#160;&#160;&#160;Toggle&#160;force&#160;refresh&#160;before&#160;preparation</text><text class="terminal-3275475865-r2" x="915" y="239.6" textLength="12.2" clip-path="url(#terminal-3275475865-line-9)">│</text><text class="terminal-3275475865-r3" x="976" y="239.6" textLength="12.2" clip-path="url(#terminal-3275475865-line-9)">
</text><text class="terminal-3275475865-r4" x="0" y="264" textLength="12.2" clip-path="url(#terminal-3275475865-line-10)">┌</text><text class="terminal-3275475865-r4" x="12.2" y="264" textLength="12.2" clip-path="url(#terminal-3275475865-line-10)">─</text><text class="terminal-3275475865-r4" x="24.4" y="264" textLength="24.4" clip-path="url(#terminal-3275475865-line-10)">&#160;&gt;</text><text class="terminal-3275475865-r2" x="48.8" y="264" textLength="12.2" clip-path="url(#terminal-3275475865-line-10)">│</text><text class="terminal-3275475865-r5" x="85.4" y="264" textLength="439.2" clip-path="url(#terminal-3275475865-line-10)">m&#160;&#160;&#160;&#160;&#160;&#160;&#160;&#160;&#160;&#160;&#160;&#160;&#160;&#160;&#160;&#160;&#160;Show/hide&#160;metadata</text><text class="terminal-3275475865-r2" x="915" y="264" textLength="12.2" clip-path="url(#terminal-3275475865-line-10)">│</text><text class="terminal-3275475865-r4" x="927.2" y="264" textLength="36.6" clip-path="url(#terminal-3275475865-line-10)">───</text><text class="terminal-3275475865-r4" x="963.8" y="264" textLength="12.2" clip-path="url(#terminal-3275475865-line-10)">┐</text><text class="terminal-3275475865-r3" x="976" y="264" textLength="12.2" clip-path="url(#terminal-3275475865-line-10)">
</text><text class="terminal-3275475865-r4" x="0" y="288.4" textLength="12.2" clip-path="url(#terminal-3275475865-line-11)">│</text><text class="terminal-3275475865-r4" x="24.4" y="288.4" textLength="24.4" clip-path="url(#terminal-3275475865-line-11)">Me</text><text class="terminal-3275475865-r2" x="48.8" y="288.4" textLength="12.2" clip-path="url(#terminal-3275475865-line-11)">│</text><text class="terminal-3275475865-r5" x="85.4" y="288.4" textLength="500.2" clip-path="url(#terminal-3275475865-line-11)">s&#160;&#160;&#160;&#160;&#160;&#160;&#160;&#160;&#160;&#160;&#160;&#160;&#160;&#160;&#160;&#160;&#160;Provider/model&#160;settings</text><text class="terminal-3275475865-r2" x="915" y="288.4" textLength="12.2" clip-path="url(#terminal-3275475865-line-11)">│</text><text class="terminal-3275475865-r4" x="963.8" y="288.4" textLength="12.2" clip-path="url(#terminal-3275475865-line-11)">│</text><text class="terminal-3275475865-r3" x="976" y="288.4" textLength="12.2" clip-path="url(#terminal-3275475865-line-11)">
</text><text class="terminal-3275475865-r4" x="0" y="312.8" textLength="12.2" clip-path="url(#terminal-3275475865-line-12)">│</text><text class="terminal-3275475865-r4" x="24.4" y="312.8" textLength="24.4" clip-path="url(#terminal-3275475865-line-12)">.y</text><text class="terminal-3275475865-r2" x="48.8" y="312.8" textLength="12.2" clip-path="url(#terminal-3275475865-line-12)">│</text><text class="terminal-3275475865-r5" x="85.4" y="312.8" textLength="646.6" clip-path="url(#terminal-3275475865-line-12)">1&#160;/&#160;2&#160;/&#160;3&#160;&#160;&#160;&#160;&#160;&#160;&#160;&#160;&#160;Summary&#160;/&#160;transcript&#160;/&#160;output&#160;paths</text><text class="terminal-3275475865-r2" x="915" y="312.8" textLength="12.2" clip-path="url(#terminal-3275475865-line-12)">│</text><text class="terminal-3275475865-r4" x="963.8" y="312.8" textLength="12.2" clip-path="url(#terminal-3275475865-line-12)">│</text><text class="terminal-3275475865-r3" x="976" y="312.8" textLength="12.2" clip-path="url(#terminal-3275475865-line-12)">
</text><text class="terminal-3275475865-r4" x="0" y="337.2" textLength="12.2" clip-path="url(#terminal-3275475865-line-13)">│</text><text class="terminal-3275475865-r4" x="24.4" y="337.2" textLength="24.4" clip-path="url(#terminal-3275475865-line-13)">-l</text><text class="terminal-3275475865-r2" x="48.8" y="337.2" textLength="12.2" clip-path="url(#terminal-3275475865-line-13)">│</text><text class="terminal-3275475865-r5" x="85.4" y="337.2" textLength="622.2" clip-path="url(#terminal-3275475865-line-13)">Arrows&#160;/&#160;j&#160;/&#160;k&#160;&#160;&#160;&#160;Navigate&#160;or&#160;scroll&#160;outside&#160;inputs</text><text class="terminal-3275475865-r2" x="915" y="337.2" textLength="12.2" clip-path="url(#terminal-3275475865-line-13)">│</text><text class="terminal-3275475865-r4" x="963.8" y="337.2" textLength="12.2" clip-path="url(#terminal-3275475865-line-13)">│</text><text class="terminal-3275475865-r3" x="976" y="337.2" textLength="12.2" clip-path="url(#terminal-3275475865-line-13)">
</text><text class="terminal-3275475865-r4" x="0" y="361.6" textLength="12.2" clip-path="url(#terminal-3275475865-line-14)">│</text><text class="terminal-3275475865-r4" x="24.4" y="361.6" textLength="24.4" clip-path="url(#terminal-3275475865-line-14)">/d</text><text class="terminal-3275475865-r2" x="48.8" y="361.6" textLength="12.2" clip-path="url(#terminal-3275475865-line-14)">│</text><text class="terminal-3275475865-r5" x="85.4" y="361.6" textLength="329.4" clip-path="url(#terminal-3275475865-line-14)">?&#160;&#160;&#160;&#160;&#160;&#160;&#160;&#160;&#160;&#160;&#160;&#160;&#160;&#160;&#160;&#160;&#160;This&#160;help</text><text class="terminal-3275475865-r2" x="915" y="361.6" textLength="12.2" clip-path="url(#terminal-3275475865-line-14)">│</text><text class="terminal-3275475865-r4" x="963.8" y="361.6" textLength="12.2" clip-path="url(#terminal-3275475865-line-14)">│</text><text class="terminal-3275475865-r3" x="976" y="361.6" textLength="12.2" clip-path="url(#terminal-3275475865-line-14)">
</text><text class="terminal-3275475865-r4" x="0" y="386" textLength="12.2" clip-path="url(#terminal-3275475865-line-15)">│</text><text class="terminal-3275475865-r4" x="24.4" y="386" textLength="24.4" clip-path="url(#terminal-3275475865-line-15)">Au</text><text class="terminal-3275475865-r2" x="48.8" y="386" textLength="12.2" clip-path="url(#terminal-3275475865-line-15)">│</text><text class="terminal-3275475865-r5" x="85.4" y="386" textLength="268.4" clip-path="url(#terminal-3275475865-line-15)">Ctrl+Q&#160;&#160;&#160;&#160;&#160;&#160;&#160;&#160;&#160;&#160;&#160;&#160;Quit</text><text class="terminal-3275475865-r2" x="915" y="386" textLength="12.2" clip-path="url(#terminal-3275475865-line-15)">│</text><text class="terminal-3275475865-r4" x="963.8" y="386" textLength="12.2" clip-path="url(#terminal-3275475865-line-15)">│</text><text class="terminal-3275475865-r3" x="976" y="386" textLength="12.2" clip-path="url(#terminal-3275475865-line-15)">
</text><text class="terminal-3275475865-r4" x="0" y="410.4" textLength="12.2" clip-path="url(#terminal-3275475865-line-16)">│</text><text class="terminal-3275475865-r4" x="24.4" y="410.4" textLength="24.4" clip-path="url(#terminal-3275475865-line-16)">.y</text><text class="terminal-3275475865-r2" x="48.8" y="410.4" textLength="12.2" clip-path="url(#terminal-3275475865-line-16)">│</text><text class="terminal-3275475865-r2" x="915" y="410.4" textLength="12.2" clip-path="url(#terminal-3275475865-line-16)">│</text><text class="terminal-3275475865-r8" x="939.4" y="410.4" textLength="24.4" clip-path="url(#terminal-3275475865-line-16)">▇▇</text><text class="terminal-3275475865-r4" x="963.8" y="410.4" textLength="12.2" clip-path="url(#terminal-3275475865-line-16)">│</text><text class="terminal-3275475865-r3" x="976" y="410.4" textLength="12.2" clip-path="url(#terminal-3275475865-line-16)">
</text><text class="terminal-3275475865-r4" x="0" y="434.8" textLength="12.2" clip-path="url(#terminal-3275475865-line-17)">│</text><text class="terminal-3275475865-r4" x="24.4" y="434.8" textLength="24.4" clip-path="url(#terminal-3275475865-line-17)">-l</text><text class="terminal-3275475865-r2" x="48.8" y="434.8" textLength="12.2" clip-path="url(#terminal-3275475865-line-17)">│</text><text class="terminal-3275475865-r5" x="85.4" y="434.8" textLength="512.4" clip-path="url(#terminal-3275475865-line-17)">Shortcuts&#160;are&#160;inactive&#160;while&#160;editing&#160;text.</text><text class="terminal-3275475865-r2" x="915" y="434.8" textLength="12.2" clip-path="url(#terminal-3275475865-line-17)">│</text><text class="terminal-3275475865-r4" x="963.8" y="434.8" textLength="12.2" clip-path="url(#terminal-3275475865-line-17)">│</text><text class="terminal-3275475865-r3" x="976" y="434.8" textLength="12.2" clip-path="url(#terminal-3275475865-line-17)">
</text><text class="terminal-3275475865-r4" x="0" y="459.2" textLength="12.2" clip-path="url(#terminal-3275475865-line-18)">│</text><text class="terminal-3275475865-r4" x="24.4" y="459.2" textLength="24.4" clip-path="url(#terminal-3275475865-line-18)">/d</text><text class="terminal-3275475865-r2" x="48.8" y="459.2" textLength="12.2" clip-path="url(#terminal-3275475865-line-18)">│</text><text class="terminal-3275475865-r5" x="85.4" y="459.2" textLength="427" clip-path="url(#terminal-3275475865-line-18)">Escape&#160;does&#160;not&#160;stop&#160;pipeline&#160;work.</text><text class="terminal-3275475865-r2" x="915" y="459.2" textLength="12.2" clip-path="url(#terminal-3275475865-line-18)">│</text><text class="terminal-3275475865-r4" x="963.8" y="459.2" textLength="12.2" clip-path="url(#terminal-3275475865-line-18)">│</text><text class="terminal-3275475865-r3" x="976" y="459.2" textLength="12.2" clip-path="url(#terminal-3275475865-line-18)">
</text><text class="terminal-3275475865-r4" x="0" y="483.6" textLength="12.2" clip-path="url(#terminal-3275475865-line-19)">│</text><text class="terminal-3275475865-r4" x="24.4" y="483.6" textLength="24.4" clip-path="url(#terminal-3275475865-line-19)">Tr</text><text class="terminal-3275475865-r2" x="48.8" y="483.6" textLength="12.2" clip-path="url(#terminal-3275475865-line-19)">│</text><text class="terminal-3275475865-r2" x="915" y="483.6" textLength="12.2" clip-path="url(#terminal-3275475865-line-19)">│</text><text class="terminal-3275475865-r4" x="963.8" y="483.6" textLength="12.2" clip-path="url(#terminal-3275475865-line-19)">│</text><text class="terminal-3275475865-r3" x="976" y="483.6" textLength="12.2" clip-path="url(#terminal-3275475865-line-19)">
</text><text class="terminal-3275475865-r4" x="0" y="508" textLength="12.2" clip-path="url(#terminal-3275475865-line-20)">│</text><text class="terminal-3275475865-r4" x="24.4" y="508" textLength="24.4" clip-path="url(#terminal-3275475865-line-20)">.y</text><text class="terminal-3275475865-r2" x="48.8" y="508" textLength="12.2" clip-path="url(#terminal-3275475865-line-20)">│</text><text class="terminal-3275475865-r5" x="85.4" y="508" textLength="195.2" clip-path="url(#terminal-3275475865-line-20)">Escape&#160;to&#160;return</text><text class="terminal-3275475865-r2" x="915" y="508" textLength="12.2" clip-path="url(#terminal-3275475865-line-20)">│</text><text class="terminal-3275475865-r4" x="963.8" y="508" textLength="12.2" clip-path="url(#terminal-3275475865-line-20)">│</text><text class="terminal-3275475865-r3" x="976" y="508" textLength="12.2" clip-path="url(#terminal-3275475865-line-20)">
</text><text class="terminal-3275475865-r4" x="0" y="532.4" textLength="12.2" clip-path="url(#terminal-3275475865-line-21)">│</text><text class="terminal-3275475865-r4" x="24.4" y="532.4" textLength="24.4" clip-path="url(#terminal-3275475865-line-21)">-l</text><text class="terminal-3275475865-r2" x="48.8" y="532.4" textLength="12.2" clip-path="url(#terminal-3275475865-line-21)">│</text><text class="terminal-3275475865-r2" x="915" y="532.4" textLength="12.2" clip-path="url(#terminal-3275475865-line-21)">│</text><text class="terminal-3275475865-r4" x="963.8" y="532.4" textLength="12.2" clip-path="url(#terminal-3275475865-line-21)">│</text><text class="terminal-3275475865-r3" x="976" y="532.4" textLength="12.2" clip-path="url(#terminal-3275475865-line-21)">
</text><text class="terminal-3275475865-r4" x="0" y="556.8" textLength="12.2" clip-path="url(#terminal-3275475865-line-22)">└</text><text class="terminal-3275475865-r4" x="12.2" y="556.8" textLength="36.6" clip-path="url(#terminal-3275475865-line-22)">───</text><text class="terminal-3275475865-r2" x="48.8" y="556.8" textLength="12.2" clip-path="url(#terminal-3275475865-line-22)">└</text><text class="terminal-3275475865-r2" x="61" y="556.8" textLength="854" clip-path="url(#terminal-3275475865-line-22)">──────────────────────────────────────────────────────────────────────</text><text class="terminal-3275475865-r2" x="915" y="556.8" textLength="12.2" clip-path="url(#terminal-3275475865-line-22)">┘</text><text class="terminal-3275475865-r4" x="927.2" y="556.8" textLength="36.6" clip-path="url(#terminal-3275475865-line-22)">───</text><text class="terminal-3275475865-r4" x="963.8" y="556.8" textLength="12.2" clip-path="url(#terminal-3275475865-line-22)">┘</text><text class="terminal-3275475865-r3" x="976" y="556.8" textLength="12.2" clip-path="url(#terminal-3275475865-line-22)">
</text><text class="terminal-3275475865-r9" x="12.2" y="581.2" textLength="854" clip-path="url(#terminal-3275475865-line-23)">u&#160;URL&#160;&#160;f&#160;force&#160;&#160;s&#160;settings&#160;&#160;m&#160;video&#160;|&#160;1/2/3&#160;views&#160;&#160;?&#160;help&#160;&#160;Ctrl+Q&#160;quit</text>
    </g>
    </g>
</svg>
