<svg class="rich-terminal" viewBox="0 0 994 635.5999999999999" xmlns="http://www.w3.org/2000/svg">
    <!-- Generated with Rich https://www.textualize.io -->
    <style>

    @font-face {
        font-family: "Fira Code";
        src: local("FiraCode-Regular"),
                url("https://cdnjs.cloudflare.com/ajax/libs/firacode/6.2.0/woff2/FiraCode-Regular.woff2") format("woff2"),
                url("https://cdnjs.cloudflare.com/ajax/libs/firacode/6.2.0/woff/FiraCode-Regular.woff") format("woff");
        font-style: normal;
        font-weight: 400;
    }
    @font-face {
        font-family: "Fira Code";
        src: local("FiraCode-Bold"),
                url("https://cdnjs.cloudflare.com/ajax/libs/firacode/6.2.0/woff2/FiraCode-Bold.woff2") format("woff2"),
                url("https://cdnjs.cloudflare.com/ajax/libs/firacode/6.2.0/woff/FiraCode-Bold.woff") format("woff");
        font-style: bold;
        font-weight: 700;
    }

    .terminal-3833454578-matrix {
        font-family: Fira Code, monospace;
        font-size: 20px;
        line-height: 24.4px;
        font-variant-east-asian: full-width;
    }

    .terminal-3833454578-title {
        font-size: 18px;
        font-weight: bold;
        font-family: arial;
    }

    .terminal-3833454578-r1 { fill: #c5c8c6 }
.terminal-3833454578-r2 { fill: #e0e0e0 }
.terminal-3833454578-r3 { fill: #e1e1e1 }
.terminal-3833454578-r4 { fill: #272727;font-weight: bold }
.terminal-3833454578-r5 { fill: #757575 }
.terminal-3833454578-r6 { fill: #e0e0e0;font-weight: bold }
.terminal-3833454578-r7 { fill: #e1e1e1;font-weight: bold }
    </style>

    <defs>
    <clipPath id="terminal-3833454578-clip-terminal">
      <rect x="0" y="0" width="975.0" height="584.5999999999999" />
    </clipPath>
    <clipPath id="terminal-3833454578-line-0">
    <rect x="0" y="1.5" width="976" height="24.65"/>
            </clipPath>
<clipPath id="terminal-3833454578-line-1">
    <rect x="0" y="25.9" width="976" height="24.65"/>
            </clipPath>
<clipPath id="terminal-3833454578-line-2">
    <rect x="0" y="50.3" width="976" height="24.65"/>
            </clipPath>
<clipPath id="terminal-3833454578-line-3">
    <rect x="0" y="74.7" width="976" height="24.65"/>
            </clipPath>
<clipPath id="terminal-3833454578-line-4">
    <rect x="0" y="99.1" width="976" height="24.65"/>
            </clipPath>
<clipPath id="terminal-3833454578-line-5">
    <rect x="0" y="123.5" width="976" height="24.65"/>
            </clipPath>
<clipPath id="terminal-3833454578-line-6">
    <rect x="0" y="147.9" width="976" height="24.65"/>
            </clipPath>
<clipPath id="terminal-3833454578-line-7">
    <rect x="0" y="172.3" width="976" height="24.65"/>
            </clipPath>
<clipPath id="terminal-3833454578-line-8">
    <rect x="0" y="196.7" width="976" height="24.65"/>
            </clipPath>
<clipPath id="terminal-3833454578-line-9">
    <rect x="0" y="221.1" width="976" height="24.65"/>
            </clipPath>
<clipPath id="terminal-3833454578-line-10">
    <rect x="0" y="245.5" width="976" height="24.65"/>
            </clipPath>
<clipPath id="terminal-3833454578-line-11">
    <rect x="0" y="269.9" width="976" height="24.65"/>
            </clipPath>
<clipPath id="terminal-3833454578-line-12">
    <rect x="0" y="294.3" width="976" height="24.65"/>
            </clipPath>
<clipPath id="terminal-3833454578-line-13">
    <rect x="0" y="318.7" width="976" height="24.65"/>
            </clipPath>
<clipPath id="terminal-3833454578-line-14">
    <rect x="0" y="343.1" width="976" height="24.65"/>
            </clipPath>
<clipPath id="terminal-3833454578-line-15">
    <rect x="0" y="367.5" width="976" height="24.65"/>
            </clipPath>
<clipPath id="terminal-3833454578-line-16">
    <rect x="0" y="391.9" width="976" height="24.65"/>
            </clipPath>
<clipPath id="terminal-3833454578-line-17">
    <rect x="0" y="416.3" width="976" height="24.65"/>
            </clipPath>
<clipPath id="terminal-3833454578-line-18">
    <rect x="0" y="440.7" width="976" height="24.65"/>
            </clipPath>
<clipPath id="terminal-3833454578-line-19">
    <rect x="0" y="465.1" width="976" height="24.65"/>
            </clipPath>
<clipPath id="terminal-3833454578-line-20">
    <rect x="0" y="489.5" width="976" height="24.65"/>
            </clipPath>
<clipPath id="terminal-3833454578-line-21">
    <rect x="0" y="513.9" width="976" height="24.65"/>
            </clipPath>
<clipPath id="terminal-3833454578-line-22">
    <rect x="0" y="538.3" width="976" height="24.65"/>
            </clipPath>
    </defs>

    <rect fill="#292929" stroke="rgba(255,255,255,0.35)" stroke-width="1" x="1" y="1" width="992" height="633.6" rx="8"/><text class="terminal-3833454578-title" fill="#c5c8c6" text-anchor="middle" x="496" y="27">yt-smzr</text>
            <g transform="translate(26,22)">
            <circle cx="0" cy="0" r="7" fill="#ff5f57"/>
            <circle cx="22" cy="0" r="7" fill="#febc2e"/>
            <circle cx="44" cy="0" r="7" fill="#28c840"/>
            </g>
        
    <g transform="translate(9, 41)" clip-path="url(#terminal-3833454578-clip-terminal)">
    <rect fill="#121212" x="0" y="1.5" width="48.8" height="24.65" shape-rendering="crispEdges"/><rect fill="#1e1e1e" x="48.8" y="1.5" width="12.2" height="24.65" shape-rendering="crispEdges"/><rect fill="#1e1e1e" x="61" y="1.5" width="854" height="24.65" shape-rendering="crispEdges"/><rect fill="#1e1e1e" x="915" y="1.5" width="12.2" height="24.65" shape-rendering="crispEdges"/><rect fill="#121212" x="927.2" y="1.5" width="48.8" height="24.65" shape-rendering="crispEdges"/><rect fill="#121212" x="0" y="25.9" width="48.8" height="24.65" shape-rendering="crispEdges"/><rect fill="#1e1e1e" x="48.8" y="25.9" width="12.2" height="24.65" shape-rendering="crispEdges"/><rect fill="#1e1e1e" x="61" y="25.9" width="12.2" height="24.65" shape-rendering="crispEdges"/><rect fill="#1e1e1e" x="73.2" y="25.9" width="268.4" height="24.65" shape-rendering="crispEdges"/><rect fill="#1e1e1e" x="341.6" y="25.9" width="561.2" height="24.65" shape-rendering="crispEdges"/><rect fill="#1e1e1e" x="902.8" y="25.9" width="12.2" height="24.65" shape-rendering="crispEdges"/><rect fill="#1e1e1e" x="915" y="25.9" width="12.2" height="24.65" shape-rendering="crispEdges"/><rect fill="#121212" x="927.2" y="25.9" width="48.8" height="24.65" shape-rendering="crispEdges"/><rect fill="#121212" x="0" y="50.3" width="48.8" height="24.65" shape-rendering="crispEdges"/><rect fill="#1e1e1e" x="48.8" y="50.3" width="12.2" height="24.65" shape-rendering="crispEdges"/><rect fill="#1e1e1e" x="61" y="50.3" width="12.2" height="24.65" shape-rendering="crispEdges"/><rect fill="#272727" x="73.2" y="50.3" width="12.2" height="24.65" shape-rendering="crispEdges"/><rect fill="#272727" x="85.4" y="50.3" width="805.2" height="24.65" shape-rendering="crispEdges"/><rect fill="#272727" x="890.6" y="50.3" width="12.2" height="24.65" shape-rendering="crispEdges"/><rect fill="#1e1e1e" x="902.8" y="50.3" width="12.2" height="24.65" shape-rendering="crispEdges"/><rect fill="#1e1e1e" x="915" y="50.3" width="12.2" height="24.65" shape-rendering="crispEdges"/><rect fill="#121212" x="927.2" y="50.3" width="48.8" height="24.65" shape-rendering="crispEdges"/><rect fill="#121212" x="0" y="74.7" width="48.8" height="24.65" shape-rendering="crispEdges"/><rect fill="#1e1e1e" x="48.8" y="74.7" width="12.2" height="24.65" shape-rendering="crispEdges"/><rect fill="#1e1e1e" x="61" y="74.7" width="12.2" height="24.65" shape-rendering="crispEdges"/><rect fill="#272727" x="73.2" y="74.7" width="12.2" height="24.65" shape-rendering="crispEdges"/><rect fill="#272727" x="85.4" y="74.7" width="24.4" height="24.65" shape-rendering="crispEdges"/><rect fill="#e0e0e0" x="109.8" y="74.7" width="73.2" height="24.65" shape-rendering="crispEdges"/><rect fill="#272727" x="183" y="74.7" width="658.8" height="24.65" shape-rendering="crispEdges"/><rect fill="#272727" x="841.8" y="74.7" width="12.2" height="24.65" shape-rendering="crispEdges"/><rect fill="#838383" x="854" y="74.7" width="12.2" height="24.65" shape-rendering="crispEdges"/><rect fill="#272727" x="866.2" y="74.7" width="24.4" height="24.65" shape-rendering="crispEdges"/><rect fill="#272727" x="890.6" y="74.7" width="12.2" height="24.65" shape-rendering="crispEdges"/><rect fill="#1e1e1e" x="902.8" y="74.7" width="12.2" height="24.65" shape-rendering="crispEdges"/><rect fill="#1e1e1e" x="915" y="74.7" width="12.2" height="24.65" shape-rendering="crispEdges"/><rect fill="#121212" x="927.2" y="74.7" width="48.8" height="24.65" shape-rendering="crispEdges"/><rect fill="#121212" x="0" y="99.1" width="48.8" height="24.65" shape-rendering="crispEdges"/><rect fill="#1e1e1e" x="48.8" y="99.1" width="12.2" height="24.65" shape-rendering="crispEdges"/><rect fill="#1e1e1e" x="61" y="99.1" width="12.2" height="24.65" shape-rendering="crispEdges"/><rect fill="#272727" x="73.2" y="99.1" width="12.2" height="24.65" shape-rendering="crispEdges"/><rect fill="#272727" x="85.4" y="99.1" width="805.2" height="24.65" shape-rendering="crispEdges"/><rect fill="#272727" x="890.6" y="99.1" width="12.2" height="24.65" shape-rendering="crispEdges"/><rect fill="#1e1e1e" x="902.8" y="99.1" width="12.2" height="24.65" shape-rendering="crispEdges"/><rect fill="#1e1e1e" x="915" y="99.1" width="12.2" height="24.65" shape-rendering="crispEdges"/><rect fill="#121212" x="927.2" y="99.1" width="48.8" height="24.65" shape-rendering="crispEdges"/><rect fill="#121212" x="0" y="123.5" width="48.8" height="24.65" shape-rendering="crispEdges"/><rect fill="#1e1e1e" x="48.8" y="123.5" width="12.2" height="24.65" shape-rendering="crispEdges"/><rect fill="#1e1e1e" x="61" y="123.5" width="12.2" height="24.65" shape-rendering="crispEdges"/><rect fill="#1e1e1e" x="73.2" y="123.5" width="488" height="24.65" shape-rendering="crispEdges"/><rect fill="#1e1e1e" x="561.2" y="123.5" width="341.6" height="24.65" shape-rendering="crispEdges"/><rect fill="#1e1e1e" x="902.8" y="123.5" width="12.2" height="24.65" shape-rendering="crispEdges"/><rect fill="#1e1e1e" x="915" y="123.5" width="12.2" height="24.65" shape-rendering="crispEdges"/><rect fill="#121212" x="927.2" y="123.5" width="48.8" height="24.65" shape-rendering="crispEdges"/><rect fill="#121212" x="0" y="147.9" width="48.8" height="24.65" shape-rendering="crispEdges"/><rect fill="#1e1e1e" x="48.8" y="147.9" width="12.2" height="24.65" shape-rendering="crispEdges"/><rect fill="#1e1e1e" x="61" y="147.9" width="12.2" height="24.65" shape-rendering="crispEdges"/><rect fill="#1e1e1e" x="73.2" y="147.9" width="12.2" height="24.65" shape-rendering="crispEdges"/><rect fill="#1e1e1e" x="85.4" y="147.9" width="805.2" height="24.65" shape-rendering="crispEdges"/><rect fill="#1e1e1e" x="890.6" y="147.9" width="12.2" height="24.65" shape-rendering="crispEdges"/><rect fill="#1e1e1e" x="902.8" y="147.9" width="12.2" height="24.65" shape-rendering="crispEdges"/><rect fill="#1e1e1e" x="915" y="147.9" width="12.2" height="24.65" shape-rendering="crispEdges"/><rect fill="#121212" x="927.2" y="147.9" width="48.8" height="24.65" shape-rendering="crispEdges"/><rect fill="#121212" x="0" y="172.3" width="48.8" height="24.65" shape-rendering="crispEdges"/><rect fill="#1e1e1e" x="48.8" y="172.3" width="12.2" height="24.65" shape-rendering="crispEdges"/><rect fill="#1e1e1e" x="61" y="172.3" width="12.2" height="24.65" shape-rendering="crispEdges"/><rect fill="#1e1e1e" x="73.2" y="172.3" width="12.2" height="24.65" shape-rendering="crispEdges"/><rect fill="#1e1e1e" x="85.4" y="172.3" width="12.2" height="24.65" shape-rendering="crispEdges"/><rect fill="#1e1e1e" x="97.6" y="172.3" width="97.6" height="24.65" shape-rendering="crispEdges"/><rect fill="#1e1e1e" x="195.2" y="172.3" width="683.2" height="24.65" shape-rendering="crispEdges"/><rect fill="#1e1e1e" x="878.4" y="172.3" width="12.2" height="24.65" shape-rendering="crispEdges"/><rect fill="#1e1e1e" x="890.6" y="172.3" width="12.2" height="24.65" shape-rendering="crispEdges"/><rect fill="#1e1e1e" x="902.8" y="172.3" width="12.2" height="24.65" shape-rendering="crispEdges"/><rect fill="#1e1e1e" x="915" y="172.3" width="12.2" height="24.65" shape-rendering="crispEdges"/><rect fill="#121212" x="927.2" y="172.3" width="48.8" height="24.65" shape-rendering="crispEdges"/><rect fill="#121212" x="0" y="196.7" width="48.8" height="24.65" shape-rendering="crispEdges"/><rect fill="#1e1e1e" x="48.8" y="196.7" width="12.2" height="24.65" shape-rendering="crispEdges"/><rect fill="#1e1e1e" x="61" y="196.7" width="12.2" height="24.65" shape-rendering="crispEdges"/><rect fill="#1e1e1e" x="73.2" y="196.7" width="12.2" height="24.65" shape-rendering="crispEdges"/><rect fill="#1e1e1e" x="85.4" y="196.7" width="805.2" height="24.65" shape-rendering="crispEdges"/><rect fill="#1e1e1e" x="890.6" y="196.7" width="12.2" height="24.65" shape-rendering="crispEdges"/><rect fill="#1e1e1e" x="902.8" y="196.7" width="12.2" height="24.65" shape-rendering="crispEdges"/><rect fill="#1e1e1e" x="915" y="196.7" width="12.2" height="24.65" shape-rendering="crispEdges"/><rect fill="#121212" x="927.2" y="196.7" width="48.8" height="24.65" shape-rendering="crispEdges"/><rect fill="#121212" x="0" y="221.1" width="48.8" height="24.65" shape-rendering="crispEdges"/><rect fill="#1e1e1e" x="48.8" y="221.1" width="12.2" height="24.65" shape-rendering="crispEdges"/><rect fill="#1e1e1e" x="61" y="221.1" width="12.2" height="24.65" shape-rendering="crispEdges"/><rect fill="#1e1e1e" x="73.2" y="221.1" width="292.8" height="24.65" shape-rendering="crispEdges"/><rect fill="#1e1e1e" x="366" y="221.1" width="536.8" height="24.65" shape-rendering="crispEdges"/><rect fill="#1e1e1e" x="902.8" y="221.1" width="12.2" height="24.65" shape-rendering="crispEdges"/><rect fill="#1e1e1e" x="915" y="221.1" width="12.2" height="24.65" shape-rendering="crispEdges"/><rect fill="#121212" x="927.2" y="221.1" width="48.8" height="24.65" shape-rendering="crispEdges"/><rect fill="#121212" x="0" y="245.5" width="48.8" height="24.65" shape-rendering="crispEdges"/><rect fill="#1e1e1e" x="48.8" y="245.5" width="12.2" height="24.65" shape-rendering="crispEdges"/><rect fill="#1e1e1e" x="61" y="245.5" width="12.2" height="24.65" shape-rendering="crispEdges"/><rect fill="#1e1e1e" x="73.2" y="245.5" width="12.2" height="24.65" shape-rendering="crispEdges"/><rect fill="#1e1e1e" x="85.4" y="245.5" width="805.2" height="24.65" shape-rendering="crispEdges"/><rect fill="#1e1e1e" x="890.6" y="245.5" width="12.2" height="24.65" shape-rendering="crispEdges"/><rect fill="#1e1e1e" x="902.8" y="245.5" width="12.2" height="24.65" shape-rendering="crispEdges"/><rect fill="#1e1e1e" x="915" y="245.5" width="12.2" height="24.65" shape-rendering="crispEdges"/><rect fill="#121212" x="927.2" y="245.5" width="48.8" height="24.65" shape-rendering="crispEdges"/><rect fill="#121212" x="0" y="269.9" width="48.8" height="24.65" shape-rendering="crispEdges"/><rect fill="#1e1e1e" x="48.8" y="269.9" width="12.2" height="24.65" shape-rendering="crispEdges"/><rect fill="#1e1e1e" x="61" y="269.9" width="12.2" height="24.65" shape-rendering="crispEdges"/><rect fill="#1e1e1e" x="73.2" y="269.9" width="12.2" height="24.65" shape-rendering="crispEdges"/><rect fill="#1e1e1e" x="85.4" y="269.9" width="12.2" height="24.65" shape-rendering="crispEdges"/><rect fill="#1e1e1e" x="97.6" y="269.9" width="268.4" height="24.65" shape-rendering="crispEdges"/><rect fill="#1e1e1e" x="366" y="269.9" width="512.4" height="24.65" shape-rendering="crispEdges"/><rect fill="#1e1e1e" x="878.4" y="269.9" width="12.2" height="24.65" shape-rendering="crispEdges"/><rect fill="#1e1e1e" x="890.6" y="269.9" width="12.2" height="24.65" shape-rendering="crispEdges"/><rect fill="#1e1e1e" x="902.8" y="269.9" width="12.2" height="24.65" shape-rendering="crispEdges"/><rect fill="#1e1e1e" x="915" y="269.9" width="12.2" height="24.65" shape-rendering="crispEdges"/><rect fill="#121212" x="927.2" y="269.9" width="48.8" height="24.65" shape-rendering="crispEdges"/><rect fill="#121212" x="0" y="294.3" width="48.8" height="24.65" shape-rendering="crispEdges"/><rect fill="#1e1e1e" x="48.8" y="294.3" width="12.2" height="24.65" shape-rendering="crispEdges"/><rect fill="#1e1e1e" x="61" y="294.3" width="12.2" height="24.65" shape-rendering="crispEdges"/><rect fill="#1e1e1e" x="73.2" y="294.3" width="12.2" height="24.65" shape-rendering="crispEdges"/><rect fill="#1e1e1e" x="85.4" y="294.3" width="805.2" height="24.65" shape-rendering="crispEdges"/><rect fill="#1e1e1e" x="890.6" y="294.3" width="12.2" height="24.65" shape-rendering="crispEdges"/><rect fill="#1e1e1e" x="902.8" y="294.3" width="12.2" height="24.65" shape-rendering="crispEdges"/><rect fill="#1e1e1e" x="915" y="294.3" width="12.2" height="24.65" shape-rendering="crispEdges"/><rect fill="#121212" x="927.2" y="294.3" width="48.8" height="24.65" shape-rendering="crispEdges"/><rect fill="#121212" x="0" y="318.7" width="48.8" height="24.65" shape-rendering="crispEdges"/><rect fill="#1e1e1e" x="48.8" y="318.7" width="12.2" height="24.65" shape-rendering="crispEdges"/><rect fill="#1e1e1e" x="61" y="318.7" width="12.2" height="24.65" shape-rendering="crispEdges"/><rect fill="#1e1e1e" x="73.2" y="318.7" width="317.2" height="24.65" shape-rendering="crispEdges"/><rect fill="#1e1e1e" x="390.4" y="318.7" width="512.4" height="24.65" shape-rendering="crispEdges"/><rect fill="#1e1e1e" x="902.8" y="318.7" width="12.2" height="24.65" shape-rendering="crispEdges"/><rect fill="#1e1e1e" x="915" y="318.7" width="12.2" height="24.65" shape-rendering="crispEdges"/><rect fill="#121212" x="927.2" y="318.7" width="48.8" height="24.65" shape-rendering="crispEdges"/><rect fill="#121212" x="0" y="343.1" width="48.8" height="24.65" shape-rendering="crispEdges"/><rect fill="#1e1e1e" x="48.8" y="343.1" width="12.2" height="24.65" shape-rendering="crispEdges"/><rect fill="#1e1e1e" x="61" y="343.1" width="12.2" height="24.65" shape-rendering="crispEdges"/><rect fill="#1e1e1e" x="73.2" y="343.1" width="12.2" height="24.65" shape-rendering="crispEdges"/><rect fill="#1e1e1e" x="85.4" y="343.1" width="805.2" height="24.65" shape-rendering="crispEdges"/><rect fill="#1e1e1e" x="890.6" y="343.1" width="12.2" height="24.65" shape-rendering="crispEdges"/><rect fill="#1e1e1e" x="902.8" y="343.1" width="12.2" height="24.65" shape-rendering="crispEdges"/><rect fill="#1e1e1e" x="915" y="343.1" width="12.2" height="24.65" shape-rendering="crispEdges"/><rect fill="#121212" x="927.2" y="343.1" width="48.8" height="24.65" shape-rendering="crispEdges"/><rect fill="#121212" x="0" y="367.5" width="48.8" height="24.65" shape-rendering="crispEdges"/><rect fill="#1e1e1e" x="48.8" y="367.5" width="12.2" height="24.65" shape-rendering="crispEdges"/><rect fill="#1e1e1e" x="61" y="367.5" width="12.2" height="24.65" shape-rendering="crispEdges"/><rect fill="#1e1e1e" x="73.2" y="367.5" width="12.2" height="24.65" shape-rendering="crispEdges"/><rect fill="#1e1e1e" x="85.4" y="367.5" width="12.2" height="24.65" shape-rendering="crispEdges"/><rect fill="#1e1e1e" x="97.6" y="367.5" width="36.6" height="24.65" shape-rendering="crispEdges"/><rect fill="#1e1e1e" x="134.2" y="367.5" width="744.2" height="24.65" shape-rendering="crispEdges"/><rect fill="#1e1e1e" x="878.4" y="367.5" width="12.2" height="24.65" shape-rendering="crispEdges"/><rect fill="#1e1e1e" x="890.6" y="367.5" width="12.2" height="24.65" shape-rendering="crispEdges"/><rect fill="#1e1e1e" x="902.8" y="367.5" width="12.2" height="24.65" shape-rendering="crispEdges"/><rect fill="#1e1e1e" x="915" y="367.5" width="12.2" height="24.65" shape-rendering="crispEdges"/><rect fill="#121212" x="927.2" y="367.5" width="48.8" height="24.65" shape-rendering="crispEdges"/><rect fill="#121212" x="0" y="391.9" width="48.8" height="24.65" shape-rendering="crispEdges"/><rect fill="#1e1e1e" x="48.8" y="391.9" width="12.2" height="24.65" shape-rendering="crispEdges"/><rect fill="#1e1e1e" x="61" y="391.9" width="12.2" height="24.65" shape-rendering="crispEdges"/><rect fill="#1e1e1e" x="73.2" y="391.9" width="12.2" height="24.65" shape-rendering="crispEdges"/><rect fill="#1e1e1e" x="85.4" y="391.9" width="805.2" height="24.65" shape-rendering="crispEdges"/><rect fill="#1e1e1e" x="890.6" y="391.9" width="12.2" height="24.65" shape-rendering="crispEdges"/><rect fill="#1e1e1e" x="902.8" y="391.9" width="12.2" height="24.65" shape-rendering="crispEdges"/><rect fill="#1e1e1e" x="915" y="391.9" width="12.2" height="24.65" shape-rendering="crispEdges"/><rect fill="#121212" x="927.2" y="391.9" width="48.8" height="24.65" shape-rendering="crispEdges"/><rect fill="#121212" x="0" y="416.3" width="48.8" height="24.65" shape-rendering="crispEdges"/><rect fill="#1e1e1e" x="48.8" y="416.3" width="12.2" height="24.65" shape-rendering="crispEdges"/><rect fill="#1e1e1e" x="61" y="416.3" width="12.2" height="24.65" shape-rendering="crispEdges"/><rect fill="#1e1e1e" x="73.2" y="416.3" width="12.2" height="24.65" shape-rendering="crispEdges"/><rect fill="#1e1e1e" x="85.4" y="416.3" width="195.2" height="24.65" shape-rendering="crispEdges"/><rect fill="#1e1e1e" x="280.6" y="416.3" width="12.2" height="24.65" shape-rendering="crispEdges"/><rect fill="#1e1e1e" x="292.8" y="416.3" width="610" height="24.65" shape-rendering="crispEdges"/><rect fill="#1e1e1e" x="902.8" y="416.3" width="12.2" height="24.65" shape-rendering="crispEdges"/><rect fill="#1e1e1e" x="915" y="416.3" width="12.2" height="24.65" shape-rendering="crispEdges"/><rect fill="#121212" x="927.2" y="416.3" width="48.8" height="24.65" shape-rendering="crispEdges"/><rect fill="#121212" x="0" y="440.7" width="48.8" height="24.65" shape-rendering="crispEdges"/><rect fill="#1e1e1e" x="48.8" y="440.7" width="12.2" height="24.65" shape-rendering="crispEdges"/><rect fill="#1e1e1e" x="61" y="440.7" width="12.2" height="24.65" shape-rendering="crispEdges"/><rect fill="#1e1e1e" x="73.2" y="440.7" width="683.2" height="24.65" shape-rendering="crispEdges"/><rect fill="#1e1e1e" x="756.4" y="440.7" width="146.4" height="24.65" shape-rendering="crispEdges"/><rect fill="#1e1e1e" x="902.8" y="440.7" width="12.2" height="24.65" shape-rendering="crispEdges"/><rect fill="#1e1e1e" x="915" y="440.7" width="12.2" height="24.65" shape-rendering="crispEdges"/><rect fill="#121212" x="927.2" y="440.7" width="48.8" height="24.65" shape-rendering="crispEdges"/><rect fill="#121212" x="0" y="465.1" width="48.8" height="24.65" shape-rendering="crispEdges"/><rect fill="#1e1e1e" x="48.8" y="465.1" width="12.2" height="24.65" shape-rendering="crispEdges"/><rect fill="#1e1e1e" x="61" y="465.1" width="12.2" height="24.65" shape-rendering="crispEdges"/><rect fill="#1e1e1e" x="73.2" y="465.1" width="780.8" height="24.65" shape-rendering="crispEdges"/><rect fill="#1e1e1e" x="854" y="465.1" width="48.8" height="24.65" shape-rendering="crispEdges"/><rect fill="#1e1e1e" x="902.8" y="465.1" width="12.2" height="24.65" shape-rendering="crispEdges"/><rect fill="#1e1e1e" x="915" y="465.1" width="12.2" height="24.65" shape-rendering="crispEdges"/><rect fill="#121212" x="927.2" y="465.1" width="48.8" height="24.65" shape-rendering="crispEdges"/><rect fill="#121212" x="0" y="489.5" width="48.8" height="24.65" shape-rendering="crispEdges"/><rect fill="#1e1e1e" x="48.8" y="489.5" width="12.2" height="24.65" shape-rendering="crispEdges"/><rect fill="#1e1e1e" x="61" y="489.5" width="12.2" height="24.65" shape-rendering="crispEdges"/><rect fill="#1e1e1e" x="73.2" y="489.5" width="780.8" height="24.65" shape-rendering="crispEdges"/><rect fill="#1e1e1e" x="854" y="489.5" width="48.8" height="24.65" shape-rendering="crispEdges"/><rect fill="#1e1e1e" x="902.8" y="489.5" width="12.2" height="24.65" shape-rendering="crispEdges"/><rect fill="#1e1e1e" x="915" y="489.5" width="12.2" height="24.65" shape-rendering="crispEdges"/><rect fill="#121212" x="927.2" y="489.5" width="48.8" height="24.65" shape-rendering="crispEdges"/><rect fill="#121212" x="0" y="513.9" width="48.8" height="24.65" shape-rendering="crispEdges"/><rect fill="#1e1e1e" x="48.8" y="513.9" width="12.2" height="24.65" shape-rendering="crispEdges"/><rect fill="#1e1e1e" x="61" y="513.9" width="12.2" height="24.65" shape-rendering="crispEdges"/><rect fill="#1e1e1e" x="73.2" y="513.9" width="12.2" height="24.65" shape-rendering="crispEdges"/><rect fill="#1e1e1e" x="85.4" y="513.9" width="85.4" height="24.65" shape-rendering="crispEdges"/><rect fill="#1e1e1e" x="170.8" y="513.9" width="12.2" height="24.65" shape-rendering="crispEdges"/><rect fill="#1e1e1e" x="183" y="513.9" width="12.2" height="24.65" shape-rendering="crispEdges"/><rect fill="#1e1e1e" x="195.2" y="513.9" width="12.2" height="24.65" shape-rendering="crispEdges"/><rect fill="#1e1e1e" x="207.4" y="513.9" width="12.2" height="24.65" shape-rendering="crispEdges"/><rect fill="#1e1e1e" x="219.6" y="513.9" width="12.2" height="24.65" shape-rendering="crispEdges"/><rect fill="#1e1e1e" x="231.8" y="513.9" width="73.2" height="24.65" shape-rendering="crispEdges"/><rect fill="#1e1e1e" x="305" y="513.9" width="12.2" height="24.65" shape-rendering="crispEdges"/><rect fill="#1e1e1e" x="317.2" y="513.9" width="12.2" height="24.65" shape-rendering="crispEdges"/><rect fill="#1e1e1e" x="329.4" y="513.9" width="12.2" height="24.65" shape-rendering="crispEdges"/><rect fill="#1e1e1e" x="341.6" y="513.9" width="12.2" height="24.65" shape-rendering="crispEdges"/><rect fill="#1e1e1e" x="353.8" y="513.9" width="97.6" height="24.65" shape-rendering="crispEdges"/><rect fill="#1e1e1e" x="451.4" y="513.9" width="12.2" height="24.65" shape-rendering="crispEdges"/><rect fill="#1e1e1e" x="463.6" y="513.9" width="439.2" height="24.65" shape-rendering="crispEdges"/><rect fill="#1e1e1e" x="902.8" y="513.9" width="12.2" height="24.65" shape-rendering="crispEdges"/><rect fill="#1e1e1e" x="915" y="513.9" width="12.2" height="24.65" shape-rendering="crispEdges"/><rect fill="#121212" x="927.2" y="513.9" width="48.8" height="24.65" shape-rendering="crispEdges"/><rect fill="#121212" x="0" y="538.3" width="48.8" height="24.65" shape-rendering="crispEdges"/><rect fill="#1e1e1e" x="48.8" y="538.3" width="12.2" height="24.65" shape-rendering="crispEdges"/><rect fill="#1e1e1e" x="61" y="538.3" width="854" height="24.65" shape-rendering="crispEdges"/><rect fill="#1e1e1e" x="915" y="538.3" width="12.2" height="24.65" shape-rendering="crispEdges"/><rect fill="#121212" x="927.2" y="538.3" width="48.8" height="24.65" shape-rendering="crispEdges"/><rect fill="#121212" x="0" y="562.7" width="976" height="24.65" shape-rendering="crispEdges"/>
    <g class="terminal-3833454578-matrix">
    <text class="terminal-3833454578-r2" x="48.8" y="20" textLength="12.2" clip-path="url(#terminal-3833454578-line-0)">┌</text><text class="terminal-3833454578-r2" x="61" y="20" textLength="854" clip-path="url(#terminal-3833454578-line-0)">──────────────────────────────────────────────────────────────────────</text><text class="terminal-3833454578-r2" x="915" y="20" textLength="12.2" clip-path="url(#terminal-3833454578-line-0)">┐</text><text class="terminal-3833454578-r1" x="976" y="20" textLength="12.2" clip-path="url(#terminal-3833454578-line-0)">
</text><text class="terminal-3833454578-r2" x="48.8" y="44.4" textLength="12.2" clip-path="url(#terminal-3833454578-line-1)">│</text><text class="terminal-3833454578-r3" x="73.2" y="44.4" textLength="268.4" clip-path="url(#terminal-3833454578-line-1)">Summarization&#160;settings</text><text class="terminal-3833454578-r2" x="915" y="44.4" textLength="12.2" clip-path="url(#terminal-3833454578-line-1)">│</text><text class="terminal-3833454578-r1" x="976" y="44.4" textLength="12.2" clip-path="url(#terminal-3833454578-line-1)">
</text><text class="terminal-3833454578-r2" x="48.8" y="68.8" textLength="12.2" clip-path="url(#terminal-3833454578-line-2)">│</text><text class="terminal-3833454578-r2" x="73.2" y="68.8" textLength="12.2" clip-path="url(#terminal-3833454578-line-2)">┌</text><text class="terminal-3833454578-r2" x="85.4" y="68.8" textLength="805.2" clip-path="url(#terminal-3833454578-line-2)">──────────────────────────────────────────────────────────────────</text><text class="terminal-3833454578-r2" x="890.6" y="68.8" textLength="12.2" clip-path="url(#terminal-3833454578-line-2)">┐</text><text class="terminal-3833454578-r2" x="915" y="68.8" textLength="12.2" clip-path="url(#terminal-3833454578-line-2)">│</text><text class="terminal-3833454578-r1" x="976" y="68.8" textLength="12.2" clip-path="url(#terminal-3833454578-line-2)">
</text><text class="terminal-3833454578-r2" x="48.8" y="93.2" textLength="12.2" clip-path="url(#terminal-3833454578-line-3)">│</text><text class="terminal-3833454578-r2" x="73.2" y="93.2" textLength="12.2" clip-path="url(#terminal-3833454578-line-3)">│</text><text class="terminal-3833454578-r4" x="109.8" y="93.2" textLength="73.2" clip-path="url(#terminal-3833454578-line-3)">ollama</text><text class="terminal-3833454578-r4" x="854" y="93.2" textLength="12.2" clip-path="url(#terminal-3833454578-line-3)">▼</text><text class="terminal-3833454578-r2" x="890.6" y="93.2" textLength="12.2" clip-path="url(#terminal-3833454578-line-3)">│</text><text class="terminal-3833454578-r2" x="915" y="93.2" textLength="12.2" clip-path="url(#terminal-3833454578-line-3)">│</text><text class="terminal-3833454578-r1" x="976" y="93.2" textLength="12.2" clip-path="url(#terminal-3833454578-line-3)">
</text><text class="terminal-3833454578-r2" x="48.8" y="117.6" textLength="12.2" clip-path="url(#terminal-3833454578-line-4)">│</text><text class="terminal-3833454578-r2" x="73.2" y="117.6" textLength="12.2" clip-path="url(#terminal-3833454578-line-4)">└</text><text class="terminal-3833454578-r2" x="85.4" y="117.6" textLength="805.2" clip-path="url(#terminal-3833454578-line-4)">──────────────────────────────────────────────────────────────────</text><text class="terminal-3833454578-r2" x="890.6" y="117.6" textLength="12.2" clip-path="url(#terminal-3833454578-line-4)">┘</text><text class="terminal-3833454578-r2" x="915" y="117.6" textLength="12.2" clip-path="url(#terminal-3833454578-line-4)">│</text><text class="terminal-3833454578-r1" x="976" y="117.6" textLength="12.2" clip-path="url(#terminal-3833454578-line-4)">
</text><text class="terminal-3833454578-r2" x="48.8" y="142" textLength="12.2" clip-path="url(#terminal-3833454578-line-5)">│</text><text class="terminal-3833454578-r3" x="73.2" y="142" textLength="488" clip-path="url(#terminal-3833454578-line-5)">Model,&#160;explicit&#160;installed&#160;tag&#160;for&#160;Ollama</text><text class="terminal-3833454578-r2" x="915" y="142" textLength="12.2" clip-path="url(#terminal-3833454578-line-5)">│</text><text class="terminal-3833454578-r1" x="976" y="142" textLength="12.2" clip-path="url(#terminal-3833454578-line-5)">
</text><text class="terminal-3833454578-r2" x="48.8" y="166.4" textLength="12.2" clip-path="url(#terminal-3833454578-line-6)">│</text><text class="terminal-3833454578-r5" x="73.2" y="166.4" textLength="12.2" clip-path="url(#terminal-3833454578-line-6)">┌</text><text class="terminal-3833454578-r5" x="85.4" y="166.4" textLength="805.2" clip-path="url(#terminal-3833454578-line-6)">──────────────────────────────────────────────────────────────────</text><text class="terminal-3833454578-r5" x="890.6" y="166.4" textLength="12.2" clip-path="url(#terminal-3833454578-line-6)">┐</text><text class="terminal-3833454578-r2" x="915" y="166.4" textLength="12.2" clip-path="url(#terminal-3833454578-line-6)">│</text><text class="terminal-3833454578-r1" x="976" y="166.4" textLength="12.2" clip-path="url(#terminal-3833454578-line-6)">
</text><text class="terminal-3833454578-r2" x="48.8" y="190.8" textLength="12.2" clip-path="url(#terminal-3833454578-line-7)">│</text><text class="terminal-3833454578-r5" x="73.2" y="190.8" textLength="12.2" clip-path="url(#terminal-3833454578-line-7)">│</text><text class="terminal-3833454578-r2" x="97.6" y="190.8" textLength="97.6" clip-path="url(#terminal-3833454578-line-7)">qwen3:8b</text><text class="terminal-3833454578-r5" x="890.6" y="190.8" textLength="12.2" clip-path="url(#terminal-3833454578-line-7)">│</text><text class="terminal-3833454578-r2" x="915" y="190.8" textLength="12.2" clip-path="url(#terminal-3833454578-line-7)">│</text><text class="terminal-3833454578-r1" x="976" y="190.8" textLength="12.2" clip-path="url(#terminal-3833454578-line-7)">
</text><text class="terminal-3833454578-r2" x="48.8" y="215.2" textLength="12.2" clip-path="url(#terminal-3833454578-line-8)">│</text><text class="terminal-3833454578-r5" x="73.2" y="215.2" textLength="12.2" clip-path="url(#terminal-3833454578-line-8)">└</text><text class="terminal-3833454578-r5" x="85.4" y="215.2" textLength="805.2" clip-path="url(#terminal-3833454578-line-8)">──────────────────────────────────────────────────────────────────</text><text class="terminal-3833454578-r5" x="890.6" y="215.2" textLength="12.2" clip-path="url(#terminal-3833454578-line-8)">┘</text><text class="terminal-3833454578-r2" x="915" y="215.2" textLength="12.2" clip-path="url(#terminal-3833454578-line-8)">│</text><text class="terminal-3833454578-r1" x="976" y="215.2" textLength="12.2" clip-path="url(#terminal-3833454578-line-8)">
</text><text class="terminal-3833454578-r2" x="48.8" y="239.6" textLength="12.2" clip-path="url(#terminal-3833454578-line-9)">│</text><text class="terminal-3833454578-r3" x="73.2" y="239.6" textLength="292.8" clip-path="url(#terminal-3833454578-line-9)">Ollama&#160;HTTP/HTTPS&#160;server</text><text class="terminal-3833454578-r2" x="915" y="239.6" textLength="12.2" clip-path="url(#terminal-3833454578-line-9)">│</text><text class="terminal-3833454578-r1" x="976" y="239.6" textLength="12.2" clip-path="url(#terminal-3833454578-line-9)">
</text><text class="terminal-3833454578-r2" x="48.8" y="264" textLength="12.2" clip-path="url(#terminal-3833454578-line-10)">│</text><text class="terminal-3833454578-r5" x="73.2" y="264" textLength="12.2" clip-path="url(#terminal-3833454578-line-10)">┌</text><text class="terminal-3833454578-r5" x="85.4" y="264" textLength="805.2" clip-path="url(#terminal-3833454578-line-10)">──────────────────────────────────────────────────────────────────</text><text class="terminal-3833454578-r5" x="890.6" y="264" textLength="12.2" clip-path="url(#terminal-3833454578-line-10)">┐</text><text class="terminal-3833454578-r2" x="915" y="264" textLength="12.2" clip-path="url(#terminal-3833454578-line-10)">│</text><text class="terminal-3833454578-r1" x="976" y="264" textLength="12.2" clip-path="url(#terminal-3833454578-line-10)">
</text><text class="terminal-3833454578-r2" x="48.8" y="288.4" textLength="12.2" clip-path="url(#terminal-3833454578-line-11)">│</text><text class="terminal-3833454578-r5" x="73.2" y="288.4" textLength="12.2" clip-path="url(#terminal-3833454578-line-11)">│</text><text class="terminal-3833454578-r2" x="97.6" y="288.4" textLength="268.4" clip-path="url(#terminal-3833454578-line-11)">http://localhost:11434</text><text class="terminal-3833454578-r5" x="890.6" y="288.4" textLength="12.2" clip-path="url(#terminal-3833454578-line-11)">│</text><text class="terminal-3833454578-r2" x="915" y="288.4" textLength="12.2" clip-path="url(#terminal-3833454578-line-11)">│</text><text class="terminal-3833454578-r1" x="976" y="288.4" textLength="12.2" clip-path="url(#terminal-3833454578-line-11)">
</text><text class="terminal-3833454578-r2" x="48.8" y="312.8" textLength="12.2" clip-path="url(#terminal-3833454578-line-12)">│</text><text class="terminal-3833454578-r5" x="73.2" y="312.8" textLength="12.2" clip-path="url(#terminal-3833454578-line-12)">└</text><text class="terminal-3833454578-r5" x="85.4" y="312.8" textLength="805.2" clip-path="url(#terminal-3833454578-line-12)">──────────────────────────────────────────────────────────────────</text><text class="terminal-3833454578-r5" x="890.6" y="312.8" textLength="12.2" clip-path="url(#terminal-3833454578-line-12)">┘</text><text class="terminal-3833454578-r2" x="915" y="312.8" textLength="12.2" clip-path="url(#terminal-3833454578-line-12)">│</text><text class="terminal-3833454578-r1" x="976" y="312.8" textLength="12.2" clip-path="url(#terminal-3833454578-line-12)">
</text><text class="terminal-3833454578-r2" x="48.8" y="337.2" textLength="12.2" clip-path="url(#terminal-3833454578-line-13)">│</text><text class="terminal-3833454578-r3" x="73.2" y="337.2" textLength="317.2" clip-path="url(#terminal-3833454578-line-13)">Request&#160;timeout&#160;in&#160;seconds</text><text class="terminal-3833454578-r2" x="915" y="337.2" textLength="12.2" clip-path="url(#terminal-3833454578-line-13)">│</text><text class="terminal-3833454578-r1" x="976" y="337.2" textLength="12.2" clip-path="url(#terminal-3833454578-line-13)">
</text><text class="terminal-3833454578-r2" x="48.8" y="361.6" textLength="12.2" clip-path="url(#terminal-3833454578-line-14)">│</text><text class="terminal-3833454578-r5" x="73.2" y="361.6" textLength="12.2" clip-path="url(#terminal-3833454578-line-14)">┌</text><text class="terminal-3833454578-r5" x="85.4" y="361.6" textLength="805.2" clip-path="url(#terminal-3833454578-line-14)">──────────────────────────────────────────────────────────────────</text><text class="terminal-3833454578-r5" x="890.6" y="361.6" textLength="12.2" clip-path="url(#terminal-3833454578-line-14)">┐</text><text class="terminal-3833454578-r2" x="915" y="361.6" textLength="12.2" clip-path="url(#terminal-3833454578-line-14)">│</text><text class="terminal-3833454578-r1" x="976" y="361.6" textLength="12.2" clip-path="url(#terminal-3833454578-line-14)">
</text><text class="terminal-3833454578-r2" x="48.8" y="386" textLength="12.2" clip-path="url(#terminal-3833454578-line-15)">│</text><text class="terminal-3833454578-r5" x="73.2" y="386" textLength="12.2" clip-path="url(#terminal-3833454578-line-15)">│</text><text class="terminal-3833454578-r2" x="97.6" y="386" textLength="36.6" clip-path="url(#terminal-3833454578-line-15)">120</text><text class="terminal-3833454578-r5" x="890.6" y="386" textLength="12.2" clip-path="url(#terminal-3833454578-line-15)">│</text><text class="terminal-3833454578-r2" x="915" y="386" textLength="12.2" clip-path="url(#terminal-3833454578-line-15)">│</text><text class="terminal-3833454578-r1" x="976" y="386" textLength="12.2" clip-path="url(#terminal-3833454578-line-15)">
</text><text class="terminal-3833454578-r2" x="48.8" y="410.4" textLength="12.2" clip-path="url(#terminal-3833454578-line-16)">│</text><text class="terminal-3833454578-r5" x="73.2" y="410.4" textLength="12.2" clip-path="url(#terminal-3833454578-line-16)">└</text><text class="terminal-3833454578-r5" x="85.4" y="410.4" textLength="805.2" clip-path="url(#terminal-3833454578-line-16)">──────────────────────────────────────────────────────────────────</text><text class="terminal-3833454578-r5" x="890.6" y="410.4" textLength="12.2" clip-path="url(#terminal-3833454578-line-16)">┘</text><text class="terminal-3833454578-r2" x="915" y="410.4" textLength="12.2" clip-path="url(#terminal-3833454578-line-16)">│</text><text class="terminal-3833454578-r1" x="976" y="410.4" textLength="12.2" clip-path="url(#terminal-3833454578-line-16)">
</text><text class="terminal-3833454578-r2" x="48.8" y="434.8" textLength="12.2" clip-path="url(#terminal-3833454578-line-17)">│</text><text class="terminal-3833454578-r6" x="85.4" y="434.8" textLength="195.2" clip-path="url(#terminal-3833454578-line-17)">&#160;Refresh&#160;models&#160;</text><text class="terminal-3833454578-r2" x="915" y="434.8" textLength="12.2" clip-path="url(#terminal-3833454578-line-17)">│</text><text class="terminal-3833454578-r1" x="976" y="434.8" textLength="12.2" clip-path="url(#terminal-3833454578-line-17)">
</text><text class="terminal-3833454578-r2" x="48.8" y="459.2" textLength="12.2" clip-path="url(#terminal-3833454578-line-18)">│</text><text class="terminal-3833454578-r3" x="73.2" y="459.2" textLength="683.2" clip-path="url(#terminal-3833454578-line-18)">Refresh&#160;lists&#160;installed&#160;models;&#160;manual&#160;entry&#160;is&#160;allowed.</text><text class="terminal-3833454578-r2" x="915" y="459.2" textLength="12.2" clip-path="url(#terminal-3833454578-line-18)">│</text><text class="terminal-3833454578-r1" x="976" y="459.2" textLength="12.2" clip-path="url(#terminal-3833454578-line-18)">
</text><text class="terminal-3833454578-r2" x="48.8" y="483.6" textLength="12.2" clip-path="url(#terminal-3833454578-line-19)">│</text><text class="terminal-3833454578-r3" x="73.2" y="483.6" textLength="780.8" clip-path="url(#terminal-3833454578-line-19)">Environment&#160;overrides&#160;after&#160;restart:&#160;YT_SMZR_SUMMARIZATION_MODEL</text><text class="terminal-3833454578-r2" x="915" y="483.6" textLength="12.2" clip-path="url(#terminal-3833454578-line-19)">│</text><text class="terminal-3833454578-r1" x="976" y="483.6" textLength="12.2" clip-path="url(#terminal-3833454578-line-19)">
</text><text class="terminal-3833454578-r2" x="48.8" y="508" textLength="12.2" clip-path="url(#terminal-3833454578-line-20)">│</text><text class="terminal-3833454578-r3" x="73.2" y="508" textLength="780.8" clip-path="url(#terminal-3833454578-line-20)">Apply&#160;changes&#160;subsequent&#160;runs.&#160;Save&#160;also&#160;writes&#160;~/.yt-smzr.toml.</text><text class="terminal-3833454578-r2" x="915" y="508" textLength="12.2" clip-path="url(#terminal-3833454578-line-20)">│</text><text class="terminal-3833454578-r1" x="976" y="508" textLength="12.2" clip-path="url(#terminal-3833454578-line-20)">
</text><text class="terminal-3833454578-r2" x="48.8" y="532.4" textLength="12.2" clip-path="url(#terminal-3833454578-line-21)">│</text><text class="terminal-3833454578-r7" x="85.4" y="532.4" textLength="85.4" clip-path="url(#terminal-3833454578-line-21)">&#160;Apply&#160;</text><text class="terminal-3833454578-r6" x="231.8" y="532.4" textLength="73.2" clip-path="url(#terminal-3833454578-line-21)">&#160;Save&#160;</text><text class="terminal-3833454578-r6" x="353.8" y="532.4" textLength="97.6" clip-path="url(#terminal-3833454578-line-21)">&#160;Cancel&#160;</text><text class="terminal-3833454578-r2" x="915" y="532.4" textLength="12.2" clip-path="url(#terminal-3833454578-line-21)">│</text><text class="terminal-3833454578-r1" x="976" y="532.4" textLength="12.2" clip-path="url(#terminal-3833454578-line-21)">
</text><text class="terminal-3833454578-r2" x="48.8" y="556.8" textLength="12.2" clip-path="url(#terminal-3833454578-line-22)">└</text><text class="terminal-3833454578-r2" x="61" y="556.8" textLength="854" clip-path="url(#terminal-3833454578-line-22)">──────────────────────────────────────────────────────────────────────</text><text class="terminal-3833454578-r2" x="915" y="556.8" textLength="12.2" clip-path="url(#terminal-3833454578-line-22)">┘</text><text class="terminal-3833454578-r1" x="976" y="556.8" textLength="12.2" clip-path="url(#terminal-3833454578-line-22)">
</text>
    </g>
    </g>
</svg>
