<svg class="rich-terminal" viewBox="0 0 994 635.5999999999999" xmlns="http://www.w3.org/2000/svg">
    <!-- Generated with Rich https://www.textualize.io -->
    <style>

    @font-face {
        font-family: "Fira Code";
        src: local("FiraCode-Regular"),
                url("https://cdnjs.cloudflare.com/ajax/libs/firacode/6.2.0/woff2/FiraCode-Regular.woff2") format("woff2"),
                url("https://cdnjs.cloudflare.com/ajax/libs/firacode/6.2.0/woff/FiraCode-Regular.woff") format("woff");
        font-style: normal;
        font-weight: 400;
    }
    @font-face {
        font-family: "Fira Code";
        src: local("FiraCode-Bold"),
                url("https://cdnjs.cloudflare.com/ajax/libs/firacode/6.2.0/woff2/FiraCode-Bold.woff2") format("woff2"),
                url("https://cdnjs.cloudflare.com/ajax/libs/firacode/6.2.0/woff/FiraCode-Bold.woff") format("woff");
        font-style: bold;
        font-weight: 700;
    }

    .terminal-475909741-matrix {
        font-family: Fira Code, monospace;
        font-size: 20px;
        line-height: 24.4px;
        font-variant-east-asian: full-width;
    }

    .terminal-475909741-title {
        font-size: 18px;
        font-weight: bold;
        font-family: arial;
    }

    .terminal-475909741-r1 { fill: #727272 }
.terminal-475909741-r2 { fill: #c5c8c6 }
.terminal-475909741-r3 { fill: #ffffff }
.terminal-475909741-r4 { fill: #ffffff;font-weight: bold }
.terminal-475909741-r5 { fill: #444444 }
.terminal-475909741-r6 { fill: #232323 }
.terminal-475909741-r7 { fill: #dddddd }
.terminal-475909741-r8 { fill: #000000 }
.terminal-475909741-r9 { fill: #7f7f7f }
.terminal-475909741-r10 { fill: #dddddd;font-weight: bold }
    </style>

    <defs>
    <clipPath id="terminal-475909741-clip-terminal">
      <rect x="0" y="0" width="975.0" height="584.5999999999999" />
    </clipPath>
    <clipPath id="terminal-475909741-line-0">
    <rect x="0" y="1.5" width="976" height="24.65"/>
            </clipPath>
<clipPath id="terminal-475909741-line-1">
    <rect x="0" y="25.9" width="976" height="24.65"/>
            </clipPath>
<clipPath id="terminal-475909741-line-2">
    <rect x="0" y="50.3" width="976" height="24.65"/>
            </clipPath>
<clipPath id="terminal-475909741-line-3">
    <rect x="0" y="74.7" width="976" height="24.65"/>
            </clipPath>
<clipPath id="terminal-475909741-line-4">
    <rect x="0" y="99.1" width="976" height="24.65"/>
            </clipPath>
<clipPath id="terminal-475909741-line-5">
    <rect x="0" y="123.5" width="976" height="24.65"/>
            </clipPath>
<clipPath id="terminal-475909741-line-6">
    <rect x="0" y="147.9" width="976" height="24.65"/>
            </clipPath>
<clipPath id="terminal-475909741-line-7">
    <rect x="0" y="172.3" width="976" height="24.65"/>
            </clipPath>
<clipPath id="terminal-475909741-line-8">
    <rect x="0" y="196.7" width="976" height="24.65"/>
            </clipPath>
<clipPath id="terminal-475909741-line-9">
    <rect x="0" y="221.1" width="976" height="24.65"/>
            </clipPath>
<clipPath id="terminal-475909741-line-10">
    <rect x="0" y="245.5" width="976" height="24.65"/>
            </clipPath>
<clipPath id="terminal-475909741-line-11">
    <rect x="0" y="269.9" width="976" height="24.65"/>
            </clipPath>
<clipPath id="terminal-475909741-line-12">
    <rect x="0" y="294.3" width="976" height="24.65"/>
            </clipPath>
<clipPath id="terminal-475909741-line-13">
    <rect x="0" y="318.7" width="976" height="24.65"/>
            </clipPath>
<clipPath id="terminal-475909741-line-14">
    <rect x="0" y="343.1" width="976" height="24.65"/>
            </clipPath>
<clipPath id="terminal-475909741-line-15">
    <rect x="0" y="367.5" width="976" height="24.65"/>
            </clipPath>
<clipPath id="terminal-475909741-line-16">
    <rect x="0" y="391.9" width="976" height="24.65"/>
            </clipPath>
<clipPath id="terminal-475909741-line-17">
    <rect x="0" y="416.3" width="976" height="24.65"/>
            </clipPath>
<clipPath id="terminal-475909741-line-18">
    <rect x="0" y="440.7" width="976" height="24.65"/>
            </clipPath>
<clipPath id="terminal-475909741-line-19">
    <rect x="0" y="465.1" width="976" height="24.65"/>
            </clipPath>
<clipPath id="terminal-475909741-line-20">
    <rect x="0" y="489.5" width="976" height="24.65"/>
            </clipPath>
<clipPath id="terminal-475909741-line-21">
    <rect x="0" y="513.9" width="976" height="24.65"/>
            </clipPath>
<clipPath id="terminal-475909741-line-22">
    <rect x="0" y="538.3" width="976" height="24.65"/>
            </clipPath>
    </defs>

    <rect fill="#292929" stroke="rgba(255,255,255,0.35)" stroke-width="1" x="1" y="1" width="992" height="633.6" rx="8"/><text class="terminal-475909741-title" fill="#c5c8c6" text-anchor="middle" x="496" y="27">yt-smzr</text>
            <g transform="translate(26,22)">
            <circle cx="0" cy="0" r="7" fill="#ff5f57"/>
            <circle cx="22" cy="0" r="7" fill="#febc2e"/>
            <circle cx="44" cy="0" r="7" fill="#28c840"/>
            </g>
        
    <g transform="translate(9, 41)" clip-path="url(#terminal-475909741-clip-terminal)">
    <rect fill="#000000" x="0" y="1.5" width="12.2" height="24.65" shape-rendering="crispEdges"/><rect fill="#000000" x="12.2" y="1.5" width="597.8" height="24.65" shape-rendering="crispEdges"/><rect fill="#000000" x="610" y="1.5" width="12.2" height="24.65" shape-rendering="crispEdges"/><rect fill="#000000" x="622.2" y="1.5" width="353.8" height="24.65" shape-rendering="crispEdges"/><rect fill="#000000" x="0" y="25.9" width="12.2" height="24.65" shape-rendering="crispEdges"/><rect fill="#000000" x="12.2" y="25.9" width="12.2" height="24.65" shape-rendering="crispEdges"/><rect fill="#000000" x="24.4" y="25.9" width="341.6" height="24.65" shape-rendering="crispEdges"/><rect fill="#000000" x="366" y="25.9" width="231.8" height="24.65" shape-rendering="crispEdges"/><rect fill="#000000" x="597.8" y="25.9" width="12.2" height="24.65" shape-rendering="crispEdges"/><rect fill="#000000" x="610" y="25.9" width="12.2" height="24.65" shape-rendering="crispEdges"/><rect fill="#000000" x="622.2" y="25.9" width="12.2" height="24.65" shape-rendering="crispEdges"/><rect fill="#000000" x="634.4" y="25.9" width="85.4" height="24.65" shape-rendering="crispEdges"/><rect fill="#000000" x="719.8" y="25.9" width="12.2" height="24.65" shape-rendering="crispEdges"/><rect fill="#000000" x="732" y="25.9" width="12.2" height="24.65" shape-rendering="crispEdges"/><rect fill="#444444" x="744.2" y="25.9" width="12.2" height="24.65" shape-rendering="crispEdges"/><rect fill="#000000" x="756.4" y="25.9" width="12.2" height="24.65" shape-rendering="crispEdges"/><rect fill="#000000" x="768.6" y="25.9" width="183" height="24.65" shape-rendering="crispEdges"/><rect fill="#000000" x="951.6" y="25.9" width="24.4" height="24.65" shape-rendering="crispEdges"/><rect fill="#000000" x="0" y="50.3" width="12.2" height="24.65" shape-rendering="crispEdges"/><rect fill="#000000" x="12.2" y="50.3" width="597.8" height="24.65" shape-rendering="crispEdges"/><rect fill="#000000" x="610" y="50.3" width="12.2" height="24.65" shape-rendering="crispEdges"/><rect fill="#000000" x="622.2" y="50.3" width="353.8" height="24.65" shape-rendering="crispEdges"/><rect fill="#000000" x="0" y="74.7" width="12.2" height="24.65" shape-rendering="crispEdges"/><rect fill="#000000" x="12.2" y="74.7" width="256.2" height="24.65" shape-rendering="crispEdges"/><rect fill="#000000" x="268.4" y="74.7" width="695.4" height="24.65" shape-rendering="crispEdges"/><rect fill="#000000" x="963.8" y="74.7" width="12.2" height="24.65" shape-rendering="crispEdges"/><rect fill="#000000" x="0" y="99.1" width="12.2" height="24.65" shape-rendering="crispEdges"/><rect fill="#000000" x="12.2" y="99.1" width="622.2" height="24.65" shape-rendering="crispEdges"/><rect fill="#000000" x="634.4" y="99.1" width="329.4" height="24.65" shape-rendering="crispEdges"/><rect fill="#000000" x="963.8" y="99.1" width="12.2" height="24.65" shape-rendering="crispEdges"/><rect fill="#000000" x="0" y="123.5" width="12.2" height="24.65" shape-rendering="crispEdges"/><rect fill="#000000" x="12.2" y="123.5" width="951.6" height="24.65" shape-rendering="crispEdges"/><rect fill="#000000" x="963.8" y="123.5" width="12.2" height="24.65" shape-rendering="crispEdges"/><rect fill="#000000" x="0" y="147.9" width="12.2" height="24.65" shape-rendering="crispEdges"/><rect fill="#000000" x="12.2" y="147.9" width="12.2" height="24.65" shape-rendering="crispEdges"/><rect fill="#000000" x="24.4" y="147.9" width="97.6" height="24.65" shape-rendering="crispEdges"/><rect fill="#000000" x="122" y="147.9" width="841.8" height="24.65" shape-rendering="crispEdges"/><rect fill="#000000" x="963.8" y="147.9" width="12.2" height="24.65" shape-rendering="crispEdges"/><rect fill="#000000" x="0" y="172.3" width="12.2" height="24.65" shape-rendering="crispEdges"/><rect fill="#000000" x="12.2" y="172.3" width="427" height="24.65" shape-rendering="crispEdges"/><rect fill="#000000" x="439.2" y="172.3" width="500.2" height="24.65" shape-rendering="crispEdges"/><rect fill="#666666" x="939.4" y="172.3" width="24.4" height="24.65" shape-rendering="crispEdges"/><rect fill="#000000" x="963.8" y="172.3" width="12.2" height="24.65" shape-rendering="crispEdges"/><rect fill="#000000" x="0" y="196.7" width="12.2" height="24.65" shape-rendering="crispEdges"/><rect fill="#000000" x="12.2" y="196.7" width="951.6" height="24.65" shape-rendering="crispEdges"/><rect fill="#000000" x="963.8" y="196.7" width="12.2" height="24.65" shape-rendering="crispEdges"/><rect fill="#000000" x="0" y="221.1" width="12.2" height="24.65" shape-rendering="crispEdges"/><rect fill="#000000" x="12.2" y="221.1" width="85.4" height="24.65" shape-rendering="crispEdges"/><rect fill="#000000" x="97.6" y="221.1" width="12.2" height="24.65" shape-rendering="crispEdges"/><rect fill="#000000" x="109.8" y="221.1" width="12.2" height="24.65" shape-rendering="crispEdges"/><rect fill="#000000" x="122" y="221.1" width="122" height="24.65" shape-rendering="crispEdges"/><rect fill="#000000" x="244" y="221.1" width="12.2" height="24.65" shape-rendering="crispEdges"/><rect fill="#000000" x="256.2" y="221.1" width="12.2" height="24.65" shape-rendering="crispEdges"/><rect fill="#000000" x="268.4" y="221.1" width="146.4" height="24.65" shape-rendering="crispEdges"/><rect fill="#000000" x="414.8" y="221.1" width="12.2" height="24.65" shape-rendering="crispEdges"/><rect fill="#000000" x="427" y="221.1" width="549" height="24.65" shape-rendering="crispEdges"/><rect fill="#000000" x="0" y="245.5" width="12.2" height="24.65" shape-rendering="crispEdges"/><rect fill="#000000" x="12.2" y="245.5" width="12.2" height="24.65" shape-rendering="crispEdges"/><rect fill="#000000" x="24.4" y="245.5" width="109.8" height="24.65" shape-rendering="crispEdges"/><rect fill="#000000" x="134.2" y="245.5" width="829.6" height="24.65" shape-rendering="crispEdges"/><rect fill="#000000" x="963.8" y="245.5" width="12.2" height="24.65" shape-rendering="crispEdges"/><rect fill="#000000" x="0" y="269.9" width="12.2" height="24.65" shape-rendering="crispEdges"/><rect fill="#000000" x="12.2" y="269.9" width="12.2" height="24.65" shape-rendering="crispEdges"/><rect fill="#000000" x="24.4" y="269.9" width="109.8" height="24.65" shape-rendering="crispEdges"/><rect fill="#000000" x="134.2" y="269.9" width="793" height="24.65" shape-rendering="crispEdges"/><rect fill="#000000" x="927.2" y="269.9" width="12.2" height="24.65" shape-rendering="crispEdges"/><rect fill="#666666" x="939.4" y="269.9" width="24.4" height="24.65" shape-rendering="crispEdges"/><rect fill="#000000" x="963.8" y="269.9" width="12.2" height="24.65" shape-rendering="crispEdges"/><rect fill="#000000" x="0" y="294.3" width="12.2" height="24.65" shape-rendering="crispEdges"/><rect fill="#000000" x="12.2" y="294.3" width="12.2" height="24.65" shape-rendering="crispEdges"/><rect fill="#000000" x="24.4" y="294.3" width="0" height="24.65" shape-rendering="crispEdges"/><rect fill="#000000" x="24.4" y="294.3" width="902.8" height="24.65" shape-rendering="crispEdges"/><rect fill="#000000" x="927.2" y="294.3" width="12.2" height="24.65" shape-rendering="crispEdges"/><rect fill="#666666" x="939.4" y="294.3" width="24.4" height="24.65" shape-rendering="crispEdges"/><rect fill="#000000" x="963.8" y="294.3" width="12.2" height="24.65" shape-rendering="crispEdges"/><rect fill="#000000" x="0" y="318.7" width="12.2" height="24.65" shape-rendering="crispEdges"/><rect fill="#000000" x="12.2" y="318.7" width="12.2" height="24.65" shape-rendering="crispEdges"/><rect fill="#000000" x="24.4" y="318.7" width="170.8" height="24.65" shape-rendering="crispEdges"/><rect fill="#000000" x="195.2" y="318.7" width="732" height="24.65" shape-rendering="crispEdges"/><rect fill="#000000" x="927.2" y="318.7" width="12.2" height="24.65" shape-rendering="crispEdges"/><rect fill="#666666" x="939.4" y="318.7" width="24.4" height="24.65" shape-rendering="crispEdges"/><rect fill="#000000" x="963.8" y="318.7" width="12.2" height="24.65" shape-rendering="crispEdges"/><rect fill="#000000" x="0" y="343.1" width="12.2" height="24.65" shape-rendering="crispEdges"/><rect fill="#000000" x="12.2" y="343.1" width="12.2" height="24.65" shape-rendering="crispEdges"/><rect fill="#000000" x="24.4" y="343.1" width="134.2" height="24.65" shape-rendering="crispEdges"/><rect fill="#000000" x="158.6" y="343.1" width="768.6" height="24.65" shape-rendering="crispEdges"/><rect fill="#000000" x="927.2" y="343.1" width="12.2" height="24.65" shape-rendering="crispEdges"/><rect fill="#666666" x="939.4" y="343.1" width="24.4" height="24.65" shape-rendering="crispEdges"/><rect fill="#000000" x="963.8" y="343.1" width="12.2" height="24.65" shape-rendering="crispEdges"/><rect fill="#000000" x="0" y="367.5" width="12.2" height="24.65" shape-rendering="crispEdges"/><rect fill="#000000" x="12.2" y="367.5" width="12.2" height="24.65" shape-rendering="crispEdges"/><rect fill="#000000" x="24.4" y="367.5" width="0" height="24.65" shape-rendering="crispEdges"/><rect fill="#000000" x="24.4" y="367.5" width="902.8" height="24.65" shape-rendering="crispEdges"/><rect fill="#000000" x="927.2" y="367.5" width="12.2" height="24.65" shape-rendering="crispEdges"/><rect fill="#000000" x="939.4" y="367.5" width="24.4" height="24.65" shape-rendering="crispEdges"/><rect fill="#000000" x="963.8" y="367.5" width="12.2" height="24.65" shape-rendering="crispEdges"/><rect fill="#000000" x="0" y="391.9" width="12.2" height="24.65" shape-rendering="crispEdges"/><rect fill="#000000" x="12.2" y="391.9" width="12.2" height="24.65" shape-rendering="crispEdges"/><rect fill="#000000" x="24.4" y="391.9" width="195.2" height="24.65" shape-rendering="crispEdges"/><rect fill="#000000" x="219.6" y="391.9" width="707.6" height="24.65" shape-rendering="crispEdges"/><rect fill="#000000" x="927.2" y="391.9" width="12.2" height="24.65" shape-rendering="crispEdges"/><rect fill="#000000" x="939.4" y="391.9" width="24.4" height="24.65" shape-rendering="crispEdges"/><rect fill="#000000" x="963.8" y="391.9" width="12.2" height="24.65" shape-rendering="crispEdges"/><rect fill="#000000" x="0" y="416.3" width="12.2" height="24.65" shape-rendering="crispEdges"/><rect fill="#000000" x="12.2" y="416.3" width="12.2" height="24.65" shape-rendering="crispEdges"/><rect fill="#000000" x="24.4" y="416.3" width="0" height="24.65" shape-rendering="crispEdges"/><rect fill="#000000" x="24.4" y="416.3" width="902.8" height="24.65" shape-rendering="crispEdges"/><rect fill="#000000" x="927.2" y="416.3" width="12.2" height="24.65" shape-rendering="crispEdges"/><rect fill="#000000" x="939.4" y="416.3" width="24.4" height="24.65" shape-rendering="crispEdges"/><rect fill="#000000" x="963.8" y="416.3" width="12.2" height="24.65" shape-rendering="crispEdges"/><rect fill="#000000" x="0" y="440.7" width="12.2" height="24.65" shape-rendering="crispEdges"/><rect fill="#000000" x="12.2" y="440.7" width="12.2" height="24.65" shape-rendering="crispEdges"/><rect fill="#000000" x="24.4" y="440.7" width="146.4" height="24.65" shape-rendering="crispEdges"/><rect fill="#000000" x="170.8" y="440.7" width="756.4" height="24.65" shape-rendering="crispEdges"/><rect fill="#000000" x="927.2" y="440.7" width="12.2" height="24.65" shape-rendering="crispEdges"/><rect fill="#000000" x="939.4" y="440.7" width="24.4" height="24.65" shape-rendering="crispEdges"/><rect fill="#000000" x="963.8" y="440.7" width="12.2" height="24.65" shape-rendering="crispEdges"/><rect fill="#000000" x="0" y="465.1" width="12.2" height="24.65" shape-rendering="crispEdges"/><rect fill="#000000" x="12.2" y="465.1" width="12.2" height="24.65" shape-rendering="crispEdges"/><rect fill="#000000" x="24.4" y="465.1" width="0" height="24.65" shape-rendering="crispEdges"/><rect fill="#000000" x="24.4" y="465.1" width="902.8" height="24.65" shape-rendering="crispEdges"/><rect fill="#000000" x="927.2" y="465.1" width="12.2" height="24.65" shape-rendering="crispEdges"/><rect fill="#000000" x="939.4" y="465.1" width="24.4" height="24.65" shape-rendering="crispEdges"/><rect fill="#000000" x="963.8" y="465.1" width="12.2" height="24.65" shape-rendering="crispEdges"/><rect fill="#000000" x="0" y="489.5" width="12.2" height="24.65" shape-rendering="crispEdges"/><rect fill="#000000" x="12.2" y="489.5" width="12.2" height="24.65" shape-rendering="crispEdges"/><rect fill="#000000" x="24.4" y="489.5" width="231.8" height="24.65" shape-rendering="crispEdges"/><rect fill="#000000" x="256.2" y="489.5" width="671" height="24.65" shape-rendering="crispEdges"/><rect fill="#000000" x="927.2" y="489.5" width="12.2" height="24.65" shape-rendering="crispEdges"/><rect fill="#000000" x="939.4" y="489.5" width="24.4" height="24.65" shape-rendering="crispEdges"/><rect fill="#000000" x="963.8" y="489.5" width="12.2" height="24.65" shape-rendering="crispEdges"/><rect fill="#000000" x="0" y="513.9" width="12.2" height="24.65" shape-rendering="crispEdges"/><rect fill="#000000" x="12.2" y="513.9" width="12.2" height="24.65" shape-rendering="crispEdges"/><rect fill="#000000" x="24.4" y="513.9" width="0" height="24.65" shape-rendering="crispEdges"/><rect fill="#000000" x="24.4" y="513.9" width="902.8" height="24.65" shape-rendering="crispEdges"/><rect fill="#000000" x="927.2" y="513.9" width="12.2" height="24.65" shape-rendering="crispEdges"/><rect fill="#000000" x="939.4" y="513.9" width="24.4" height="24.65" shape-rendering="crispEdges"/><rect fill="#000000" x="963.8" y="513.9" width="12.2" height="24.65" shape-rendering="crispEdges"/><rect fill="#000000" x="0" y="538.3" width="12.2" height="24.65" shape-rendering="crispEdges"/><rect fill="#000000" x="12.2" y="538.3" width="951.6" height="24.65" shape-rendering="crispEdges"/><rect fill="#000000" x="963.8" y="538.3" width="12.2" height="24.65" shape-rendering="crispEdges"/><rect fill="#000000" x="0" y="562.7" width="12.2" height="24.65" shape-rendering="crispEdges"/><rect fill="#000000" x="12.2" y="562.7" width="854" height="24.65" shape-rendering="crispEdges"/><rect fill="#000000" x="866.2" y="562.7" width="97.6" height="24.65" shape-rendering="crispEdges"/><rect fill="#000000" x="963.8" y="562.7" width="12.2" height="24.65" shape-rendering="crispEdges"/>
    <g class="terminal-475909741-matrix">
    <text class="terminal-475909741-r1" x="0" y="20" textLength="12.2" clip-path="url(#terminal-475909741-line-0)">┌</text><text class="terminal-475909741-r1" x="12.2" y="20" textLength="597.8" clip-path="url(#terminal-475909741-line-0)">─────────────────────────────────────────────────</text><text class="terminal-475909741-r1" x="610" y="20" textLength="12.2" clip-path="url(#terminal-475909741-line-0)">┐</text><text class="terminal-475909741-r2" x="976" y="20" textLength="12.2" clip-path="url(#terminal-475909741-line-0)">
</text><text class="terminal-475909741-r1" x="0" y="44.4" textLength="12.2" clip-path="url(#terminal-475909741-line-1)">│</text><text class="terminal-475909741-r3" x="24.4" y="44.4" textLength="341.6" clip-path="url(#terminal-475909741-line-1)">https://youtu.be/dQw4w9WgXcQ</text><text class="terminal-475909741-r1" x="610" y="44.4" textLength="12.2" clip-path="url(#terminal-475909741-line-1)">│</text><text class="terminal-475909741-r4" x="634.4" y="44.4" textLength="85.4" clip-path="url(#terminal-475909741-line-1)">&#160;Fetch&#160;</text><text class="terminal-475909741-r5" x="732" y="44.4" textLength="12.2" clip-path="url(#terminal-475909741-line-1)">▐</text><text class="terminal-475909741-r6" x="744.2" y="44.4" textLength="12.2" clip-path="url(#terminal-475909741-line-1)">X</text><text class="terminal-475909741-r5" x="756.4" y="44.4" textLength="12.2" clip-path="url(#terminal-475909741-line-1)">▌</text><text class="terminal-475909741-r7" x="768.6" y="44.4" textLength="183" clip-path="url(#terminal-475909741-line-1)">&#160;Force&#160;refresh&#160;</text><text class="terminal-475909741-r2" x="976" y="44.4" textLength="12.2" clip-path="url(#terminal-475909741-line-1)">
</text><text class="terminal-475909741-r1" x="0" y="68.8" textLength="12.2" clip-path="url(#terminal-475909741-line-2)">└</text><text class="terminal-475909741-r1" x="12.2" y="68.8" textLength="597.8" clip-path="url(#terminal-475909741-line-2)">─────────────────────────────────────────────────</text><text class="terminal-475909741-r1" x="610" y="68.8" textLength="12.2" clip-path="url(#terminal-475909741-line-2)">┘</text><text class="terminal-475909741-r2" x="976" y="68.8" textLength="12.2" clip-path="url(#terminal-475909741-line-2)">
</text><text class="terminal-475909741-r7" x="12.2" y="93.2" textLength="256.2" clip-path="url(#terminal-475909741-line-3)">openai&#160;/&#160;gpt-4.1-mini</text><text class="terminal-475909741-r2" x="976" y="93.2" textLength="12.2" clip-path="url(#terminal-475909741-line-3)">
</text><text class="terminal-475909741-r7" x="12.2" y="117.6" textLength="622.2" clip-path="url(#terminal-475909741-line-4)">completion:&#160;Outputs&#160;saved.&#160;Reused&#160;stages:&#160;download.</text><text class="terminal-475909741-r2" x="976" y="117.6" textLength="12.2" clip-path="url(#terminal-475909741-line-4)">
</text><text class="terminal-475909741-r2" x="976" y="142" textLength="12.2" clip-path="url(#terminal-475909741-line-5)">
</text><text class="terminal-475909741-r1" x="0" y="166.4" textLength="12.2" clip-path="url(#terminal-475909741-line-6)">┌</text><text class="terminal-475909741-r1" x="12.2" y="166.4" textLength="12.2" clip-path="url(#terminal-475909741-line-6)">─</text><text class="terminal-475909741-r1" x="24.4" y="166.4" textLength="97.6" clip-path="url(#terminal-475909741-line-6)">&#160;Events&#160;</text><text class="terminal-475909741-r1" x="122" y="166.4" textLength="841.8" clip-path="url(#terminal-475909741-line-6)">─────────────────────────────────────────────────────────────────────</text><text class="terminal-475909741-r1" x="963.8" y="166.4" textLength="12.2" clip-path="url(#terminal-475909741-line-6)">┐</text><text class="terminal-475909741-r2" x="976" y="166.4" textLength="12.2" clip-path="url(#terminal-475909741-line-6)">
</text><text class="terminal-475909741-r1" x="0" y="190.8" textLength="12.2" clip-path="url(#terminal-475909741-line-7)">│</text><text class="terminal-475909741-r3" x="12.2" y="190.8" textLength="427" clip-path="url(#terminal-475909741-line-7)">transcription:&#160;Transcribing&#160;speech.</text><text class="terminal-475909741-r1" x="963.8" y="190.8" textLength="12.2" clip-path="url(#terminal-475909741-line-7)">│</text><text class="terminal-475909741-r2" x="976" y="190.8" textLength="12.2" clip-path="url(#terminal-475909741-line-7)">
</text><text class="terminal-475909741-r1" x="0" y="215.2" textLength="12.2" clip-path="url(#terminal-475909741-line-8)">└</text><text class="terminal-475909741-r1" x="12.2" y="215.2" textLength="951.6" clip-path="url(#terminal-475909741-line-8)">──────────────────────────────────────────────────────────────────────────────</text><text class="terminal-475909741-r1" x="963.8" y="215.2" textLength="12.2" clip-path="url(#terminal-475909741-line-8)">┘</text><text class="terminal-475909741-r2" x="976" y="215.2" textLength="12.2" clip-path="url(#terminal-475909741-line-8)">
</text><text class="terminal-475909741-r3" x="12.2" y="239.6" textLength="85.4" clip-path="url(#terminal-475909741-line-9)">Summary</text><text class="terminal-475909741-r9" x="122" y="239.6" textLength="122" clip-path="url(#terminal-475909741-line-9)">Transcript</text><text class="terminal-475909741-r9" x="268.4" y="239.6" textLength="146.4" clip-path="url(#terminal-475909741-line-9)">Output&#160;paths</text><text class="terminal-475909741-r2" x="976" y="239.6" textLength="12.2" clip-path="url(#terminal-475909741-line-9)">
</text><text class="terminal-475909741-r3" x="0" y="264" textLength="12.2" clip-path="url(#terminal-475909741-line-10)">┌</text><text class="terminal-475909741-r3" x="12.2" y="264" textLength="12.2" clip-path="url(#terminal-475909741-line-10)">─</text><text class="terminal-475909741-r3" x="24.4" y="264" textLength="109.8" clip-path="url(#terminal-475909741-line-10)">&#160;&gt;&#160;Focus&#160;</text><text class="terminal-475909741-r3" x="134.2" y="264" textLength="829.6" clip-path="url(#terminal-475909741-line-10)">────────────────────────────────────────────────────────────────────</text><text class="terminal-475909741-r3" x="963.8" y="264" textLength="12.2" clip-path="url(#terminal-475909741-line-10)">┐</text><text class="terminal-475909741-r2" x="976" y="264" textLength="12.2" clip-path="url(#terminal-475909741-line-10)">
</text><text class="terminal-475909741-r3" x="0" y="288.4" textLength="12.2" clip-path="url(#terminal-475909741-line-11)">│</text><text class="terminal-475909741-r7" x="24.4" y="288.4" textLength="109.8" clip-path="url(#terminal-475909741-line-11)">#&#160;Summary</text><text class="terminal-475909741-r3" x="963.8" y="288.4" textLength="12.2" clip-path="url(#terminal-475909741-line-11)">│</text><text class="terminal-475909741-r2" x="976" y="288.4" textLength="12.2" clip-path="url(#terminal-475909741-line-11)">
</text><text class="terminal-475909741-r3" x="0" y="312.8" textLength="12.2" clip-path="url(#terminal-475909741-line-12)">│</text><text class="terminal-475909741-r3" x="963.8" y="312.8" textLength="12.2" clip-path="url(#terminal-475909741-line-12)">│</text><text class="terminal-475909741-r2" x="976" y="312.8" textLength="12.2" clip-path="url(#terminal-475909741-line-12)">
</text><text class="terminal-475909741-r3" x="0" y="337.2" textLength="12.2" clip-path="url(#terminal-475909741-line-13)">│</text><text class="terminal-475909741-r7" x="24.4" y="337.2" textLength="170.8" clip-path="url(#terminal-475909741-line-13)">Provider:&#160;fake</text><text class="terminal-475909741-r3" x="963.8" y="337.2" textLength="12.2" clip-path="url(#terminal-475909741-line-13)">│</text><text class="terminal-475909741-r2" x="976" y="337.2" textLength="12.2" clip-path="url(#terminal-475909741-line-13)">
</text><text class="terminal-475909741-r3" x="0" y="361.6" textLength="12.2" clip-path="url(#terminal-475909741-line-14)">│</text><text class="terminal-475909741-r7" x="24.4" y="361.6" textLength="134.2" clip-path="url(#terminal-475909741-line-14)">Model:&#160;test</text><text class="terminal-475909741-r8" x="939.4" y="361.6" textLength="24.4" clip-path="url(#terminal-475909741-line-14)">▃▃</text><text class="terminal-475909741-r3" x="963.8" y="361.6" textLength="12.2" clip-path="url(#terminal-475909741-line-14)">│</text><text class="terminal-475909741-r2" x="976" y="361.6" textLength="12.2" clip-path="url(#terminal-475909741-line-14)">
</text><text class="terminal-475909741-r3" x="0" y="386" textLength="12.2" clip-path="url(#terminal-475909741-line-15)">│</text><text class="terminal-475909741-r3" x="963.8" y="386" textLength="12.2" clip-path="url(#terminal-475909741-line-15)">│</text><text class="terminal-475909741-r2" x="976" y="386" textLength="12.2" clip-path="url(#terminal-475909741-line-15)">
</text><text class="terminal-475909741-r3" x="0" y="410.4" textLength="12.2" clip-path="url(#terminal-475909741-line-16)">│</text><text class="terminal-475909741-r7" x="24.4" y="410.4" textLength="195.2" clip-path="url(#terminal-475909741-line-16)">##&#160;Short&#160;summary</text><text class="terminal-475909741-r3" x="963.8" y="410.4" textLength="12.2" clip-path="url(#terminal-475909741-line-16)">│</text><text class="terminal-475909741-r2" x="976" y="410.4" textLength="12.2" clip-path="url(#terminal-475909741-line-16)">
</text><text class="terminal-475909741-r3" x="0" y="434.8" textLength="12.2" clip-path="url(#terminal-475909741-line-17)">│</text><text class="terminal-475909741-r3" x="963.8" y="434.8" textLength="12.2" clip-path="url(#terminal-475909741-line-17)">│</text><text class="terminal-475909741-r2" x="976" y="434.8" textLength="12.2" clip-path="url(#terminal-475909741-line-17)">
</text><text class="terminal-475909741-r3" x="0" y="459.2" textLength="12.2" clip-path="url(#terminal-475909741-line-18)">│</text><text class="terminal-475909741-r7" x="24.4" y="459.2" textLength="146.4" clip-path="url(#terminal-475909741-line-18)">Short&#160;notes.</text><text class="terminal-475909741-r3" x="963.8" y="459.2" textLength="12.2" clip-path="url(#terminal-475909741-line-18)">│</text><text class="terminal-475909741-r2" x="976" y="459.2" textLength="12.2" clip-path="url(#terminal-475909741-line-18)">
</text><text class="terminal-475909741-r3" x="0" y="483.6" textLength="12.2" clip-path="url(#terminal-475909741-line-19)">│</text><text class="terminal-475909741-r3" x="963.8" y="483.6" textLength="12.2" clip-path="url(#terminal-475909741-line-19)">│</text><text class="terminal-475909741-r2" x="976" y="483.6" textLength="12.2" clip-path="url(#terminal-475909741-line-19)">
</text><text class="terminal-475909741-r3" x="0" y="508" textLength="12.2" clip-path="url(#terminal-475909741-line-20)">│</text><text class="terminal-475909741-r7" x="24.4" y="508" textLength="231.8" clip-path="url(#terminal-475909741-line-20)">##&#160;Detailed&#160;summary</text><text class="terminal-475909741-r3" x="963.8" y="508" textLength="12.2" clip-path="url(#terminal-475909741-line-20)">│</text><text class="terminal-475909741-r2" x="976" y="508" textLength="12.2" clip-path="url(#terminal-475909741-line-20)">
</text><text class="terminal-475909741-r3" x="0" y="532.4" textLength="12.2" clip-path="url(#terminal-475909741-line-21)">│</text><text class="terminal-475909741-r3" x="963.8" y="532.4" textLength="12.2" clip-path="url(#terminal-475909741-line-21)">│</text><text class="terminal-475909741-r2" x="976" y="532.4" textLength="12.2" clip-path="url(#terminal-475909741-line-21)">
</text><text class="terminal-475909741-r3" x="0" y="556.8" textLength="12.2" clip-path="url(#terminal-475909741-line-22)">└</text><text class="terminal-475909741-r3" x="12.2" y="556.8" textLength="951.6" clip-path="url(#terminal-475909741-line-22)">──────────────────────────────────────────────────────────────────────────────</text><text class="terminal-475909741-r3" x="963.8" y="556.8" textLength="12.2" clip-path="url(#terminal-475909741-line-22)">┘</text><text class="terminal-475909741-r2" x="976" y="556.8" textLength="12.2" clip-path="url(#terminal-475909741-line-22)">
</text><text class="terminal-475909741-r10" x="12.2" y="581.2" textLength="854" clip-path="url(#terminal-475909741-line-23)">u&#160;URL&#160;&#160;f&#160;force&#160;&#160;s&#160;settings&#160;&#160;m&#160;video&#160;|&#160;1/2/3&#160;views&#160;&#160;?&#160;help&#160;&#160;Ctrl+Q&#160;quit</text>
    </g>
    </g>
</svg>
